<svg xmlns="http://www.w3.org/2000/svg" width="72" height="71" viewBox="0 0 72 71" fill="none">
  <path d="M34.724 54.2051C34.724 54.8375 35.2367 55.3502 35.8691 55.3502C36.5016 55.3502 37.0143 54.8375 37.0143 54.2051L34.724 54.2051ZM36.6789 17.5136C36.2317 17.0664 35.5066 17.0664 35.0594 17.5136L27.7716 24.8014C27.3244 25.2486 27.3244 25.9737 27.7716 26.4209C28.2188 26.8681 28.9439 26.8681 29.3911 26.4209L35.8691 19.9429L42.3471 26.4209C42.7944 26.8681 43.5194 26.8681 43.9667 26.4209C44.4139 25.9737 44.4139 25.2486 43.9667 24.8014L36.6789 17.5136ZM37.0143 54.2051L37.0143 18.3234L34.724 18.3234L34.724 54.2051L37.0143 54.2051Z" fill="#333333"/>
</svg>