<svg width="219" height="117" viewBox="0 0 219 117" fill="none" xmlns="http://www.w3.org/2000/svg">
<rect width="219" height="117" fill="#C0C0C0"/>
<g id="1920 &#226;&#132;&#150; Page 01" clip-path="url(#clip0_33_4)">
<rect width="1920" height="8138" transform="translate(-496 -4504)" fill="white"/>
<g id="Frame 174">
<g id="Frame 26">
<g id="Group 201">
<rect id="Rectangle 27" x="-293.75" y="494.75" width="565.5" height="1375.5" rx="22.9375" transform="rotate(-90 -293.75 494.75)" stroke="#E9E9E9" stroke-width="1.5"/>
<g id="Group 197">
<g id="Group 182">
<g id="Group">
<g id="Group_2">
<path id="Vector" d="M212.296 30.7041L210.755 29.9312V10.6038L189.547 0L168.34 10.6038V21.3454L153.537 13.942L128.448 26.4885H133.307L153.537 16.3777L168.34 23.777V31.9408L189.547 42.5445L191.177 41.7298V49.668L181.726 54.3933V65.0639L191.177 69.7892V72.5801L174.966 80.6854V76.0061L161.346 69.196V63.8941H0V73.3698H94.3726V72.977L109.81 65.2603L113.725 67.2156L114.811 67.7629L115.898 68.306L125.248 72.977V73.3698H161.346V70.4118L173.876 76.6746V86.7978L170.826 85.2729L155.167 93.1024V108.223L151.557 110.028L129.234 98.8681V78.1369H161.346V75.7679H128.624H125.248V78.1369H128.147V99.5407L151.557 111.243L155.71 109.167L170.826 116.725L186.489 108.895V103.773L193.312 107.182L208.603 99.5366V84.1156L193.312 76.4698L178.02 84.1156V88.8701L174.966 87.341V83.117L193.353 73.9213V69.7934L202.808 65.0639V54.3933L193.353 49.668V40.6435L194.582 40.0294V45.4649L200.485 48.4188L206.393 51.3726L212.296 48.4188L218.204 45.4649V33.6538L212.296 30.7041ZM175.004 88.5819L176.019 89.0874L178.02 90.0859V99.5366L185.399 103.226V108.223L170.826 115.509L157.544 108.866L156.963 108.578L156.925 108.557L156.29 108.248L156.253 107.679V93.7793L170.826 86.4887L172.994 87.575L173.876 88.0178L173.913 88.0345L174.966 88.561L175.004 88.5819ZM201.718 55.066V64.3913L193.353 68.5776L192.267 69.1208L191.177 68.5734L182.808 64.3913V55.066L191.177 50.8838L192.267 50.3407L193.353 50.8838L201.718 55.066ZM209.669 29.388L206.393 27.7502L200.485 30.7041L194.582 33.6538V38.8136L193.353 39.4236L192.267 39.9667L191.177 40.5098L189.547 41.3287L169.426 31.2639V11.2722L189.547 1.2158L209.669 11.2722V29.388Z" fill="#00468E"/>
</g>
<g id="Group_3">
<g id="Group_4">
<path id="Vector_2" d="M94.3767 75.7681H0V78.137H94.3767V75.7681Z" fill="#00468E"/>
</g>
</g>
<g id="Group_5">
<path id="Vector_3" fill-rule="evenodd" clip-rule="evenodd" d="M123.075 74.3224V87.3285L109.81 93.959L96.5488 87.3285V74.3224L98.4498 73.3698L109.81 67.6919L113.725 69.6472L114.811 70.1903L121.17 73.3698L123.075 74.3224Z" fill="#00468E"/>
</g>
</g>
<g id="Group_6">
<g id="Group_7">
<path id="Vector_4" d="M18.8177 49.5972H8.03429L6.75164 52.5677C6.32966 53.5579 6.12076 54.3768 6.12076 55.0202C6.12076 55.8767 6.46754 56.5076 7.15691 56.9129C7.56217 57.1552 8.56071 57.3348 10.1525 57.4518V58.2832H0V57.4518C1.09463 57.2889 1.99708 56.8335 2.70316 56.0898C3.40924 55.3461 4.27827 53.8128 5.31441 51.4856L16.2315 27.1279H16.6577L27.6667 52.1583C28.7154 54.5314 29.5802 56.0229 30.257 56.6371C30.7668 57.1009 31.4854 57.3724 32.4171 57.4476V58.2832H17.6479V57.4518H18.2537C19.4402 57.4518 20.2716 57.2889 20.7521 56.9546C21.0822 56.7165 21.2493 56.3697 21.2493 55.9185C21.2493 55.6469 21.2033 55.3712 21.1156 55.0871C21.0863 54.9534 20.8607 54.3893 20.4388 53.3992L18.8177 49.5972ZM18.0531 47.9302L13.5075 37.4183L8.82393 47.9302H18.0531Z" fill="#00468E"/>
<path id="Vector_5" d="M58.0028 27.7632V36.0231H57.1922C56.7118 34.1179 56.1812 32.7475 55.5921 31.9161C55.0071 31.0847 54.205 30.4204 53.1813 29.9232C52.609 29.6516 51.6146 29.5179 50.1857 29.5179H47.9129V53.0651C47.9129 54.6277 48.0006 55.6012 48.1719 55.9897C48.3432 56.3783 48.6817 56.7209 49.183 57.0133C49.6844 57.3058 50.3737 57.452 51.2428 57.452H52.2538V58.2834H36.273V57.452H37.2841C38.1698 57.452 38.8843 57.2933 39.4232 56.9799C39.8118 56.771 40.1209 56.4117 40.3465 55.8978C40.5095 55.5385 40.593 54.5943 40.593 53.0609V29.5138H38.3871C36.3315 29.5138 34.84 29.9483 33.9083 30.8173C32.6047 32.0331 31.7775 33.767 31.4307 36.0189H30.5742V27.7632H58.0028Z" fill="#00468E"/>
<path id="Vector_6" d="M72.2295 29.5177V41.9431H72.8353C74.7697 41.9431 76.1735 41.3373 77.0467 40.1215C77.9157 38.9057 78.4714 37.1133 78.7137 34.7402H79.5702V50.721H78.7137C78.5341 48.9788 78.1539 47.5541 77.5773 46.4428C77.0007 45.3314 76.3281 44.5878 75.5635 44.2034C74.7989 43.819 73.6876 43.631 72.2336 43.631V52.2293C72.2336 53.9089 72.3047 54.9366 72.4467 55.3127C72.5888 55.6887 72.8562 55.9937 73.2447 56.236C73.6333 56.4741 74.2641 56.5953 75.1374 56.5953H76.959C79.8083 56.5953 82.0937 55.9352 83.815 54.6149C85.5322 53.2947 86.7689 51.2851 87.5168 48.5819H88.3482L86.9736 58.2832H60.5938V57.4518H61.6048C62.4906 57.4518 63.205 57.293 63.744 56.9797C64.1325 56.7708 64.4333 56.4115 64.6464 55.8976C64.8093 55.5383 64.8929 54.594 64.8929 53.0607V32.9813C64.8929 31.6025 64.8553 30.7544 64.7801 30.4369C64.6297 29.9105 64.3539 29.5052 63.9487 29.2211C63.3763 28.7991 62.5992 28.5902 61.609 28.5902H60.5979V27.7588H86.1464V36.7833H85.2899C84.8554 34.5773 84.2412 32.9938 83.4557 32.0329C82.6661 31.0719 81.5548 30.3659 80.1133 29.9188C79.2736 29.6472 77.6985 29.5135 75.388 29.5135H72.2295V29.5177Z" fill="#00468E"/>
<path id="Vector_7" d="M121.187 27.0653V37.644H120.31C119.65 34.8823 118.417 32.7682 116.617 31.2976C114.816 29.8269 112.773 29.0916 110.496 29.0916C108.591 29.0916 106.84 29.6389 105.252 30.7335C103.661 31.8282 102.499 33.2612 101.764 35.0327C100.82 37.2972 100.347 39.8207 100.347 42.5949C100.347 45.3273 100.694 47.8132 101.384 50.0568C102.073 52.3004 103.155 53.9966 104.626 55.1456C106.096 56.2945 108.002 56.8669 110.341 56.8669C112.263 56.8669 114.022 56.4449 115.618 55.6052C117.218 54.7654 118.902 53.3156 120.673 51.26V53.8922C118.965 55.6762 117.181 56.9714 115.326 57.7735C113.471 58.5757 111.306 58.9768 108.833 58.9768C105.578 58.9768 102.683 58.325 100.155 57.0173C97.6276 55.7138 95.6765 53.8379 94.3019 51.3896C92.9274 48.9454 92.2422 46.3384 92.2422 43.5767C92.2422 40.6646 93.0026 37.903 94.5276 35.2917C96.0525 32.6805 98.1081 30.6542 100.694 29.2128C103.285 27.7713 106.034 27.0527 108.946 27.0527C111.093 27.0527 113.358 27.5165 115.743 28.4482C117.122 28.9871 118.004 29.2587 118.376 29.2587C118.856 29.2587 119.274 29.0832 119.625 28.7281C119.976 28.3772 120.206 27.8173 120.31 27.0527H121.187V27.0653Z" fill="#00468E"/>
<path id="Vector_8" d="M147.028 32.8018C147.011 31.1515 146.815 30.036 146.43 29.4595C146.046 28.8829 145.089 28.5946 143.56 28.5946H142.549V27.7632H158.914V28.5946H157.857C156.445 28.5946 155.513 28.8662 155.054 29.4051C154.594 29.9441 154.368 31.1306 154.368 32.9606V53.0401C154.368 54.916 154.602 56.1192 155.066 56.654C155.53 57.1888 156.462 57.452 157.857 57.452H158.914V58.2834H142.549V57.452H143.56C144.985 57.452 145.921 57.1721 146.363 56.6081C146.806 56.044 147.028 54.8575 147.028 53.0401V36.4743L136.269 53.3576C136.269 54.8115 136.449 55.8602 136.808 56.4994C137.168 57.1387 138.145 57.4562 139.733 57.4562H140.79V58.2834H124.425V57.452H125.436C126.861 57.452 127.801 57.1721 128.248 56.6081C128.699 56.044 128.925 54.8575 128.925 53.0401V32.9606C128.925 31.1306 128.745 29.9441 128.386 29.4051C128.026 28.8662 127.044 28.5946 125.436 28.5946H124.425V27.7632H140.79V28.5946H139.733C138.35 28.5946 137.431 28.8912 136.963 29.4845C136.499 30.0778 136.265 31.2351 136.265 32.9606V49.6851L147.028 32.8018Z" fill="#00468E"/>
</g>
<path id="Vector_9" d="M160.297 30.4116C160.965 30.4116 161.621 30.5829 162.256 30.9255C162.895 31.2723 163.393 31.7611 163.743 32.4003C164.099 33.0396 164.278 33.7081 164.278 34.4016C164.278 35.0868 164.103 35.7469 163.752 36.382C163.401 37.017 162.912 37.51 162.277 37.8568C161.646 38.2078 160.982 38.3832 160.292 38.3832C159.603 38.3832 158.943 38.2078 158.308 37.8568C157.677 37.51 157.184 37.017 156.833 36.382C156.482 35.7469 156.307 35.091 156.307 34.4016C156.307 33.7081 156.482 33.0396 156.841 32.4003C157.201 31.7611 157.698 31.2723 158.333 30.9255C158.976 30.5871 159.632 30.4116 160.297 30.4116ZM160.297 31.0717C159.737 31.0717 159.194 31.2138 158.663 31.5021C158.132 31.7904 157.719 32.1998 157.418 32.7304C157.117 33.2652 156.971 33.8209 156.971 34.3974C156.971 34.974 157.117 35.5213 157.41 36.0477C157.706 36.5742 158.116 36.9836 158.642 37.2761C159.169 37.5727 159.72 37.7189 160.297 37.7189C160.873 37.7189 161.425 37.5727 161.947 37.2761C162.478 36.9836 162.887 36.5742 163.179 36.0477C163.472 35.5213 163.618 34.974 163.618 34.3974C163.618 33.8209 163.468 33.2652 163.171 32.7304C162.874 32.1998 162.461 31.7862 161.926 31.5021C161.4 31.2138 160.856 31.0717 160.297 31.0717ZM158.542 36.6076V32.3084H160.021C160.526 32.3084 160.89 32.346 161.12 32.4296C161.345 32.509 161.525 32.6468 161.659 32.8432C161.792 33.0396 161.859 33.2527 161.859 33.4741C161.859 33.7916 161.746 34.0632 161.521 34.2972C161.295 34.5311 160.994 34.6606 160.623 34.6899C160.773 34.7526 160.898 34.8278 160.99 34.9155C161.161 35.0826 161.375 35.3667 161.625 35.7678L162.156 36.6076H161.316L160.928 35.9308C160.623 35.4001 160.376 35.0659 160.196 34.928C160.067 34.8278 159.883 34.7818 159.637 34.7776H159.227V36.6076H158.542ZM159.231 34.1885H160.088C160.497 34.1885 160.777 34.13 160.928 34.0089C161.078 33.8877 161.149 33.7289 161.149 33.5326C161.149 33.4031 161.116 33.2903 161.04 33.19C160.965 33.0897 160.869 33.0145 160.739 32.9644C160.61 32.9142 160.376 32.8892 160.029 32.8892H159.227V34.1885H159.231Z" fill="#00468E"/>
</g>
</g>
</g>
</g>
</g>
</g>
</g>
<defs>
<clipPath id="clip0_33_4">
<rect width="1920" height="8138" fill="white" transform="translate(-496 -4504)"/>
</clipPath>
</defs>
</svg>
