<svg width="21" height="21" viewBox="0 0 21 21" fill="none" xmlns="http://www.w3.org/2000/svg">
<path d="M20.82 10.285C20.82 13.0128 19.7364 15.6288 17.8076 17.5576C15.8788 19.4864 13.2628 20.57 10.535 20.57C7.80725 20.57 5.19122 19.4864 3.26241 17.5576C1.3336 15.6288 0.25 13.0128 0.25 10.285C0.25 7.55725 1.3336 4.94122 3.26241 3.01241C5.19122 1.0836 7.80725 0 10.535 0C13.2628 0 15.8788 1.0836 17.8076 3.01241C19.7364 4.94122 20.82 7.55725 20.82 10.285ZM10.535 5.1425C10.3725 5.14259 10.2118 5.17672 10.0633 5.24269C9.91483 5.30865 9.78179 5.40499 9.67279 5.5255C9.56378 5.64601 9.48123 5.78802 9.43045 5.94237C9.37967 6.09673 9.36178 6.26001 9.37794 6.4217L9.82791 10.9304C9.84302 11.1075 9.92407 11.2725 10.055 11.3927C10.1859 11.513 10.3572 11.5797 10.535 11.5797C10.7128 11.5797 10.8841 11.513 11.015 11.3927C11.1459 11.2725 11.227 11.1075 11.2421 10.9304L11.6921 6.4217C11.7082 6.26001 11.6903 6.09673 11.6396 5.94237C11.5888 5.78802 11.5062 5.64601 11.3972 5.5255C11.2882 5.40499 11.1552 5.30865 11.0067 5.24269C10.8582 5.17672 10.6975 5.14259 10.535 5.1425ZM10.5376 12.8562C10.1966 12.8562 9.8696 12.9917 9.6285 13.2328C9.3874 13.4739 9.25195 13.8009 9.25195 14.1419C9.25195 14.4828 9.3874 14.8098 9.6285 15.0509C9.8696 15.2921 10.1966 15.4275 10.5376 15.4275C10.8785 15.4275 11.2055 15.2921 11.4466 15.0509C11.6877 14.8098 11.8232 14.4828 11.8232 14.1419C11.8232 13.8009 11.6877 13.4739 11.4466 13.2328C11.2055 12.9917 10.8785 12.8562 10.5376 12.8562Z" fill="#34C924"/>
</svg>
