<svg width="21" height="21" viewBox="0 0 21 21" fill="none" xmlns="http://www.w3.org/2000/svg">
<path d="M20.8214 10.3636C20.8214 13.1122 19.7378 15.7483 17.8088 17.6918C15.8799 19.6354 13.2637 20.7273 10.5357 20.7273C7.80777 20.7273 5.19156 19.6354 3.26262 17.6918C1.33367 15.7483 0.25 13.1122 0.25 10.3636C0.25 7.61503 1.33367 4.979 3.26262 3.03544C5.19156 1.09188 7.80777 0 10.5357 0C13.2637 0 15.8799 1.09188 17.8088 3.03544C19.7378 4.979 20.8214 7.61503 20.8214 10.3636ZM15.9163 6.09382C15.8101 5.98658 15.684 5.9015 15.5452 5.84345C15.4063 5.7854 15.2575 5.75552 15.1071 5.75552C14.9568 5.75552 14.808 5.7854 14.6691 5.84345C14.5303 5.9015 14.4042 5.98658 14.298 6.09382L8.25 12.1899L6.77343 10.6999C6.55883 10.4837 6.26778 10.3622 5.96429 10.3622C5.6608 10.3622 5.36974 10.4837 5.15514 10.6999C4.94055 10.9161 4.81999 11.2094 4.81999 11.5152C4.81999 11.8209 4.94055 12.1142 5.15514 12.3304L7.44086 14.6335C7.54702 14.7407 7.67314 14.8258 7.81198 14.8838C7.95083 14.9419 8.09968 14.9718 8.25 14.9718C8.40033 14.9718 8.54917 14.9419 8.68802 14.8838C8.82687 14.8258 8.95298 14.7407 9.05914 14.6335L15.9163 7.72437C16.0227 7.6174 16.1072 7.49033 16.1648 7.35043C16.2224 7.21053 16.252 7.06056 16.252 6.90909C16.252 6.75763 16.2224 6.60765 16.1648 6.46775C16.1072 6.32786 16.0227 6.20078 15.9163 6.09382Z" fill="#150035"/>
</svg>
