<svg width="258" height="60" viewBox="0 0 258 60" fill="none" xmlns="http://www.w3.org/2000/svg">
<path d="M8.81975 31.0133C22.1893 31.0133 35.1787 42.0432 35.1787 55.4462C33.3424 55.8198 31.4749 56.0198 29.6011 56.0436C15.5129 56.0436 3.74766 44.7087 3.21706 31.0174L8.81975 31.0133ZM29.5969 3.17945C31.4718 3.19758 33.3408 3.39343 35.1787 3.76437C35.1787 17.1799 22.206 28.2182 8.81557 28.2182H3.21706C4.13622 14.4642 15.5129 3.18363 29.6011 3.18363M37.9571 4.52477C43.219 6.2762 47.7955 9.64067 51.0369 14.1405C54.2784 18.6404 56.0199 24.047 56.0144 29.5927C56.0436 41.124 48.6319 51.0217 37.9571 54.6607V4.52477ZM0 59.2147H59.2105V0H0V59.2147Z" fill="#011E41"/>
<path d="M79.0311 26.0958V22.3648H91.352V17.6019H79.0311V10.6748H92.1375V5.94531H73.9883V25.8952C73.9883 30.9381 76.1358 34.3849 81.1786 35.0868C81.2742 35.1126 81.3722 35.128 81.4711 35.1328H81.563C82.0928 35.1942 82.6256 35.2263 83.159 35.2289H92.4926V30.4785H83.2008C81.5964 30.4785 79.0228 29.6889 79.0228 26.0916" fill="#011E41"/>
<path d="M96.0732 19.7702V35.2288H101.116V19.6699V5.92432H96.0732V19.7702Z" fill="#011E41"/>
<path d="M109.589 22.319C109.802 19.7412 112.418 17.6731 115.585 17.6731C118.543 17.6731 120.949 19.783 120.949 22.319H109.589ZM115.585 13.3656C109.209 13.3656 104.434 17.7566 104.434 24.6002V24.7715C104.434 31.4563 109.029 35.7513 115.714 35.7513C118.923 35.7513 121.923 34.8655 124.668 31.9493L121.626 28.9913C120.018 30.5956 118.455 31.4312 115.881 31.4312C112.121 31.4312 109.614 29.2336 109.464 25.8536H126.017C126.101 25.018 126.101 24.0821 126.101 24.0821C126.101 18.1243 121.923 13.353 115.585 13.353" fill="#011E41"/>
<path d="M140.263 17.886C141.282 17.863 142.294 18.0584 143.231 18.4591C144.168 18.8598 145.008 19.4565 145.695 20.209L148.82 16.9543C147.741 15.7641 146.418 14.8202 144.942 14.1865C143.465 13.5528 141.87 13.2443 140.263 13.2819C133.846 13.2819 128.69 18.0531 128.69 24.5625C128.69 31.0718 133.842 35.843 140.263 35.843C141.866 35.877 143.456 35.5667 144.928 34.9332C146.4 34.2996 147.718 33.3575 148.795 32.1706L145.695 28.9243C145.006 29.6738 144.166 30.2673 143.229 30.6651C142.292 31.0629 141.281 31.2557 140.263 31.2305C136.549 31.2305 133.717 28.402 133.717 24.5457C133.717 20.6895 136.545 17.861 140.263 17.861" fill="#011E41"/>
<path d="M156.976 26.104V18.6212H161.571V14.0254H156.976V5.92432H151.962V26.3965C152.108 31.1552 154.272 34.4015 159.14 35.0825C159.235 35.1089 159.333 35.1243 159.432 35.1285H159.524C160.054 35.19 160.587 35.222 161.12 35.2246H161.655V30.4826H161.154C159.549 30.4826 156.976 29.6929 156.976 26.0957" fill="#011E41"/>
<path d="M170.826 17.1884V14.0382H165.812V35.229H170.826V24.0863C170.826 20.5977 173.053 18.4126 176.542 18.4126C177.243 18.4095 177.943 18.4795 178.631 18.6215V13.7416C178.13 13.6643 177.625 13.6224 177.118 13.6162C174.089 13.6162 171.82 15.0033 170.809 17.1884" fill="#011E41"/>
<path d="M190.985 31.2765C189.667 31.2931 188.375 30.9176 187.271 30.1978C186.168 29.478 185.304 28.4464 184.788 27.2341C184.272 26.0218 184.129 24.6836 184.376 23.3895C184.622 22.0954 185.248 20.9039 186.174 19.9665C187.1 19.0291 188.283 18.3881 189.574 18.1249C190.865 17.8617 192.205 17.9883 193.424 18.4886C194.642 18.9888 195.685 19.8401 196.418 20.9343C197.152 22.0285 197.544 23.3161 197.544 24.6335C197.566 25.5048 197.412 26.3716 197.091 27.182C196.77 27.9924 196.289 28.7298 195.677 29.35C195.065 29.9702 194.333 30.4604 193.527 30.7915C192.721 31.1225 191.856 31.2875 190.985 31.2765ZM190.985 13.4072C184.551 13.4072 179.42 18.283 179.42 24.6335C179.42 30.9841 184.551 35.8598 190.985 35.8598C197.419 35.8598 202.545 30.9799 202.545 24.6335C202.545 18.2871 197.373 13.4072 190.985 13.4072Z" fill="#011E41"/>
<path d="M205.649 19.2649V35.229H210.696V19.4696V5.92041H205.649V19.2649Z" fill="#011E41"/>
<path d="M228.896 26.3548C228.896 29.6972 226.919 31.1511 224.27 31.1511C221.622 31.1511 219.645 29.7181 219.645 26.4175V14.0381H214.557V26.8353C214.557 32.8892 218.973 35.7929 224.229 35.7929C229.485 35.7929 233.98 32.8683 233.98 26.71V14.0381H228.896V26.3548Z" fill="#011E41"/>
<path d="M253.07 28.4522L249.89 24.0026L253.826 18.6339L257.202 14.0381H251.695L247.112 20.3845L242.487 14.0381H237.022L240.156 18.3247L244.338 24.0444L239.955 30.1484L236.308 35.2289H241.731L247.112 27.7419L252.493 35.2289H257.916L253.07 28.4522Z" fill="#011E41"/>
<path d="M251.912 53.2947V43.1255H254.005V51.3728H257.916V53.2947H251.912Z" fill="#011E41"/>
<path d="M202.253 53.4909C201.215 53.4704 200.207 53.1438 199.354 52.5521C198.501 51.9605 197.842 51.1302 197.46 50.1654C197.077 49.2006 196.988 48.1443 197.204 47.1291C197.419 46.1138 197.93 45.1849 198.672 44.4589C199.413 43.7328 200.353 43.242 201.372 43.048C202.392 42.8539 203.446 42.9654 204.403 43.3683C205.359 43.7712 206.175 44.4477 206.749 45.3127C207.322 46.1778 207.627 47.193 207.626 48.2308C207.626 48.9314 207.487 49.625 207.216 50.2709C206.945 50.9168 206.547 51.502 206.047 51.992C205.546 52.4821 204.953 52.8672 204.301 53.1246C203.65 53.382 202.953 53.5065 202.253 53.4909ZM202.253 44.8759C201.816 44.8753 201.383 44.9617 200.98 45.13C200.577 45.2984 200.211 45.5453 199.904 45.8564C199.597 46.1675 199.356 46.5365 199.193 46.9421C199.03 47.3476 198.95 47.7814 198.956 48.2183C198.956 49.0931 199.304 49.9321 199.923 50.5507C200.541 51.1693 201.38 51.5169 202.255 51.5169C203.13 51.5169 203.969 51.1693 204.587 50.5507C205.206 49.9321 205.553 49.0931 205.553 48.2183C205.56 47.7811 205.48 47.3469 205.317 46.9411C205.154 46.5353 204.911 46.166 204.604 45.8549C204.297 45.5437 203.931 45.2969 203.527 45.1288C203.123 44.9607 202.69 44.8748 202.253 44.8759Z" fill="#011E41"/>
<path d="M188.156 43.1255H186.062V53.2947H188.156V43.1255Z" fill="#011E41"/>
<path d="M173.797 53.4658C171.962 53.4658 170.529 52.6302 169.865 51.1261L169.807 50.9966L171.407 49.9939L171.486 50.1526C171.697 50.5864 172.029 50.9499 172.442 51.1997C172.855 51.4494 173.331 51.5747 173.813 51.5606C175.209 51.5606 175.317 50.7041 175.317 50.4409C175.317 49.668 174.595 49.3588 173.416 48.9118C171.871 48.331 170.492 47.6584 170.492 45.7783C170.492 44.1447 171.841 42.9623 173.705 42.9623C174.334 42.9373 174.959 43.0786 175.516 43.372C176.074 43.6654 176.544 44.1005 176.88 44.6335L176.968 44.7672L175.443 45.8159L175.351 45.6738C175.178 45.4076 174.937 45.1929 174.652 45.0525C174.368 44.912 174.05 44.851 173.734 44.8758C173.049 44.8758 172.556 45.2477 172.556 45.7574C172.556 46.3841 172.948 46.5721 174.089 47.0108L174.687 47.2489C176.358 47.9257 177.415 48.6862 177.415 50.395C177.406 52.2876 176.023 53.4658 173.797 53.4658Z" fill="#011E41"/>
<path d="M158.433 53.4658C156.599 53.4658 155.166 52.6302 154.502 51.1261L154.443 50.9966L156.044 49.9939L156.123 50.1526C156.334 50.5857 156.665 50.9488 157.077 51.1985C157.489 51.4482 157.964 51.5739 158.446 51.5606C159.841 51.5606 159.95 50.7041 159.95 50.4409C159.95 49.668 159.227 49.3588 158.049 48.9118C156.503 48.331 155.124 47.6584 155.124 45.7783C155.124 44.1447 156.474 42.9623 158.337 42.9623C158.967 42.9373 159.592 43.0786 160.149 43.372C160.706 43.6654 161.177 44.1005 161.513 44.6335L161.6 44.7672L160.075 45.8159L159.983 45.6738C159.811 45.4076 159.569 45.1929 159.285 45.0525C159 44.912 158.683 44.851 158.366 44.8758C157.681 44.8758 157.188 45.2477 157.188 45.7574C157.188 46.3841 157.581 46.5721 158.722 47.0108L159.319 47.2489C160.99 47.9257 162.047 48.6862 162.047 50.395C162.039 52.2876 160.656 53.4658 158.433 53.4658Z" fill="#011E41"/>
<path d="M143.122 53.2944C140.991 53.2944 139.867 52.1539 139.867 49.998V43.1294H146.31V45.0513H141.96V47.0567H146.03V48.9786H141.96V50.0607C141.94 50.2331 141.959 50.4079 142.014 50.5725C142.069 50.7372 142.159 50.8878 142.279 51.0137C142.398 51.1396 142.544 51.2377 142.705 51.3012C142.867 51.3646 143.041 51.3919 143.214 51.3809H146.414V53.3028L143.122 53.2944Z" fill="#011E41"/>
<path d="M124.955 53.2947V43.1255H131.239V45.0474H127.044V47.1907H130.871V49.1126H127.044V53.2947H124.955Z" fill="#011E41"/>
<path d="M110.926 53.4909C109.888 53.4704 108.88 53.1438 108.027 52.5521C107.174 51.9605 106.515 51.1302 106.133 50.1654C105.75 49.2006 105.661 48.1443 105.877 47.1291C106.092 46.1138 106.603 45.1849 107.345 44.4589C108.086 43.7328 109.026 43.242 110.045 43.048C111.065 42.8539 112.119 42.9654 113.075 43.3683C114.032 43.7712 114.848 44.4477 115.422 45.3127C115.995 46.1778 116.3 47.193 116.299 48.2308C116.299 48.9314 116.16 49.625 115.889 50.2709C115.618 50.9168 115.22 51.502 114.72 51.992C114.219 52.4821 113.626 52.8672 112.974 53.1246C112.322 53.382 111.626 53.5065 110.926 53.4909ZM110.926 44.8759C110.263 44.8668 109.612 45.0551 109.056 45.4167C108.501 45.7784 108.065 46.2972 107.805 46.9071C107.545 47.517 107.472 48.1904 107.596 48.8418C107.72 49.4931 108.034 50.093 108.5 50.565C108.966 51.0371 109.561 51.36 110.211 51.4927C110.86 51.6255 111.535 51.562 112.148 51.3104C112.761 51.0589 113.286 50.6305 113.656 50.0799C114.025 49.5293 114.222 48.8813 114.222 48.2183C114.229 47.7814 114.148 47.3476 113.986 46.9421C113.823 46.5365 113.581 46.1675 113.274 45.8564C112.968 45.5453 112.602 45.2984 112.199 45.13C111.795 44.9617 111.363 44.8753 110.926 44.8759Z" fill="#011E41"/>
<path d="M95.559 53.2945L93.47 49.7933H91.966V53.2945H89.877V43.1294H93.8669C94.3031 43.1217 94.7364 43.2009 95.1416 43.3624C95.5468 43.524 95.9158 43.7646 96.2269 44.0703C96.5381 44.376 96.7852 44.7407 96.9539 45.143C97.1226 45.5453 97.2094 45.9771 97.2093 46.4133C97.2198 47.0044 97.064 47.5864 96.7596 48.0932C96.4553 48.5999 96.0146 49.011 95.488 49.2794L97.928 53.2945H95.559ZM93.6747 47.8631C93.8686 47.8758 94.063 47.8472 94.2451 47.7793C94.4271 47.7114 94.5927 47.6056 94.7308 47.469C94.869 47.3324 94.9767 47.1681 95.0467 46.9868C95.1167 46.8056 95.1475 46.6115 95.137 46.4175C95.1479 46.238 95.1218 46.0581 95.0602 45.8891C94.9987 45.7201 94.903 45.5655 94.7792 45.4351C94.6554 45.3046 94.506 45.2009 94.3405 45.1306C94.1749 45.0603 93.9967 45.0248 93.8168 45.0262H91.966V47.8631H93.6747Z" fill="#011E41"/>
<path d="M73.9883 53.2945V43.1294H77.9072C78.7987 43.1294 79.6536 43.4835 80.284 44.1139C80.9143 44.7442 81.2684 45.5992 81.2684 46.4906C81.2684 47.382 80.9143 48.237 80.284 48.8673C79.6536 49.4977 78.7987 49.8518 77.9072 49.8518H76.0815V53.2986L73.9883 53.2945ZM77.8237 47.9257C78.192 47.9059 78.5387 47.7456 78.7924 47.4778C79.0461 47.2101 79.1875 46.8553 79.1875 46.4864C79.1875 46.1176 79.0461 45.7627 78.7924 45.495C78.5387 45.2272 78.192 45.0669 77.8237 45.0471H76.0815V47.9257H77.8237Z" fill="#011E41"/>
<path d="M241.371 53.2947L240.381 51.1013H236.62L235.63 53.2947H233.387L237.983 43.1255H239.052L243.648 53.2947H241.371ZM239.441 49.0123L238.501 46.9233L237.556 49.0123H239.441Z" fill="#011E41"/>
<path d="M223.051 53.2947L218.396 46.8982V53.2947H216.282V43.1255H218.317L222.971 49.7142V43.1255H225.081V53.2947H223.051Z" fill="#011E41"/>
</svg>
