<svg width="210" height="66" viewBox="0 0 210 66" fill="none" xmlns="http://www.w3.org/2000/svg">
<path d="M176.593 8.60969e-05C171.514 -0.0115898 166.502 1.16444 161.958 3.43424C157.414 5.70404 153.464 9.00477 150.422 13.0729H191.005C191.984 13.0255 192.944 12.7781 193.824 12.3459L186.026 20.1422C184.124 21.9061 181.657 22.9379 179.066 23.0537H145.376C144.764 25.044 144.345 27.0887 144.126 29.1594H174.864C175.866 29.1276 176.85 28.8753 177.744 28.4204L170.062 36.0993C168.136 37.9682 165.592 39.0659 162.911 39.1845H144.577C145.81 45.2412 148.737 50.8238 153.016 55.2836C157.296 59.7434 162.753 62.8974 168.753 64.3792C174.754 65.861 181.052 65.6098 186.916 63.6546C192.779 61.6995 197.968 58.1208 201.879 53.3342C205.789 48.5476 208.261 42.7497 209.008 36.6139C209.755 30.4782 208.745 24.2566 206.096 18.6718C203.448 13.0871 199.269 8.36854 194.045 5.06428C188.822 1.76002 182.768 0.00569299 176.587 0.0051782" fill="#DB000C"/>
<path d="M8.13858 18.8362V23.1949H17.6937V28.9396H8.13858V39.1792H0V13.095H18.986V18.8362H8.13858ZM26.4299 34.6469L24.6286 39.1792H17.435L27.4669 13.095H34.8716L44.6975 39.1792H37.4664L35.7638 34.6469H26.4299ZM31.1684 21.1535H31.0968L28.296 29.4589H33.9385L31.1684 21.1535ZM71.468 24.615C71.4016 28.4203 71.1274 31.6724 68.8033 34.9261C67.5713 36.6006 65.9442 37.9445 64.0671 38.8381C62.19 39.7316 60.121 40.1471 58.0444 40.0476C56.2026 40.1508 54.3596 39.8664 52.6346 39.2127C50.9096 38.559 49.341 37.5506 48.0301 36.2527C46.7192 34.9548 45.6952 33.3963 45.0244 31.6779C44.3536 29.9595 44.0508 28.1195 44.1356 26.2767C44.1356 17.801 49.8803 12.2283 58.2879 12.2283C60.7593 12.0997 63.211 12.7302 65.3138 14.0352C67.4165 15.3403 69.0697 17.2574 70.0514 19.5292L63.6154 22.2261C63.2418 21.0231 62.4928 19.9714 61.478 19.225C60.4632 18.4786 59.236 18.0768 57.9763 18.0786C53.512 18.0786 51.1947 22.3351 51.1947 26.3125C51.1947 30.3596 53.6158 34.4851 58.0784 34.4851C58.7373 34.5583 59.4043 34.4981 60.0394 34.308C60.6745 34.118 61.2649 33.8019 61.7753 33.3788C62.2856 32.9557 62.7055 32.4341 63.01 31.8452C63.3144 31.2562 63.4972 30.6121 63.5473 29.951H58.0103V24.6218L71.468 24.615ZM102.796 25.6535C102.796 29.4801 101.276 33.15 98.5705 35.8558C95.8647 38.5616 92.1948 40.0816 88.3683 40.0816C84.5417 40.0816 80.8719 38.5616 78.1661 35.8558C75.4603 33.15 73.9402 29.4801 73.9402 25.6535C73.9402 17.7635 80.8631 12.2266 88.3717 12.2266C95.8803 12.2266 102.796 17.7635 102.796 25.6535ZM81.0044 25.6876C80.9495 26.6894 81.0993 27.6919 81.4449 28.6338C81.7905 29.5757 82.3244 30.4373 83.0142 31.1659C83.7039 31.8945 84.535 32.4748 85.4566 32.8714C86.3782 33.268 87.3709 33.4726 88.3742 33.4726C89.3775 33.4726 90.3703 33.268 91.2919 32.8714C92.2135 32.4748 93.0445 31.8945 93.7342 31.1659C94.424 30.4373 94.958 29.5757 95.3035 28.6338C95.6491 27.6919 95.799 26.6894 95.7441 25.6876C95.614 23.8217 94.7811 22.0746 93.4133 20.7988C92.0455 19.523 90.2446 18.8135 88.3742 18.8135C86.5038 18.8135 84.703 19.523 83.3352 20.7988C81.9674 22.0746 81.1344 23.8217 81.0044 25.6876ZM128.046 39.1809H120.012L114.315 29.2274H112.728V39.1809H105.948V13.0966H117.928C123.083 13.0966 126.994 15.5501 126.994 21.1211C127.109 22.8351 126.591 24.5318 125.539 25.8894C124.486 27.247 122.972 28.1712 121.284 28.4867L128.046 39.1809ZM112.723 24.7886H115.367C117.58 24.7886 120.071 24.3732 120.071 21.5383C120.071 18.7034 117.582 18.2863 115.367 18.2863H112.721L112.723 24.7886Z" fill="#161615"/>
<path d="M1.27697 51.5846V55.3763H0V45.6951H3.57554C4.47855 45.6421 5.36825 45.9322 6.06648 46.5073C6.36466 46.7777 6.59985 47.1104 6.75547 47.4816C6.9111 47.8529 6.98336 48.2538 6.96716 48.656C6.99192 49.0611 6.92554 49.4665 6.77291 49.8424C6.62027 50.2184 6.38529 50.5554 6.08521 50.8286C5.36387 51.3806 4.46652 51.6517 3.56021 51.5914L1.27697 51.5846ZM1.27697 50.5391H3.57211C4.1371 50.577 4.69617 50.4048 5.14195 50.0556C5.32942 49.8769 5.47536 49.6593 5.56951 49.418C5.66365 49.1768 5.70369 48.9178 5.68678 48.6594C5.69838 48.4031 5.65587 48.1472 5.562 47.9084C5.46812 47.6696 5.325 47.4533 5.14195 47.2735C4.73052 46.9087 4.19487 46.7155 3.64532 46.7337H1.27697V50.5391Z" fill="#161615"/>
<path d="M15.5556 51.4585H13.2809V55.3745H11.9971V45.6951H15.2031C16.1045 45.6363 16.9973 45.9007 17.7213 46.4408C18.0228 46.7121 18.2588 47.0483 18.4116 47.424C18.5643 47.7998 18.6299 48.2052 18.6033 48.61C18.6154 49.1746 18.4439 49.7278 18.1146 50.1866C17.7697 50.6486 17.2958 50.9981 16.7525 51.1911L19.0289 55.303V55.383H17.6668L15.5556 51.4585ZM13.2809 50.4148H15.244C15.7923 50.4436 16.3318 50.2676 16.7576 49.921C16.9435 49.7566 17.0904 49.5529 17.1876 49.3247C17.2848 49.0964 17.3298 48.8493 17.3195 48.6014C17.336 48.3465 17.2967 48.0911 17.2044 47.8529C17.112 47.6147 16.9689 47.3995 16.7849 47.2223C16.3472 46.875 15.7966 46.7015 15.2389 46.7353H13.2826L13.2809 50.4148Z" fill="#161615"/>
<path d="M31.2482 50.8451C31.2673 51.6978 31.1042 52.5447 30.7698 53.3292C30.4867 53.9923 30.0125 54.5561 29.4076 54.9485C28.7947 55.3279 28.0852 55.5218 27.3645 55.5069C26.6458 55.5257 25.9379 55.3296 25.3313 54.9438C24.7247 54.558 24.247 54 23.9592 53.3412C23.617 52.5838 23.4428 51.7613 23.4484 50.9302V50.2356C23.4316 49.3874 23.5971 48.5455 23.9337 47.7667C24.2115 47.0972 24.6855 46.5275 25.2933 46.1324C25.9011 45.7373 26.6143 45.5354 27.339 45.5533C28.0627 45.5389 28.7752 45.734 29.3906 46.1152C29.9974 46.5099 30.4718 47.0775 30.7527 47.7446C31.0863 48.5294 31.2494 49.3762 31.2312 50.2288L31.2482 50.8451ZM29.978 50.2202C30.0381 49.2874 29.7957 48.3601 29.2868 47.576C29.0641 47.2758 28.7712 47.0348 28.4337 46.8742C28.0961 46.7136 27.7243 46.6383 27.3509 46.6549C26.9822 46.6411 26.6158 46.7179 26.2836 46.8784C25.9515 47.039 25.6638 47.2785 25.4456 47.576C24.9414 48.3295 24.6908 49.2242 24.7305 50.13V50.8417C24.678 51.7693 24.9238 52.6894 25.432 53.4672C25.6584 53.7595 25.9479 53.997 26.2788 54.1621C26.6097 54.3272 26.9735 54.4155 27.3433 54.4206C27.713 54.4256 28.0791 54.3473 28.4144 54.1914C28.7497 54.0354 29.0456 53.8059 29.28 53.5199C29.7803 52.754 30.0247 51.8491 29.978 50.9354V50.2202Z" fill="#161615"/>
<path d="M41.9105 51.099H37.8531V55.376H36.5762V45.6948H42.5762V46.7403H37.8531V50.0604H41.919L41.9105 51.099Z" fill="#161615"/>
<path d="M52.9825 50.8981H48.7838V54.3306H53.6602V55.376H47.5068V45.6948H53.5903V46.7403H48.7804V49.8595H52.9791L52.9825 50.8981Z" fill="#161615"/>
<path d="M61.5089 51.0583C60.6377 50.8537 59.8233 50.4569 59.1252 49.8971C58.8843 49.6847 58.6925 49.4223 58.5631 49.1283C58.4337 48.8343 58.3699 48.5156 58.376 48.1945C58.3705 47.8297 58.4503 47.4688 58.6091 47.1404C58.7678 46.8119 59.0011 46.5251 59.2903 46.3029C59.9714 45.7793 60.8159 45.5139 61.6741 45.5537C62.2891 45.5428 62.8982 45.6751 63.4533 45.9402C63.9486 46.1744 64.3681 46.5431 64.6639 47.0043C64.9469 47.4469 65.0959 47.962 65.0929 48.4873H63.8092C63.8226 48.2296 63.7796 47.972 63.6831 47.7327C63.5866 47.4933 63.4391 47.2778 63.2507 47.1014C62.8082 46.7388 62.2452 46.5564 61.6741 46.5906C61.1496 46.5594 60.63 46.7064 60.1996 47.0078C60.0258 47.1445 59.8871 47.3207 59.795 47.5218C59.7029 47.7228 59.6601 47.9429 59.6701 48.1638C59.6708 48.3593 59.7174 48.5519 59.8061 48.726C59.8949 48.9002 60.0232 49.0511 60.1808 49.1667C60.6957 49.5226 61.2735 49.7774 61.8835 49.9175C62.5429 50.0852 63.1781 50.337 63.7734 50.6667C64.184 50.897 64.5314 51.2251 64.7848 51.6219C65.0114 52.0111 65.1257 52.4554 65.1151 52.9057C65.1256 53.2708 65.0477 53.6331 64.8879 53.9616C64.7281 54.2901 64.4911 54.5751 64.1974 54.7922C63.4812 55.2962 62.6167 55.5456 61.7421 55.5005C61.1012 55.5054 60.4664 55.3749 59.8795 55.1174C59.3472 54.8977 58.8859 54.5353 58.5463 54.0703C58.2338 53.6293 58.0693 53.1005 58.0764 52.56H59.3602C59.3495 52.8263 59.4028 53.0913 59.5157 53.3328C59.6286 53.5742 59.7977 53.7851 60.0089 53.9477C60.5117 54.3102 61.1231 54.4904 61.7421 54.4585C62.2897 54.4941 62.834 54.3494 63.2915 54.0464C63.4658 53.9169 63.606 53.7469 63.7 53.5512C63.7941 53.3554 63.8391 53.1397 63.8313 52.9227C63.8421 52.7128 63.8024 52.5034 63.7156 52.3121C63.6288 52.1207 63.4974 51.9529 63.3324 51.8228C62.7733 51.4645 62.1563 51.2059 61.5089 51.0583Z" fill="#161615"/>
<path d="M72.9985 51.0583C72.1273 50.8538 71.3128 50.4571 70.6148 49.8971C70.3739 49.6846 70.182 49.4223 70.0526 49.1283C69.9233 48.8343 69.8595 48.5156 69.8656 48.1945C69.8603 47.8297 69.9401 47.4688 70.0988 47.1404C70.2576 46.812 70.4908 46.5252 70.7799 46.3028C71.4611 45.7794 72.3055 45.514 73.1636 45.5537C73.7786 45.5428 74.3878 45.6751 74.9429 45.9402C75.4381 46.1745 75.8575 46.5432 76.1534 47.0043C76.4365 47.4469 76.5854 47.9619 76.5825 48.4873H75.2987C75.3122 48.2295 75.2693 47.9719 75.1728 47.7325C75.0764 47.4931 74.9287 47.2777 74.7402 47.1014C74.2978 46.7386 73.7347 46.5562 73.1636 46.5906C72.6397 46.5598 72.1207 46.7067 71.6908 47.0077C71.5169 47.1444 71.3782 47.3205 71.2861 47.5216C71.194 47.7227 71.1512 47.9429 71.1613 48.1638C71.1621 48.3593 71.2087 48.5518 71.2974 48.726C71.3862 48.9002 71.5145 49.0511 71.6721 49.1667C72.1868 49.5229 72.7647 49.7777 73.3748 49.9175C74.0342 50.0852 74.6694 50.337 75.2647 50.6667C75.6752 50.897 76.0226 51.2251 76.276 51.6218C76.502 52.0112 76.6158 52.4556 76.6046 52.9056C76.6153 53.2708 76.5374 53.6331 76.3776 53.9617C76.2178 54.2902 75.9808 54.5751 75.6869 54.7921C74.9707 55.2961 74.1063 55.5455 73.2317 55.5005C72.5908 55.5053 71.956 55.3748 71.369 55.1174C70.837 54.8973 70.3757 54.5351 70.0358 54.0703C69.7239 53.6291 69.56 53.1003 69.5676 52.56H70.8514C70.8409 52.8263 70.8943 53.0913 71.0071 53.3327C71.12 53.5741 71.2891 53.785 71.5001 53.9476C72.003 54.3101 72.6144 54.4904 73.2334 54.4585C73.781 54.4941 74.3253 54.3494 74.7828 54.0464C74.9571 53.9169 75.0973 53.7469 75.1913 53.5511C75.2854 53.3554 75.3304 53.1397 75.3225 52.9227C75.3334 52.7128 75.2937 52.5034 75.2069 52.312C75.1201 52.1207 74.9887 51.9529 74.8237 51.8228C74.264 51.4643 73.6465 51.2057 72.9985 51.0583Z" fill="#161615"/>
<path d="M83.0035 55.376H81.7266V45.6948H83.0035V55.376Z" fill="#161615"/>
<path d="M96.1954 50.8451C96.2145 51.6978 96.0514 52.5447 95.717 53.3292C95.4339 53.9923 94.9597 54.5561 94.3549 54.9485C93.742 55.3279 93.0324 55.5218 92.3117 55.5069C91.5931 55.5257 90.8851 55.3296 90.2785 54.9438C89.6719 54.558 89.1942 54 88.9065 53.3412C88.5638 52.584 88.3895 51.7614 88.3957 50.9302V50.2356C88.3788 49.3874 88.5443 48.5455 88.881 47.7667C89.1588 47.0972 89.6328 46.5275 90.2406 46.1324C90.8484 45.7373 91.5615 45.5354 92.2862 45.5533C93.01 45.539 93.7224 45.7341 94.3379 46.1152C94.9446 46.5099 95.419 47.0775 95.7 47.7446C96.0336 48.5294 96.1967 49.3762 96.1784 50.2288L96.1954 50.8451ZM94.9253 50.2202C94.9856 49.2874 94.7432 48.36 94.234 47.576C94.0115 47.2757 93.7185 47.0346 93.381 46.874C93.0434 46.7133 92.6716 46.6381 92.2981 46.6549C91.9295 46.6411 91.563 46.7179 91.2309 46.8784C90.8988 47.039 90.611 47.2785 90.3929 47.576C89.8886 48.3295 89.6381 49.2242 89.6778 50.13V50.8417C89.625 51.7693 89.8708 52.6895 90.3792 53.4672C90.6057 53.7595 90.8951 53.997 91.226 54.1621C91.5569 54.3272 91.9208 54.4155 92.2905 54.4206C92.6603 54.4256 93.0264 54.3473 93.3617 54.1914C93.697 54.0354 93.9928 53.8059 94.2272 53.5199C94.7274 52.7539 94.9718 51.8491 94.9253 50.9354V50.2202Z" fill="#161615"/>
<path d="M108.963 55.376H107.68L102.803 47.9117V55.376H101.52V45.6948H102.803L107.693 53.1864V45.6948H108.963V55.376Z" fill="#161615"/>
<path d="M119.988 52.8459H115.929L115.018 55.3811H113.7L117.398 45.6948H118.517L122.222 55.3811H120.911L119.988 52.8459ZM116.315 51.8022H119.608L117.958 47.2715L116.315 51.8022Z" fill="#161615"/>
<path d="M128.214 54.3323H132.812V55.3777H126.938V45.6948H128.221L128.214 54.3323Z" fill="#161615"/>
</svg>
