<svg width="448" height="54" viewBox="0 0 448 54" fill="none" xmlns="http://www.w3.org/2000/svg">
<path d="M21.8145 15.9806C21.9299 13.3864 22.9091 11.7615 25.4464 8.7168C26.1727 14.1646 34.5261 23.6076 32.347 27.9659L21.8145 15.9806Z" fill="#FE9901"/>
<circle cx="17.0936" cy="31.5975" r="16.3436" fill="#FFB324"/>
<path d="M3.29071 13.8008C8.22151 16.8384 10.1478 18.8714 10.9177 21.791L15.6401 43.5824C14.1874 46.1247 11.3679 47.1078 8.37634 45.3983C5.83401 43.9456 1.4228 39.5873 1.11157 33.0499C0.748465 25.4229 4.38125 21.4278 3.29071 13.8008Z" fill="#F9D20F"/>
<path d="M15.6399 0C7.28712 6.53742 6.92414 13.0748 10.5553 21.7914L33.4366 30.8712C34.1634 18.5227 15.2775 14.5276 15.6399 0Z" fill="#FFB324"/>
<circle cx="17.0927" cy="31.5966" r="11.9853" fill="black"/>
<path d="M23.8459 28.6735C24.1446 28.3748 24.6576 28.5137 24.7593 28.9236C25.2946 31.076 24.7212 33.4481 23.0382 35.131C21.2268 36.9424 18.6232 37.4431 16.3479 36.6845L12.8488 40.1836L8.74023 36.075L12.2474 32.5678C11.4984 30.2933 11.9937 27.6847 13.7933 25.8851C15.4744 24.2044 17.8428 23.6301 19.9938 24.1631C20.4065 24.2657 20.5513 24.7778 20.2508 25.0784L16.8749 28.4542L17.3884 31.5359L20.47 32.0493L23.8459 28.6735Z" fill="white"/>
<path d="M42.343 12.8202L42.2572 13.8497L42.6861 13.2491L50.8073 4.64183H54.7536L46.1748 13.6495L55.1539 25.4023H51.2935L43.9444 15.5654L42.343 17.1382V25.4023H39.2547V4.64183H42.343V12.8202ZM56.5942 15.0507C56.5942 13.6209 56.8611 12.2674 57.3949 10.9901C57.9477 9.71281 58.7103 8.57851 59.6825 7.58719C60.6548 6.59587 61.7795 5.82379 63.0568 5.27093C64.3341 4.69902 65.7067 4.41306 67.1746 4.41306C68.6235 4.41306 69.9865 4.69902 71.2638 5.27093C72.5411 5.82379 73.6754 6.59587 74.6667 7.58719C75.658 8.57851 76.4301 9.71281 76.983 10.9901C77.5358 12.2674 77.8122 13.6209 77.8122 15.0507C77.8122 16.5186 77.5358 17.8912 76.983 19.1685C76.4301 20.4457 75.658 21.5705 74.6667 22.5428C73.6944 23.515 72.5601 24.2776 71.2638 24.8304C69.9865 25.3642 68.6235 25.6311 67.1746 25.6311C65.7067 25.6311 64.3341 25.3642 63.0568 24.8304C61.7795 24.2966 60.6548 23.5532 59.6825 22.6C58.7103 21.6277 57.9477 20.5029 57.3949 19.2257C56.8611 17.9293 56.5942 16.5377 56.5942 15.0507ZM59.7397 15.0507C59.7397 16.1183 59.9304 17.1191 60.3116 18.0532C60.712 18.9683 61.2553 19.7785 61.9416 20.4839C62.6279 21.1702 63.419 21.7135 64.315 22.1138C65.2301 22.4951 66.2119 22.6857 67.2604 22.6857C68.2898 22.6857 69.2526 22.4951 70.1486 22.1138C71.0446 21.7135 71.8262 21.1702 72.4934 20.4839C73.1797 19.7785 73.7135 18.9683 74.0948 18.0532C74.4761 17.1191 74.6667 16.1183 74.6667 15.0507C74.6667 13.9831 74.4665 12.9918 74.0662 12.0767C73.6849 11.1426 73.1511 10.3228 72.4648 9.61749C71.7976 8.91213 71.0064 8.35928 70.0914 7.95894C69.1954 7.55859 68.2327 7.35842 67.2032 7.35842C66.1356 7.35842 65.1538 7.55859 64.2578 7.95894C63.3618 8.35928 62.5707 8.91213 61.8844 9.61749C61.1981 10.3228 60.6643 11.1426 60.283 12.0767C59.9208 13.0109 59.7397 14.0022 59.7397 15.0507ZM93.1809 8.61664C92.4565 8.23536 91.6748 7.91127 90.836 7.64438C89.9972 7.37749 89.187 7.24404 88.4054 7.24404C87.3378 7.24404 86.4895 7.49187 85.8604 7.98753C85.2313 8.46413 84.9167 9.12183 84.9167 9.96064C84.9167 10.5516 85.1264 11.0663 85.5458 11.5048C85.9652 11.9433 86.5085 12.3246 87.1758 12.6486C87.843 12.9727 88.5484 13.2777 89.2919 13.5637C89.921 13.7925 90.5405 14.0689 91.1506 14.393C91.7797 14.698 92.3421 15.0793 92.8377 15.5368C93.3525 15.9943 93.7528 16.5663 94.0388 17.2526C94.3438 17.9198 94.4963 18.7395 94.4963 19.7118C94.4963 20.8175 94.2199 21.8183 93.667 22.7143C93.1332 23.6103 92.3516 24.3252 91.3222 24.859C90.3118 25.3737 89.0822 25.6311 87.6333 25.6311C86.7564 25.6311 85.8985 25.5358 85.0597 25.3452C84.2399 25.1355 83.4583 24.8686 82.7148 24.5445C81.9904 24.2013 81.3327 23.8296 80.7417 23.4292L82.1143 21.0558C82.5719 21.3799 83.0961 21.6944 83.6871 21.9994C84.2781 22.2854 84.8881 22.5142 85.5172 22.6857C86.1654 22.8573 86.7754 22.9431 87.3473 22.9431C87.9765 22.9431 88.596 22.8383 89.2061 22.6286C89.8161 22.3998 90.3213 22.0566 90.7216 21.5991C91.122 21.1225 91.3222 20.5029 91.3222 19.7404C91.3222 19.0922 91.141 18.5489 90.7788 18.1104C90.4357 17.6529 89.9686 17.2621 89.3776 16.938C88.8057 16.6139 88.1862 16.328 87.5189 16.0801C86.8707 15.8323 86.213 15.5559 85.5458 15.2509C84.8786 14.9458 84.259 14.5836 83.6871 14.1642C83.1152 13.7257 82.6481 13.192 82.2859 12.5629C81.9427 11.9147 81.7712 11.1235 81.7712 10.1894C81.7712 9.0837 82.0285 8.12098 82.5433 7.30123C83.077 6.46242 83.811 5.80472 84.7451 5.32813C85.6793 4.85153 86.7564 4.58464 87.9765 4.52745C89.3681 4.52745 90.5787 4.69902 91.6081 5.04217C92.6376 5.38532 93.5526 5.79519 94.3533 6.27179L93.1809 8.61664ZM97.388 4.64183H111.228V7.58719H105.767V25.4023H102.707V7.58719H97.388V4.64183ZM115.547 4.64183H129.187V7.58719H118.607V13.5065H128.015V16.4519H118.607V22.457H129.588V25.4023H115.547V4.64183ZM139.976 4.64183C141.062 4.64183 142.063 4.79434 142.978 5.09936C143.912 5.38532 144.704 5.80472 145.352 6.35757C146.019 6.91042 146.534 7.59672 146.896 8.41647C147.277 9.21715 147.468 10.1513 147.468 11.2189C147.468 12.0386 147.344 12.8488 147.096 13.6495C146.848 14.4502 146.448 15.1746 145.895 15.8228C145.342 16.4709 144.618 16.9952 143.722 17.3955C142.826 17.7768 141.711 17.9674 140.376 17.9674H137.345V25.4023H134.285V4.64183H139.976ZM140.319 15.0507C141.101 15.0507 141.749 14.9268 142.263 14.6789C142.797 14.4311 143.207 14.1261 143.493 13.7639C143.798 13.3826 144.008 12.9823 144.122 12.5629C144.256 12.1244 144.322 11.705 144.322 11.3046C144.322 10.9234 144.256 10.523 144.122 10.1036C144.008 9.68421 143.798 9.28387 143.493 8.90259C143.207 8.52132 142.816 8.20677 142.321 7.95894C141.825 7.71111 141.215 7.58719 140.491 7.58719H137.345V15.0507H140.319ZM143.836 16.8236L149.212 25.4023H145.666L140.205 16.9094L143.836 16.8236ZM37.4531 26.7562H40.999L46.375 42.0263L45.8603 41.8262L49.9209 31.3887L51.3221 35.5351L45.7173 48.3746L37.4531 26.7562ZM47.5188 26.7562H50.55L56.4407 41.769L55.8402 41.6546L60.873 26.7562H64.133L56.0118 48.3174L47.5188 26.7562ZM65.3349 37.0507C65.3349 35.6209 65.6018 34.2674 66.1356 32.9901C66.6884 31.7128 67.451 30.5785 68.4232 29.5872C69.3955 28.5959 70.5202 27.8238 71.7975 27.2709C73.0748 26.699 74.4474 26.4131 75.9153 26.4131C77.3642 26.4131 78.7272 26.699 80.0045 27.2709C81.2818 27.8238 82.4161 28.5959 83.4074 29.5872C84.3987 30.5785 85.1708 31.7128 85.7236 32.9901C86.2765 34.2674 86.5529 35.6209 86.5529 37.0507C86.5529 38.5186 86.2765 39.8912 85.7236 41.1685C85.1708 42.4457 84.3987 43.5705 83.4074 44.5428C82.4351 45.515 81.3008 46.2776 80.0045 46.8304C78.7272 47.3642 77.3642 47.6311 75.9153 47.6311C74.4474 47.6311 73.0748 47.3642 71.7975 46.8304C70.5202 46.2966 69.3955 45.5532 68.4232 44.6C67.451 43.6277 66.6884 42.5029 66.1356 41.2257C65.6018 39.9293 65.3349 38.5377 65.3349 37.0507ZM68.4804 37.0507C68.4804 38.1183 68.671 39.1191 69.0523 40.0532C69.4527 40.9683 69.996 41.7785 70.6823 42.4839C71.3686 43.1702 72.1597 43.7135 73.0557 44.1138C73.9708 44.4951 74.9526 44.6857 76.0011 44.6857C77.0305 44.6857 77.9933 44.4951 78.8893 44.1138C79.7853 43.7135 80.5669 43.1702 81.2341 42.4839C81.9204 41.7785 82.4542 40.9683 82.8355 40.0532C83.2168 39.1191 83.4074 38.1183 83.4074 37.0507C83.4074 35.9831 83.2072 34.9918 82.8069 34.0767C82.4256 33.1426 81.8918 32.3228 81.2055 31.6175C80.5383 30.9121 79.7471 30.3593 78.8321 29.9589C77.9361 29.5586 76.9733 29.3584 75.9439 29.3584C74.8763 29.3584 73.8945 29.5586 72.9985 29.9589C72.1025 30.3593 71.3114 30.9121 70.6251 31.6175C69.9388 32.3228 69.405 33.1426 69.0237 34.0767C68.6615 35.0109 68.4804 36.0022 68.4804 37.0507ZM96.8029 26.6418C97.8896 26.6418 98.8904 26.7943 99.8055 27.0994C100.74 27.3853 101.531 27.8047 102.179 28.3576C102.846 28.9104 103.361 29.5967 103.723 30.4165C104.104 31.2171 104.295 32.1513 104.295 33.2189C104.295 34.0386 104.171 34.8488 103.923 35.6495C103.675 36.4502 103.275 37.1746 102.722 37.8228C102.169 38.4709 101.445 38.9952 100.549 39.3955C99.653 39.7768 98.5377 39.9674 97.2033 39.9674H94.1721V47.4023H91.1124V26.6418H96.8029ZM97.1461 37.0507C97.9277 37.0507 98.5759 36.9268 99.0906 36.6789C99.6244 36.4311 100.034 36.1261 100.32 35.7639C100.625 35.3826 100.835 34.9823 100.949 34.5629C101.083 34.1244 101.149 33.705 101.149 33.3046C101.149 32.9234 101.083 32.523 100.949 32.1036C100.835 31.6842 100.625 31.2839 100.32 30.9026C100.034 30.5213 99.6434 30.2068 99.1478 29.9589C98.6521 29.7111 98.0421 29.5872 97.3177 29.5872H94.1721V37.0507H97.1461ZM100.663 38.8236L106.039 47.4023H102.493L97.0317 38.9094L100.663 38.8236ZM113.218 34.8202L113.132 35.8497L113.561 35.2491L121.682 26.6418H125.629L117.05 35.6495L126.029 47.4023H122.168L114.819 37.5654L113.218 39.1382V47.4023H110.13V26.6418H113.218V34.8202ZM140.487 30.6166C139.762 30.2354 138.981 29.9113 138.142 29.6444C137.303 29.3775 136.493 29.244 135.711 29.244C134.644 29.244 133.795 29.4919 133.166 29.9875C132.537 30.4641 132.223 31.1218 132.223 31.9606C132.223 32.5516 132.432 33.0663 132.852 33.5048C133.271 33.9433 133.814 34.3246 134.482 34.6486C135.149 34.9727 135.854 35.2777 136.598 35.5637C137.227 35.7925 137.846 36.0689 138.456 36.393C139.086 36.698 139.648 37.0793 140.144 37.5368C140.658 37.9943 141.059 38.5663 141.345 39.2526C141.65 39.9198 141.802 40.7395 141.802 41.7118C141.802 42.8175 141.526 43.8183 140.973 44.7143C140.439 45.6103 139.657 46.3252 138.628 46.859C137.618 47.3737 136.388 47.6311 134.939 47.6311C134.062 47.6311 133.204 47.5358 132.366 47.3452C131.546 47.1355 130.764 46.8686 130.021 46.5445C129.296 46.2013 128.639 45.8296 128.048 45.4292L129.42 43.0558C129.878 43.3799 130.402 43.6944 130.993 43.9994C131.584 44.2854 132.194 44.5142 132.823 44.6857C133.471 44.8573 134.081 44.9431 134.653 44.9431C135.282 44.9431 135.902 44.8383 136.512 44.6286C137.122 44.3998 137.627 44.0566 138.028 43.5991C138.428 43.1225 138.628 42.5029 138.628 41.7404C138.628 41.0922 138.447 40.5489 138.085 40.1104C137.742 39.6529 137.274 39.2621 136.684 38.938C136.112 38.6139 135.492 38.328 134.825 38.0801C134.177 37.8323 133.519 37.5559 132.852 37.2509C132.184 36.9458 131.565 36.5836 130.993 36.1642C130.421 35.7257 129.954 35.192 129.592 34.5629C129.249 33.9147 129.077 33.1235 129.077 32.1894C129.077 31.0837 129.334 30.121 129.849 29.3012C130.383 28.4624 131.117 27.8047 132.051 27.3281C132.985 26.8515 134.062 26.5846 135.282 26.5274C136.674 26.5274 137.885 26.699 138.914 27.0422C139.943 27.3853 140.858 27.7952 141.659 28.2718L140.487 30.6166Z" fill="white"/>
<path d="M170.225 27.1016H166.78V8.51029H175.101C178.897 8.51029 180.795 10.2567 180.795 13.7496C180.795 17.5372 178.199 19.8297 173.008 20.6271L172.514 17.5589C175.634 17.0042 177.194 15.7691 177.194 13.8537C177.194 12.3109 176.423 11.5395 174.88 11.5395H170.225V27.1016ZM188.323 13.4506C192.466 13.4506 194.537 15.5654 194.537 19.7951C194.537 20.3671 194.498 20.9305 194.42 21.4852H185.358C185.358 23.4093 186.771 24.3714 189.597 24.3714C190.975 24.3714 192.353 24.2414 193.731 23.9813V26.7115C192.518 26.9716 191.053 27.1016 189.337 27.1016C184.388 27.1016 181.913 24.7744 181.913 20.1201C181.913 15.6738 184.05 13.4506 188.323 13.4506ZM185.358 19.093H191.183V18.989C191.183 17.0995 190.229 16.1548 188.323 16.1548C186.503 16.1548 185.514 17.1342 185.358 19.093ZM200.323 27.1016H197.137V13.4506H200.843L205.458 22.7723L209.813 13.4506H213.518V27.1016H210.333V18.781L206.329 27.1016H204.431L200.323 18.781V27.1016ZM215.924 20.2761C215.924 15.5524 218.307 13.1906 223.074 13.1906C227.841 13.1906 230.225 15.5524 230.225 20.2761C230.225 24.9998 227.841 27.3616 223.074 27.3616C218.324 27.3616 215.941 24.9998 215.924 20.2761ZM219.369 20.2241C219.369 23.1623 220.604 24.6314 223.074 24.6314C225.544 24.6314 226.779 23.1623 226.779 20.2241C226.779 17.3552 225.544 15.9208 223.074 15.9208C220.604 15.9208 219.369 17.3552 219.369 20.2241ZM236.075 27.1016H232.63V13.4506H236.075V18.781H242.25V13.4506H245.696V27.1016H242.25V21.5112H236.075V27.1016ZM247.334 13.4506H259.36V16.1808H255.069V27.1016H251.624V16.1808H247.334V13.4506ZM270.293 16.4148V23.5393C271.247 24.0074 272.3 24.2414 273.453 24.2414C275.593 24.2414 276.664 22.7983 276.664 19.9121C276.664 17.4592 275.442 16.2328 272.997 16.2328C271.871 16.2328 270.969 16.2935 270.293 16.4148ZM266.848 32.0419V14.0097C268.634 13.637 270.636 13.4506 272.854 13.4506C277.665 13.4506 280.07 15.6131 280.07 19.9381C280.07 24.7137 277.868 27.1016 273.466 27.1016C272.391 27.1016 271.333 26.8849 270.293 26.4515V32.0419H266.848ZM288.04 13.4506C292.182 13.4506 294.254 15.5654 294.254 19.7951C294.254 20.3671 294.215 20.9305 294.137 21.4852H285.075C285.075 23.4093 286.488 24.3714 289.314 24.3714C290.692 24.3714 292.07 24.2414 293.448 23.9813V26.7115C292.234 26.9716 290.77 27.1016 289.054 27.1016C284.105 27.1016 281.63 24.7744 281.63 20.1201C281.63 15.6738 283.767 13.4506 288.04 13.4506ZM285.075 19.093H290.9V18.989C290.9 17.0995 289.946 16.1548 288.04 16.1548C286.219 16.1548 285.231 17.1342 285.075 19.093ZM306.93 23.9813V26.7115C305.803 26.9716 304.633 27.1016 303.42 27.1016C298.566 27.1016 296.139 24.7397 296.139 20.0161C296.139 15.6391 298.566 13.4506 303.42 13.4506C304.633 13.4506 305.803 13.5806 306.93 13.8407V16.5708C305.794 16.3108 304.711 16.1808 303.68 16.1808C300.949 16.1808 299.584 17.4592 299.584 20.0161C299.584 22.9196 300.949 24.3714 303.68 24.3714C304.72 24.3714 305.803 24.2414 306.93 23.9813ZM307.58 13.4506H319.606V16.1808H315.315V27.1016H311.87V16.1808H307.58V13.4506ZM320.399 20.2761C320.399 15.5524 322.782 13.1906 327.549 13.1906C332.316 13.1906 334.7 15.5524 334.7 20.2761C334.7 24.9998 332.316 27.3616 327.549 27.3616C322.8 27.3616 320.416 24.9998 320.399 20.2761ZM323.844 20.2241C323.844 23.1623 325.079 24.6314 327.549 24.6314C330.019 24.6314 331.254 23.1623 331.254 20.2241C331.254 17.3552 330.019 15.9208 327.549 15.9208C325.079 15.9208 323.844 17.3552 323.844 20.2241ZM340.55 16.4148V23.5393C341.504 24.0074 342.557 24.2414 343.709 24.2414C345.85 24.2414 346.921 22.7983 346.921 19.9121C346.921 17.4592 345.698 16.2328 343.254 16.2328C342.128 16.2328 341.226 16.2935 340.55 16.4148ZM337.105 32.0419V14.0097C338.89 13.637 340.892 13.4506 343.111 13.4506C347.922 13.4506 350.327 15.6131 350.327 19.9381C350.327 24.7137 348.125 27.1016 343.722 27.1016C342.648 27.1016 341.59 26.8849 340.55 26.4515V32.0419H337.105ZM352.082 22.8503C352.082 20.1374 354.058 18.781 358.01 18.781C358.92 18.781 359.848 18.8677 360.793 19.041V18.0139C360.793 16.7919 359.913 16.1808 358.153 16.1808C356.68 16.1808 355.024 16.3975 353.187 16.8309V14.1007C355.024 13.6673 356.68 13.4506 358.153 13.4506C362.21 13.4506 364.238 14.9501 364.238 17.9489V27.1016H362.236L361.014 25.8795C359.835 26.6942 358.526 27.1016 357.087 27.1016C353.75 27.1016 352.082 25.6845 352.082 22.8503ZM360.793 23.5653V21.3812C359.9 21.2078 358.972 21.1212 358.01 21.1212C356.355 21.1212 355.527 21.6845 355.527 22.8113C355.527 24.0247 356.221 24.6314 357.607 24.6314C358.76 24.6314 359.822 24.276 360.793 23.5653ZM370.946 27.1016H367.501V13.4506H370.946V18.781H377.122V13.4506H380.567V27.1016H377.122V21.5112H370.946V27.1016ZM387.275 27.1016H383.83V13.4506H387.275V18.781H393.451V13.4506H396.896V27.1016H393.451V21.5112H387.275V27.1016ZM399.314 20.2761C399.314 15.5524 401.698 13.1906 406.465 13.1906C411.232 13.1906 413.615 15.5524 413.615 20.2761C413.615 24.9998 411.232 27.3616 406.465 27.3616C401.715 27.3616 399.331 24.9998 399.314 20.2761ZM402.759 20.2241C402.759 23.1623 403.994 24.6314 406.465 24.6314C408.935 24.6314 410.17 23.1623 410.17 20.2241C410.17 17.3552 408.935 15.9208 406.465 15.9208C403.994 15.9208 402.759 17.3552 402.759 20.2241ZM419.466 27.1016H416.02V13.4506H425.095V16.1808H419.466V27.1016ZM425.888 20.2761C425.888 15.5524 428.271 13.1906 433.038 13.1906C437.805 13.1906 440.189 15.5524 440.189 20.2761C440.189 24.9998 437.805 27.3616 433.038 27.3616C428.289 27.3616 425.905 24.9998 425.888 20.2761ZM429.333 20.2241C429.333 23.1623 430.568 24.6314 433.038 24.6314C435.509 24.6314 436.744 23.1623 436.744 20.2241C436.744 17.3552 435.509 15.9208 433.038 15.9208C430.568 15.9208 429.333 17.3552 429.333 20.2241ZM165.61 41.2761C165.61 36.5524 167.994 34.1906 172.761 34.1906C177.528 34.1906 179.911 36.5524 179.911 41.2761C179.911 45.9998 177.528 48.3616 172.761 48.3616C168.011 48.3616 165.627 45.9998 165.61 41.2761ZM169.055 41.2241C169.055 44.1623 170.29 45.6314 172.761 45.6314C175.231 45.6314 176.466 44.1623 176.466 41.2241C176.466 38.3552 175.231 36.9208 172.761 36.9208C170.29 36.9208 169.055 38.3552 169.055 41.2241ZM196.24 41.0551V41.3411C196.24 45.9347 193.822 48.2316 188.986 48.2316C184.106 48.2316 181.666 45.9347 181.666 41.3411V37.1158C181.666 32.0455 184.37 29.5103 189.779 29.5103C192.318 29.5103 194.325 29.0379 195.798 28.0932V30.9924C194.472 31.8244 192.453 32.2405 189.74 32.2405C186.698 32.2405 185.176 33.6619 185.176 36.5048C186.234 35.1353 187.729 34.4506 189.662 34.4506C194.047 34.4506 196.24 36.6521 196.24 41.0551ZM188.986 45.5014C191.517 45.5014 192.782 44.1146 192.782 41.3411C192.782 38.6196 191.56 37.2588 189.116 37.2588C186.49 37.2588 185.176 38.6196 185.176 41.3411C185.176 44.1146 186.446 45.5014 188.986 45.5014ZM198.008 41.2761C198.008 36.5524 200.392 34.1906 205.159 34.1906C209.926 34.1906 212.309 36.5524 212.309 41.2761C212.309 45.9998 209.926 48.3616 205.159 48.3616C200.409 48.3616 198.026 45.9998 198.008 41.2761ZM201.454 41.2241C201.454 44.1623 202.689 45.6314 205.159 45.6314C207.629 45.6314 208.864 44.1623 208.864 41.2241C208.864 38.3552 207.629 36.9208 205.159 36.9208C202.689 36.9208 201.454 38.3552 201.454 41.2241ZM218.16 37.4148V44.5393C219.113 45.0074 220.166 45.2414 221.319 45.2414C223.46 45.2414 224.53 43.7983 224.53 40.9121C224.53 38.4592 223.308 37.2328 220.864 37.2328C219.737 37.2328 218.836 37.2935 218.16 37.4148ZM214.714 53.0419V35.0097C216.5 34.637 218.502 34.4506 220.721 34.4506C225.531 34.4506 227.936 36.6131 227.936 40.9381C227.936 45.7137 225.735 48.1016 221.332 48.1016C220.257 48.1016 219.2 47.8849 218.16 47.4515V53.0419H214.714ZM233.943 48.1796L228.716 34.4506H232.37L235.815 44.2793L239.182 34.4506H242.77L237.102 48.5046C236.105 50.9748 234.498 52.7385 232.279 53.796L230.615 51.4428C232.14 50.7754 233.249 49.6877 233.943 48.1796ZM248.426 45.3714H254.263V37.1808H250.493C250.493 40.9944 249.804 43.7246 248.426 45.3714ZM244.916 53.0419H241.483V45.3714H243.875C245.99 45.3714 247.048 42.6412 247.048 37.1808V34.4506H257.708V45.3714H260.114V53.0419H256.668V48.1016H244.916V53.0419ZM261.349 41.2761C261.349 36.5524 263.732 34.1906 268.499 34.1906C273.266 34.1906 275.65 36.5524 275.65 41.2761C275.65 45.9998 273.266 48.3616 268.499 48.3616C263.75 48.3616 261.366 45.9998 261.349 41.2761ZM264.794 41.2241C264.794 44.1623 266.029 45.6314 268.499 45.6314C270.969 45.6314 272.204 44.1623 272.204 41.2241C272.204 38.3552 270.969 36.9208 268.499 36.9208C266.029 36.9208 264.794 38.3552 264.794 41.2241ZM285.582 48.1016H278.055V34.4506H285.855C288.872 34.4506 290.38 35.5904 290.38 37.8699C290.38 39.2826 289.53 40.3314 287.832 41.0161C289.686 41.4668 290.614 42.5849 290.614 44.3703C290.614 46.8578 288.937 48.1016 285.582 48.1016ZM281.5 45.3714H285.049C286.401 45.3714 287.077 44.8817 287.077 43.9023C287.077 42.9749 286.458 42.5112 285.218 42.5112H283.788V40.158C285.868 39.8547 286.908 39.209 286.908 38.2209C286.908 37.5275 286.527 37.1808 285.764 37.1808H281.5V45.3714ZM292.252 43.8503C292.252 41.1374 294.228 39.781 298.18 39.781C299.09 39.781 300.018 39.8677 300.962 40.041V39.0139C300.962 37.7919 300.083 37.1808 298.323 37.1808C296.85 37.1808 295.194 37.3975 293.357 37.8309V35.1007C295.194 34.6673 296.85 34.4506 298.323 34.4506C302.38 34.4506 304.408 35.9501 304.408 38.9489V48.1016H302.406L301.183 46.8795C300.005 47.6942 298.696 48.1016 297.257 48.1016C293.92 48.1016 292.252 46.6845 292.252 43.8503ZM300.962 44.5653V42.3812C300.07 42.2078 299.142 42.1212 298.18 42.1212C296.525 42.1212 295.697 42.6845 295.697 43.8113C295.697 45.0247 296.39 45.6314 297.777 45.6314C298.93 45.6314 299.992 45.276 300.962 44.5653ZM311.116 48.1016H307.671V34.4506H311.116V39.781H317.292V34.4506H320.737V48.1016H317.292V42.5112H311.116V48.1016ZM337.066 48.1016H333.751V38.9229L327.445 48.1016H324V34.4506H327.315V44.0973L333.621 34.4506H337.066V48.1016ZM351.64 48.1016H348.195V37.2198H344.905C344.186 37.2198 343.826 37.6012 343.826 38.3639C343.826 39.4906 344.78 40.249 346.687 40.6391V42.4722L343.007 48.1016H339.029L343.202 42.2642C341.218 41.2501 340.225 39.9153 340.225 38.2599C340.225 35.7204 341.69 34.4506 344.619 34.4506H351.64V48.1016Z" fill="white"/>
</svg>
