<svg width="225" height="81" viewBox="0 0 225 81" fill="none" xmlns="http://www.w3.org/2000/svg">
<g id="Group 187">
<path id="Vector" fill-rule="evenodd" clip-rule="evenodd" d="M40.4145 44.6206L44.2434 80.1309L54.8532 80.1045L71.8529 44.5828L35.9287 1.90987L0 44.5828L16.9997 80.1045L27.6094 80.1309L31.4384 44.6206H40.4203H40.4145ZM35.923 10.5834L40.4031 44.6573H66.9521L35.9219 6.62264L4.89161 44.6573H31.4407L35.9207 10.5834H35.923ZM87.8552 74.5217C87.0654 74.5159 86.5082 74.1823 86.1792 73.5197C85.8502 72.8571 85.6863 72.1143 85.6863 71.282C85.6863 70.444 85.8502 69.6965 86.1792 69.0339C86.5082 68.3713 87.07 68.0423 87.8552 68.0423H87.9137C88.7036 68.0423 89.2653 68.3713 89.5943 69.0339C89.9233 69.6965 90.0872 70.444 90.0872 71.282C90.0872 72.12 89.9233 72.8674 89.5943 73.5243C89.2653 74.1812 88.7036 74.5102 87.9137 74.5102L87.8552 74.5217ZM87.8816 73.3283L88.5396 72.9832L88.8423 72.2621L88.9168 71.6786L88.9271 71.2763C88.9271 70.6618 88.8629 70.2101 88.7311 69.9247L88.3069 69.3526L88.0788 69.2517L87.877 69.2254L87.6753 69.2517L87.4414 69.3572L87.0172 69.9293C86.89 70.2159 86.8258 70.6606 86.8258 71.2705L86.8361 71.642L86.8842 72.0661L87.1754 72.9202C87.3245 73.1804 87.5572 73.3122 87.8759 73.3225L87.8816 73.3283ZM92.983 68.212L94.6005 74.3463H93.4714L93.1951 73.1953H91.6945L91.4239 74.3463H90.2947L91.9065 68.212H92.9887H92.983ZM92.9727 72.1567L92.4476 69.9407L91.9123 72.1567H92.9727ZM96.9758 74.5217C96.186 74.5159 95.6288 74.1823 95.2998 73.5197C94.9708 72.8571 94.8069 72.1143 94.8069 71.282C94.8069 70.444 94.9708 69.6965 95.2998 69.0339C95.6288 68.3713 96.1906 68.0423 96.9758 68.0423H97.0343C97.8242 68.0423 98.3859 68.3713 98.7149 69.0339C99.0439 69.6965 99.2078 70.444 99.2078 71.282C99.2078 72.12 99.0439 72.8674 98.7149 73.5243C98.3859 74.1812 97.8242 74.5102 97.0343 74.5102L96.9758 74.5217ZM97.0022 73.3283L97.6602 72.9832L97.9629 72.2621L98.0374 71.6786L98.0477 71.2763C98.0477 70.6618 97.9835 70.2101 97.8517 69.9247L97.4275 69.3526L97.1994 69.2517L96.9976 69.2254L96.7959 69.2517L96.562 69.3572L96.1378 69.9293C96.0106 70.2159 95.9464 70.6606 95.9464 71.2705L95.9567 71.642L96.0049 72.0661L96.296 72.9202C96.4451 73.1804 96.6778 73.3122 96.9965 73.3225L97.0022 73.3283ZM102.813 72.2358L103.005 72.9993L103.397 73.3122L103.615 73.3753L103.8 73.3856L104.453 73.1254L104.644 72.5682V72.5155L104.517 72.0226L104.24 71.8208L104.055 71.7784L103.906 71.7681H103.296V70.6446H103.799L103.932 70.6389L104.081 70.6125L104.378 70.4268L104.511 69.9602L104.378 69.4936L104.087 69.2655L103.864 69.1967L103.705 69.1864L103.584 69.1967L103.456 69.2288L103.117 69.4994L102.947 70.2044H101.897C101.924 69.4352 102.099 68.8895 102.417 68.5605C102.735 68.2315 103.19 68.0618 103.784 68.0618H103.843C104.394 68.0618 104.798 68.1673 105.046 68.3851L105.55 69.0844L105.629 69.4443L105.651 69.7619L105.449 70.6308L105.003 71.039L104.924 71.0756L104.845 71.102V71.118C105.168 71.2086 105.406 71.3783 105.555 71.6374L105.783 72.6714C105.783 73.2813 105.64 73.71 105.354 73.9599L104.415 74.4322L103.795 74.4804L103.413 74.4643L103.063 74.4059C102.75 74.3268 102.459 74.1353 102.199 73.8224C101.934 73.5094 101.791 72.9798 101.775 72.2209H102.819L102.813 72.2358ZM108.715 68.212L110.332 74.3463H109.203L108.927 73.1953H107.426L107.156 74.3463H106.027L107.638 68.212H108.721H108.715ZM108.704 72.1567L108.179 69.9407L107.644 72.1567H108.704ZM112.952 68.212C113.36 68.212 113.657 68.3129 113.843 68.5192L114.214 69.1875L114.262 69.4948L114.278 69.7699L114.129 70.4967L113.806 70.8991L113.684 70.9839L113.573 71.0424V71.0584L113.69 71.1009L113.817 71.1593L114.278 71.6465L114.49 72.6221C114.49 73.2159 114.373 73.6298 114.141 73.8682C113.849 74.1548 113.499 74.3084 113.096 74.3348L112.847 74.3451H110.737V68.2108H112.959L112.952 68.212ZM111.807 73.2217H112.804L112.915 73.2056L113.058 73.1471L113.265 72.919L113.36 72.4582L113.174 71.9068L112.671 71.7532H111.807V73.2159V73.2217ZM111.807 70.6343H112.687L112.778 70.6285L112.878 70.5965L113.091 70.4062L113.186 70.0038L113.048 69.5269L112.64 69.3469H111.808V70.6457L111.807 70.6343ZM117.221 74.5205C116.431 74.5148 115.874 74.1812 115.545 73.5186C115.216 72.856 115.052 72.1131 115.052 71.2808C115.052 70.4428 115.216 69.6954 115.545 69.0328C115.874 68.3702 116.436 68.0412 117.221 68.0412H117.279C118.069 68.0412 118.631 68.3702 118.96 69.0328C119.289 69.6954 119.453 70.4428 119.453 71.2808C119.453 72.1188 119.289 72.8663 118.96 73.5232C118.631 74.18 118.069 74.5091 117.279 74.5091L117.221 74.5205ZM117.253 73.3271L117.911 72.9821L118.214 72.261L118.288 71.6775L118.299 71.2751C118.299 70.6606 118.234 70.209 118.103 69.9235L117.678 69.3515L117.45 69.2506L117.248 69.2242L117.047 69.2506L116.813 69.3561L116.389 69.9281C116.261 70.2147 116.197 70.6595 116.197 71.2694L116.208 71.6408L116.256 72.065L116.547 72.919C116.696 73.1792 116.929 73.3111 117.247 73.3214L117.253 73.3271ZM124.57 73.1517L124.518 75.7288H123.568V74.3394H120.716V75.7288H119.767L119.714 73.1517H120.138C120.383 72.6645 120.547 72.1338 120.637 71.5617L120.775 69.6323L120.785 68.212H123.962V73.1529H124.572L124.57 73.1517ZM121.797 69.3985L121.792 70.1253L121.68 71.8001L121.293 73.1471H122.889V69.3939H121.796L121.797 69.3985ZM139.051 79.9016H135.435V71.1169H131.791V79.9016H128.175V68.1959H139.05L139.051 79.9016ZM150.622 72.167C150.622 73.3753 150.246 74.3084 149.497 74.971C148.75 75.6279 147.673 75.9569 146.268 75.9569H144.731V79.8959H141.114V68.1902H145.976C147.529 68.1902 148.706 68.5662 149.506 69.3137C150.249 69.998 150.62 70.9461 150.62 72.1658L150.622 72.167ZM146.92 72.0764C146.92 71.2384 146.411 70.82 145.399 70.82H144.731V73.3329H145.367C146.407 73.3329 146.92 72.9144 146.92 72.0764ZM164.593 74.0482C164.593 75.793 164.02 77.2455 162.87 78.401C161.656 79.6311 160.049 80.2455 158.039 80.2455C156.035 80.2455 154.422 79.6311 153.204 78.401C152.058 77.2455 151.481 75.793 151.481 74.0482C151.481 72.3034 152.054 70.8567 153.204 69.6954C154.423 68.4653 156.035 67.8509 158.039 67.8509C160.043 67.8509 161.656 68.4653 162.87 69.6954C164.015 70.8509 164.593 72.3034 164.593 74.0482ZM160.834 74.0482C160.834 73.2056 160.558 72.5052 160.006 71.9492C159.475 71.4138 158.824 71.1433 158.045 71.1433C157.265 71.1433 156.608 71.4138 156.072 71.9492C155.52 72.5063 155.244 73.2056 155.244 74.0482C155.244 74.8965 155.52 75.5912 156.072 76.1472C156.607 76.6826 157.265 76.9531 158.045 76.9531C158.824 76.9531 159.477 76.6826 160.006 76.1472C160.558 75.5901 160.834 74.8908 160.834 74.0482ZM180.294 79.9016H176.704L175.962 73.9267L173.724 79.9016H171.751L169.561 73.9267L168.787 79.9016H165.192L166.921 68.1959H170.835L172.76 74.1548L174.733 68.1959H178.657L180.29 79.9016H180.294ZM195.666 79.9016H192.076L191.333 73.9267L189.096 79.9016H187.123L184.933 73.9267L184.159 79.9016H180.564L182.293 68.1959H186.207L188.132 74.1548L190.104 68.1959H194.033L195.661 79.9016H195.666ZM208.28 79.9016H204.441L203.805 77.712H200.109L199.467 79.9016H195.628L199.568 68.1959H204.345L208.28 79.9016ZM203.057 75.1464L201.944 71.4241L200.847 75.1464H203.059H203.057ZM224.692 79.9016H209.145V68.1959H212.687V76.9967H215.157V68.1959H218.7V76.9967H221.15V68.1959H224.692V79.9016ZM90.9275 44.6768C86.898 40.2231 85.6565 33.5534 85.4868 27.7057C84.3416 27.8169 83.1482 27.1543 82.9201 25.9506L83.8326 25.6274L84.4791 25.092C85.5395 23.8986 85.6244 21.8214 85.7149 20.3093L85.7895 18.6344C82.544 17.7437 80.6777 13.8678 80.609 10.8574C80.445 3.75325 88.276 0 94.6338 0C99.851 0 105.053 0.795589 110.266 0.32328L113.813 0V0.429893L112.603 1.1567C110.546 2.56675 109.087 4.61877 108.075 6.16638C106.855 8.02696 105.827 9.9781 104.973 12.0038C103.88 14.6015 102.852 17.2576 101.881 19.9826L101.897 19.9929L101.738 20.3265L100.789 20.1087L100.879 19.4942C101.352 17.6119 101.764 15.6985 102.125 13.7474C102.501 11.7057 102.687 9.64909 102.687 7.5707C102.687 6.38878 102.481 5.37538 102.067 4.53279C100.715 1.77574 97.7989 1.79179 94.9616 1.79179C89.224 1.79179 81.8757 4.17283 81.6739 10.7943C81.6097 12.8888 83.233 16.7326 85.7723 17.2622L85.6232 15.788C85.5327 15.2526 85.3103 14.8388 84.9503 14.5522C86.6309 14.0489 88.3539 13.29 90.109 12.2674C91.8641 11.2437 93.3854 10.1466 94.6739 8.9647V9.07017C94.0273 9.96664 93.5814 11.0316 93.3326 12.2674C93.1527 13.1524 92.9933 14.3194 92.8982 15.5862C94.7014 14.5785 95.9475 13.572 96.8165 11.1382C99.0279 4.93517 89.9336 2.64012 89.3077 7.45836L89.4143 7.83437C89.4888 7.40448 89.6631 7.01815 89.9497 6.67882C90.8198 5.65051 92.3674 6.23861 92.3674 7.56382C92.3674 8.13587 92.161 8.69301 91.7518 9.22837C91.3379 9.76373 90.8129 10.0343 90.1663 10.0343C88.9844 10.0343 87.8919 8.95324 87.9974 7.82864C88.6497 0.888446 100.554 3.2798 98.0454 11.2001C97.1707 13.9572 95.1611 15.7547 92.8122 17.1487C92.7377 19.3486 92.8649 21.6185 93.3636 23.1133C93.5596 23.7014 93.8462 24.1898 94.2222 24.5658C94.5982 24.9418 95.0706 25.1275 95.6437 25.1275C95.6071 25.7741 95.4099 26.3255 95.0556 26.7921C94.6945 27.2587 94.1225 27.4914 93.3372 27.4914L92.9394 27.4593L92.9073 29.0023C92.9016 33.0685 92.9073 37.9831 94.2016 42.0653C94.7209 43.6978 95.4317 45.4059 97.2452 45.8346L97.3358 46.237C97.5639 47.1438 98.0145 48.7074 99.1918 48.7074L99.8384 48.4105C100.22 47.8855 100.083 47.1117 99.5151 46.7724C100.295 46.3803 101.472 46.8515 101.933 47.5255C103.03 49.1213 102.664 52.2016 100.268 52.2016C99.4463 52.2016 98.7619 51.8726 98.2265 51.21C97.447 50.2505 97.0068 49.0995 96.6996 47.9176C94.393 47.3398 92.6907 46.613 90.9252 44.6573L90.9275 44.6768ZM103.086 46.3941C102.561 45.869 101.872 45.6099 101.024 45.6099L100.902 45.6157C101.502 44.804 101.783 44.248 102.116 43.277C103.574 39.0033 103.41 33.5488 103.283 29.9802C100.229 29.6248 97.8586 27.2609 97.8586 24.1267C97.8586 22.5837 98.5533 20.5798 100.383 20.5798C102.36 20.5798 102.881 22.7431 102.047 24.2861C101.799 24.7527 101.369 24.9854 100.759 24.9854L100.567 24.959L100.434 24.9326C100.683 24.646 100.81 24.3388 100.81 24.0213C100.81 23.5914 100.577 23.3747 100.11 23.3747L99.5483 23.7507L99.3626 24.45C99.3626 24.9854 99.5804 25.4095 100.009 25.7122C101.298 26.6236 103.255 26.7623 104.792 26.7623L111.451 26.1157C113.98 26.1157 116.07 27.7172 116.07 30.3619C116.07 32.0001 115.513 33.7976 113.6 33.7976C112.348 33.7976 111.341 33.002 111.341 31.7032C111.341 31.2733 111.521 30.5155 111.988 30.3619C112.067 30.9294 112.236 31.4384 112.9 31.4384C113.912 31.4384 113.462 30.0226 112.874 29.6936C112.46 29.4608 112.042 29.3439 111.612 29.3439L110.588 29.5033C110.519 30.9718 110.339 32.493 110.053 34.0682C109.283 38.304 107.253 43.1074 103.854 45.9756L103.091 46.4055L103.086 46.3941ZM191.976 30.7333C191.976 29.6569 191.87 28.6286 191.653 27.6427C191.277 25.9197 190.423 24.2334 188.912 23.2371C188.234 22.7924 187.444 22.5642 186.547 22.5642C185.041 22.5642 183.853 23.291 182.974 24.7378C182.099 26.1902 181.659 28.1838 181.659 30.7288V32.1227H191.972V30.7288L191.976 30.7333ZM195.147 38.5746C195.147 41.0771 194.548 43.7069 193 45.7211C192.285 46.6543 191.352 47.3857 190.205 47.921C189.06 48.4564 187.719 48.7269 186.176 48.7269C181.738 48.7269 177.978 46.4044 176.477 42.0676C175.698 39.8196 175.454 37.3594 175.91 35.0323C175.518 35.0907 174.934 34.9532 174.595 34.7881L173.815 34.1152C174.245 33.9352 174.585 33.6325 174.839 33.2038C175.088 32.7739 175.285 32.2924 175.427 31.7513L175.777 30.1131L176.074 28.687C176.292 27.7906 176.609 26.8528 177.039 25.8669C177.469 24.8811 178.067 23.9846 178.837 23.1787C179.606 22.3728 180.592 21.7102 181.79 21.1909C182.988 20.6715 184.468 20.4113 186.223 20.4113C187.798 20.4113 189.149 20.7449 190.279 21.4029C191.408 22.0655 192.331 22.962 193.046 24.0912C193.761 25.2204 194.292 26.525 194.631 28.0141C194.971 29.4987 195.14 31.0681 195.14 32.7166V34.5462H181.657V35.5699L181.736 38.523C181.837 40.8031 182.335 43.3057 183.83 45.1021C184.531 45.9447 185.506 46.3642 186.757 46.3642C190.983 46.3642 192.505 42.2877 192.505 38.5757H195.135L195.147 38.5746ZM160.602 48.0861V47.3868H160.873C161.663 47.3868 162.198 47.0635 162.485 46.4216C162.771 45.775 162.915 45.0276 162.915 44.1632V35.7281L162.909 35.171L162.649 35.1916C162.257 35.1916 161.922 35.101 161.657 34.9211C161.386 34.7411 161.253 34.4384 161.253 34.0097C161.757 34.0097 162.16 33.8664 162.463 33.5798C162.766 33.2932 162.919 32.6994 162.919 31.8086V18.7559L162.866 16.2855C162.83 15.4635 162.713 14.6737 162.517 13.9205C162.321 13.1673 162.034 12.468 161.658 11.8261C161.282 11.1795 160.751 10.6442 160.073 10.2143V10.1088H169.633C168.918 10.8986 168.478 11.9384 168.319 13.2258C168.159 14.5143 168.074 15.7708 168.074 16.9848V31.702C168.074 32.6352 168.244 33.2496 168.583 33.558C168.923 33.8607 169.31 34.0143 169.739 34.0143C169.739 34.8041 169.22 35.2386 168.18 35.1962L168.063 35.1905L168.069 35.6777V44.1655L168.148 45.4013L168.471 46.425L169.172 47.1243C169.474 47.3043 169.877 47.3948 170.381 47.3948V48.0941H160.603L160.602 48.0861ZM146.477 48.0861V47.3868H146.747C147.537 47.3868 148.072 47.0635 148.359 46.4216C148.646 45.775 148.789 45.0276 148.789 44.1632V35.7281L148.799 35.171L148.523 35.1916C148.131 35.1916 147.796 35.101 147.531 34.9211C147.261 34.7411 147.128 34.4384 147.128 34.0097C147.631 34.0097 148.035 33.8664 148.337 33.5798C148.64 33.2932 148.793 32.6994 148.793 31.8086V18.7559L148.741 16.2855C148.704 15.4635 148.587 14.6737 148.391 13.9205C148.195 13.1673 147.908 12.468 147.532 11.8261C147.156 11.1795 146.626 10.6442 145.947 10.2143V10.1088H155.508C154.792 10.8986 154.352 11.9384 154.193 13.2258C154.034 14.5143 153.949 15.7708 153.949 16.9848V31.702C153.949 32.6352 154.118 33.2496 154.458 33.558C154.797 33.8607 155.184 34.0143 155.613 34.0143C155.613 34.8041 155.094 35.2501 154.054 35.1962L153.937 35.1905L153.948 35.6777V44.1655L154.027 45.4013L154.35 46.425L155.05 47.1243C155.353 47.3043 155.755 47.3948 156.26 47.3948V48.0941H146.482L146.477 48.0861ZM126.221 42.3393L126.231 43.1292C126.327 44.2102 126.746 45.086 127.483 45.7532C128.253 46.4525 129.159 46.8033 130.198 46.8033C131.343 46.8033 132.229 46.4273 132.86 45.6741C133.486 44.9209 133.799 43.8663 133.799 42.5032V31.5977C133.512 32.313 133.03 32.9069 132.346 33.3689C131.668 33.8354 130.952 34.2757 130.199 34.6838C128.709 35.5 127.123 36.354 126.334 37.9338L126.148 38.5539L126.121 39.1157C126.121 39.6189 126.265 39.9846 126.551 40.2185C126.838 40.4512 127.177 40.606 127.569 40.6748V40.8341C127.569 41.264 127.442 41.624 127.193 41.9105C126.945 42.1971 126.62 42.3404 126.228 42.3404L126.221 42.3393ZM120.552 43.1028V43.0867L120.526 42.9274H120.532L120.457 42.3336L120.308 42.3393L119.343 42.016C118.982 41.7982 118.808 41.3695 118.808 40.7275H119.025C119.492 40.7275 119.847 40.5945 120.102 40.3251C121.025 39.3392 121.061 37.8868 121.82 36.8046C124.811 32.5526 130.776 32.9665 133.799 29.3393V27.6221C133.799 25.8303 133.29 24.5945 132.266 23.9158C131.248 23.2371 129.98 22.8921 128.48 22.8921C126.575 22.8921 124.111 23.5914 122.838 25.092C122.446 25.5586 122.25 26.0779 122.25 26.6511L122.276 26.9216L122.409 27.1922C122.569 26.0148 123.571 25.045 124.774 25.045C126.99 25.045 126.673 27.6851 125.792 28.9679C124.944 30.2037 122.558 30.3997 121.551 29.2648C120.48 28.0565 120.882 26.0515 121.604 24.779C123.237 21.8902 126.646 20.644 129.822 20.644C132.579 20.644 134.79 21.2906 136.455 22.5791C138.119 23.8677 138.953 25.8188 138.953 28.4325V31.9795C138.953 32.8759 139.096 33.4743 139.383 33.777C139.669 34.0796 140.083 34.2493 140.619 34.286C140.619 34.6092 140.486 34.8855 140.215 35.1182C139.945 35.351 139.579 35.4943 139.112 35.4679L138.948 35.4576L138.954 35.9505V44.4383L139.033 45.6741C139.086 46.0662 139.229 46.4112 139.463 46.6978C139.697 46.9844 140.036 47.2172 140.487 47.3971C140.933 47.5771 141.553 47.6677 142.343 47.6677V48.0976H136.754C136.181 48.0976 135.704 47.9703 135.333 47.7216C134.957 47.4728 134.628 47.0429 134.341 46.433C133.768 47.255 132.952 47.8591 131.897 48.2305C130.842 48.6066 129.649 48.7923 128.324 48.7923C124.575 48.7923 121.24 47.0005 120.56 43.1085L120.552 43.1028ZM224.692 20.957C224.189 21.317 223.759 21.7526 223.403 22.2719C223.042 22.7912 222.73 23.3529 222.464 23.9628L221.738 25.8452L221.15 27.6748L216.208 44.1689C214.691 49.2268 212.946 55.5834 208.175 58.5102C206.834 59.3321 205.226 59.746 203.366 59.746C202.65 59.746 201.908 59.6405 201.138 59.4227C199.68 59.0146 198.343 58.1662 197.485 56.8995C196.647 55.6591 196.562 53.6655 197.782 52.6258C198.392 52.1065 199.145 51.8462 200.04 51.8462C201.302 51.8462 202.993 52.4343 202.993 53.9407C202.993 54.5872 202.744 55.0699 202.24 55.3931C201.737 55.7164 201.185 55.8758 200.575 55.8758C199.86 55.8758 199.212 55.6431 198.64 55.1765C199.214 56.1417 199.929 56.7459 200.788 56.974C201.646 57.2067 202.399 57.3236 203.046 57.3236C203.942 57.3236 204.817 57.0795 205.676 56.5968C206.534 56.1142 207.288 55.4516 207.934 54.609C208.581 53.7664 209.095 52.7645 209.493 51.6032C209.885 50.4373 210.081 49.1752 210.081 47.8179L206.48 35.6765L206.321 35.1618L206.051 35.1882C205.154 35.1882 204.582 34.7961 204.332 34.0063C205.154 34.0063 205.568 33.6669 205.568 32.9883L205.297 31.6997L203.819 26.9973C203.548 26.1914 203.209 25.4118 202.801 24.6587C202.387 23.9055 201.894 23.2165 201.322 22.5906C200.749 21.9647 200.033 21.419 199.175 20.9524V20.7931H208.735V20.9524L208.306 21.8638L208.199 22.9402C208.199 23.5123 208.316 24.2655 208.549 25.1986C209.094 27.3882 209.795 29.5411 210.457 31.6986C210.744 32.6317 211.077 33.2313 211.449 33.4961C211.825 33.7667 212.265 33.9363 212.764 34.0051L212.817 34.3284C212.817 35.1973 212.101 35.2398 211.449 35.1446L211.635 35.6697L214.212 44.1575L218.618 29.4402L218.968 28.2847C219.233 27.3309 219.493 26.3656 219.641 25.3843C219.795 24.3606 219.795 23.3965 219.455 22.4049C219.259 21.8328 218.91 21.3502 218.405 20.9524V20.7931H224.688V20.9524L224.692 20.957Z" fill="#662019"/>
<path id="Vector_2" fill-rule="evenodd" clip-rule="evenodd" d="M224.69 63.8284H85.6807V62.1157H224.69V63.8284Z" fill="#662019"/>
</g>
</svg>
