<svg width="21" height="21" viewBox="0 0 21 21" fill="none" xmlns="http://www.w3.org/2000/svg">
<path d="M20.57 10.3958C20.57 13.1236 19.4864 15.7396 17.5576 17.6684C15.6288 19.5972 13.0128 20.6808 10.285 20.6808C7.55725 20.6808 4.94122 19.5972 3.01241 17.6684C1.0836 15.7396 0 13.1236 0 10.3958C0 7.66809 1.0836 5.05206 3.01241 3.12325C4.94122 1.19444 7.55725 0.11084 10.285 0.11084C13.0128 0.11084 15.6288 1.19444 17.5576 3.12325C19.4864 5.05206 20.57 7.66809 20.57 10.3958ZM10.285 5.25334C10.1225 5.25343 9.96183 5.28756 9.81333 5.35353C9.66483 5.41949 9.53179 5.51583 9.42279 5.63634C9.31378 5.75685 9.23123 5.89886 9.18045 6.05321C9.12967 6.20757 9.11178 6.37085 9.12794 6.53254L9.57791 11.0412C9.59302 11.2183 9.67407 11.3833 9.805 11.5036C9.93594 11.6238 10.1072 11.6905 10.285 11.6905C10.4628 11.6905 10.6341 11.6238 10.765 11.5036C10.8959 11.3833 10.977 11.2183 10.9921 11.0412L11.4421 6.53254C11.4582 6.37085 11.4403 6.20757 11.3896 6.05321C11.3388 5.89886 11.2562 5.75685 11.1472 5.63634C11.0382 5.51583 10.9052 5.41949 10.7567 5.35353C10.6082 5.28756 10.4475 5.25343 10.285 5.25334ZM10.2876 12.9671C9.9466 12.9671 9.6196 13.1025 9.3785 13.3436C9.1374 13.5847 9.00195 13.9117 9.00195 14.2527C9.00195 14.5937 9.1374 14.9207 9.3785 15.1618C9.6196 15.4029 9.9466 15.5383 10.2876 15.5383C10.6285 15.5383 10.9555 15.4029 11.1966 15.1618C11.4377 14.9207 11.5732 14.5937 11.5732 14.2527C11.5732 13.9117 11.4377 13.5847 11.1966 13.3436C10.9555 13.1025 10.6285 12.9671 10.2876 12.9671Z" fill="#34C924"/>
</svg>
