<svg width="24" height="25" viewBox="0 0 24 25" fill="none" xmlns="http://www.w3.org/2000/svg">
<path d="M20.5556 23.1938V3.63829C20.5556 2.98999 20.298 2.36823 19.8396 1.90981C19.3812 1.45139 18.7594 1.19385 18.1111 1.19385H5.88889C5.24058 1.19385 4.61883 1.45139 4.16041 1.90981C3.70198 2.36823 3.44444 2.98999 3.44444 3.63829V23.1938M20.5556 23.1938H23M20.5556 23.1938H14.4444M3.44444 23.1938H1M3.44444 23.1938H9.55556M14.4444 23.1938V17.0827C14.4444 16.7586 14.3157 16.4477 14.0865 16.2185C13.8573 15.9893 13.5464 15.8605 13.2222 15.8605H10.7778C10.4536 15.8605 10.1427 15.9893 9.91354 16.2185C9.68433 16.4477 9.55556 16.7586 9.55556 17.0827V23.1938M14.4444 23.1938H9.55556M8.33333 6.08274H9.55556M8.33333 10.9716H9.55556M14.4444 6.08274H15.6667M14.4444 10.9716H15.6667" stroke="#150035" stroke-width="2" stroke-linecap="round" stroke-linejoin="round"/>
</svg>
