<svg width="9" height="13" viewBox="0 0 9 13" fill="none" xmlns="http://www.w3.org/2000/svg">
<path fill-rule="evenodd" clip-rule="evenodd" d="M8.13599 7.41534L8.151 7.44334L4.50098 12.1003L0.821961 7.38333L0.829956 7.37033C0.289322 6.59053 -0.000216448 5.66421 1.21404e-07 4.71533C1.21404e-07 3.52186 0.47408 2.37727 1.31799 1.53336C2.16191 0.689442 3.30653 0.215332 4.5 0.215332C5.69347 0.215332 6.83803 0.689442 7.68195 1.53336C8.52586 2.37727 9 3.52186 9 4.71533C8.99952 5.68324 8.69751 6.62696 8.13599 7.41534ZM4.50098 2.10033C3.83794 2.10033 3.20206 2.36372 2.73322 2.83257C2.26437 3.30141 2.00098 3.93729 2.00098 4.60033C2.00334 5.02568 2.11563 5.44319 2.32697 5.81233L2.31299 5.83434L4.49396 9.17033L6.52795 6.05334C6.56095 6.00734 6.59097 5.95933 6.62097 5.91133L6.68695 5.81133L6.67999 5.80234C6.8872 5.43615 6.99737 5.02307 7 4.60233C7.00026 4.27394 6.93582 3.94872 6.81036 3.64524C6.68491 3.34176 6.50087 3.06597 6.2688 2.83363C6.03673 2.60128 5.76115 2.41694 5.45782 2.29111C5.1545 2.16529 4.82937 2.10047 4.50098 2.10033Z" fill="white"/>
</svg>
