<svg width="25" height="31" viewBox="0 0 25 31" fill="none" xmlns="http://www.w3.org/2000/svg">
<path d="M12.5 0.799561C15.8152 0.799561 18.9946 2.10037 21.3388 4.41582C23.683 6.73128 25 9.87171 25 13.1463C25 18.3635 21.2885 24.0493 13.9615 30.2645C13.5541 30.6102 13.0347 30.8 12.4976 30.7996C11.9605 30.7991 11.4414 30.6083 11.0346 30.2619L10.55 29.8466C3.54744 23.7935 0 18.247 0 13.1463C0 9.87171 1.31696 6.73128 3.66117 4.41582C6.00537 2.10037 9.18479 0.799561 12.5 0.799561ZM12.5 2.69905C9.69483 2.69905 7.00454 3.79974 5.02099 5.75897C3.03743 7.7182 1.92308 10.3755 1.92308 13.1463C1.92308 17.5809 5.18974 22.6906 11.8128 28.4144L12.291 28.8234C12.3492 28.8728 12.4233 28.8999 12.5 28.8999C12.5767 28.8999 12.6508 28.8728 12.709 28.8234C19.6526 22.9324 23.0769 17.686 23.0769 13.1463C23.0769 11.7743 22.8033 10.4158 22.2718 9.14829C21.7403 7.88077 20.9612 6.72908 19.979 5.75897C18.9969 4.78886 17.8309 4.01932 16.5476 3.4943C15.2644 2.96928 13.889 2.69905 12.5 2.69905ZM12.5 8.39753C13.7751 8.39753 14.9979 8.89784 15.8996 9.7884C16.8012 10.679 17.3077 11.8868 17.3077 13.1463C17.3077 14.4057 16.8012 15.6136 15.8996 16.5041C14.9979 17.3947 13.7751 17.895 12.5 17.895C11.2249 17.895 10.0021 17.3947 9.10045 16.5041C8.19883 15.6136 7.69231 14.4057 7.69231 13.1463C7.69231 11.8868 8.19883 10.679 9.10045 9.7884C10.0021 8.89784 11.2249 8.39753 12.5 8.39753ZM12.5 10.297C11.735 10.297 11.0012 10.5972 10.4603 11.1315C9.9193 11.6659 9.61539 12.3906 9.61539 13.1463C9.61539 13.9019 9.9193 14.6266 10.4603 15.161C11.0012 15.6953 11.735 15.9955 12.5 15.9955C13.265 15.9955 13.9988 15.6953 14.5397 15.161C15.0807 14.6266 15.3846 13.9019 15.3846 13.1463C15.3846 12.3906 15.0807 11.6659 14.5397 11.1315C13.9988 10.5972 13.265 10.297 12.5 10.297Z" fill="#150035"/>
</svg>
