<svg width="244" height="73" viewBox="0 0 244 73" fill="none" xmlns="http://www.w3.org/2000/svg">
<path d="M31.4473 23.6668C31.6183 19.8248 33.0685 17.4184 36.8261 12.9092C37.9018 20.9774 50.273 34.9622 47.0458 41.4168L31.4473 23.6668Z" fill="#FE9901"/>
<circle cx="24.4548" cy="46.7954" r="24.2045" fill="#FFB324"/>
<path d="M4.01328 20.4395C11.3157 24.938 14.1685 27.9489 15.3087 32.2728L22.3026 64.5455C20.1511 68.3107 15.9755 69.7666 11.545 67.2349C7.77987 65.0834 1.24694 58.6288 0.786007 48.947C0.248255 37.6516 5.62835 31.7349 4.01328 20.4395Z" fill="#F9D20F"/>
<path d="M22.303 0C9.93263 9.68182 9.39505 19.3636 14.7727 32.2727L48.6595 45.7197C49.736 27.4318 21.7663 21.5152 22.303 0Z" fill="#FFB324"/>
<circle cx="24.4551" cy="46.7959" r="17.75" fill="black"/>
<path d="M34.4552 42.4647C34.8976 42.0223 35.6574 42.2281 35.808 42.8352C36.6007 46.0228 35.7515 49.5358 33.2591 52.0282C30.5765 54.7109 26.7205 55.4525 23.3507 54.329L18.1687 59.511L12.084 53.4263L17.2781 48.2321C16.1687 44.8637 16.9023 41.0004 19.5675 38.3352C22.0572 35.8462 25.5648 34.9956 28.7504 35.785C29.3615 35.9369 29.576 36.6953 29.1309 37.1404L24.1313 42.14L24.8918 46.7039L29.4557 47.4643L34.4552 42.4647Z" fill="white"/>
<path d="M61.8485 16.3661L61.7215 17.8907L62.3567 17.0013L74.3841 4.254H80.2284L67.5234 17.5942L80.8213 35H75.1041L64.2201 20.4316L61.8485 22.7609V35H57.2748V4.254H61.8485V16.3661ZM82.9543 19.6693C82.9543 17.5519 83.3496 15.5473 84.1401 13.6557C84.9589 11.764 86.0882 10.0842 87.5281 8.61604C88.968 7.14791 90.6338 6.00446 92.5254 5.1857C94.417 4.3387 96.4498 3.9152 98.6238 3.9152C100.77 3.9152 102.788 4.3387 104.68 5.1857C106.571 6.00446 108.251 7.14791 109.719 8.61604C111.188 10.0842 112.331 11.764 113.15 13.6557C113.969 15.5473 114.378 17.5519 114.378 19.6693C114.378 21.8433 113.969 23.8761 113.15 25.7677C112.331 27.6594 111.188 29.3251 109.719 30.765C108.28 32.2049 106.6 33.3342 104.68 34.153C102.788 34.9435 100.77 35.3388 98.6238 35.3388C96.4498 35.3388 94.417 34.9435 92.5254 34.153C90.6338 33.3625 88.968 32.2614 87.5281 30.8497C86.0882 29.4098 84.9589 27.7441 84.1401 25.8524C83.3496 23.9326 82.9543 21.8715 82.9543 19.6693ZM87.6128 19.6693C87.6128 21.2504 87.8951 22.7327 88.4598 24.1161C89.0527 25.4713 89.8574 26.6712 90.8738 27.7158C91.8902 28.7322 93.0618 29.5369 94.3888 30.1298C95.744 30.6944 97.198 30.9768 98.7508 30.9768C100.275 30.9768 101.701 30.6944 103.028 30.1298C104.355 29.5369 105.513 28.7322 106.501 27.7158C107.517 26.6712 108.308 25.4713 108.872 24.1161C109.437 22.7327 109.719 21.2504 109.719 19.6693C109.719 18.0883 109.423 16.6202 108.83 15.265C108.265 13.8815 107.475 12.6675 106.459 11.6229C105.47 10.5782 104.299 9.75948 102.943 9.16658C101.617 8.57369 100.191 8.27724 98.6661 8.27724C97.0851 8.27724 95.6311 8.57369 94.3041 9.16658C92.9771 9.75948 91.8055 10.5782 90.7891 11.6229C89.7727 12.6675 88.9821 13.8815 88.4175 15.265C87.881 16.6484 87.6128 18.1165 87.6128 19.6693ZM137.139 10.1406C136.066 9.57597 134.908 9.096 133.666 8.70073C132.424 8.30547 131.224 8.10784 130.066 8.10784C128.485 8.10784 127.229 8.47487 126.297 9.20893C125.365 9.91476 124.9 10.8888 124.9 12.1311C124.9 13.0063 125.21 13.7686 125.831 14.418C126.452 15.0673 127.257 15.632 128.245 16.112C129.233 16.5919 130.278 17.0437 131.379 17.4672C132.311 17.806 133.228 18.2153 134.132 18.6953C135.064 19.147 135.896 19.7117 136.63 20.3893C137.393 21.0669 137.986 21.9139 138.409 22.9303C138.861 23.9185 139.087 25.1325 139.087 26.5724C139.087 28.2099 138.677 29.6922 137.859 31.0191C137.068 32.3461 135.911 33.4048 134.386 34.1954C132.89 34.9577 131.069 35.3388 128.923 35.3388C127.624 35.3388 126.354 35.1976 125.111 34.9153C123.897 34.6047 122.74 34.2095 121.639 33.7295C120.566 33.2213 119.592 32.6708 118.716 32.0779L120.749 28.5628C121.427 29.0428 122.203 29.5086 123.079 29.9604C123.954 30.3839 124.857 30.7227 125.789 30.9768C126.749 31.2309 127.652 31.3579 128.499 31.3579C129.431 31.3579 130.349 31.2026 131.252 30.8921C132.155 30.5533 132.904 30.0451 133.497 29.3675C134.089 28.6616 134.386 27.7441 134.386 26.6147C134.386 25.6548 134.118 24.8501 133.581 24.2008C133.073 23.5232 132.381 22.9444 131.506 22.4644C130.659 21.9845 129.742 21.561 128.753 21.1939C127.793 20.8269 126.819 20.4175 125.831 19.9658C124.843 19.5141 123.926 18.9776 123.079 18.3565C122.232 17.7071 121.54 16.9166 121.003 15.9849C120.495 15.025 120.241 13.8533 120.241 12.4699C120.241 10.8323 120.622 9.40657 121.385 8.19254C122.175 6.95027 123.262 5.97623 124.645 5.2704C126.029 4.56456 127.624 4.1693 129.431 4.0846C131.492 4.0846 133.285 4.3387 134.809 4.8469C136.334 5.3551 137.689 5.96211 138.875 6.66794L137.139 10.1406ZM143.369 4.254H163.867V8.61604H155.778V35H151.246V8.61604H143.369V4.254ZM170.263 4.254H190.464V8.61604H174.794V17.3825H188.727V21.7445H174.794V30.638H191.057V35H170.263V4.254ZM206.441 4.254C208.051 4.254 209.533 4.47987 210.888 4.9316C212.271 5.3551 213.443 5.97623 214.403 6.79499C215.391 7.61376 216.153 8.63015 216.69 9.84418C217.255 11.03 217.537 12.4134 217.537 13.9945C217.537 15.2085 217.353 16.4084 216.986 17.5942C216.619 18.78 216.026 19.8529 215.208 20.8128C214.389 21.7727 213.316 22.5491 211.989 23.142C210.662 23.7067 209.01 23.989 207.034 23.989H202.545V35H198.014V4.254H206.441ZM206.949 19.6693C208.107 19.6693 209.067 19.4858 209.829 19.1188C210.62 18.7518 211.227 18.3 211.65 17.7636C212.102 17.1989 212.413 16.606 212.582 15.9849C212.78 15.3355 212.878 14.7144 212.878 14.1215C212.878 13.5569 212.78 12.964 212.582 12.3428C212.413 11.7217 212.102 11.1288 211.65 10.5641C211.227 9.99946 210.648 9.53362 209.914 9.16658C209.18 8.79955 208.276 8.61604 207.204 8.61604H202.545V19.6693H206.949ZM212.158 22.295L220.12 35H214.869L206.78 22.4221L212.158 22.295ZM54.6067 40.4234H59.8581L67.8199 63.0382L67.0576 62.7418L73.0713 47.2841L75.1464 53.4248L66.8458 72.4399L54.6067 40.4234ZM69.5139 40.4234H74.003L82.727 62.6571L81.8377 62.4877L89.2913 40.4234H94.1191L82.0918 72.3552L69.5139 40.4234ZM95.8992 55.6693C95.8992 53.5519 96.2944 51.5473 97.085 49.6557C97.9037 47.764 99.0331 46.0842 100.473 44.616C101.913 43.1479 103.579 42.0045 105.47 41.1857C107.362 40.3387 109.395 39.9152 111.569 39.9152C113.714 39.9152 115.733 40.3387 117.625 41.1857C119.516 42.0045 121.196 43.1479 122.664 44.616C124.132 46.0842 125.276 47.764 126.095 49.6557C126.913 51.5473 127.323 53.5519 127.323 55.6693C127.323 57.8433 126.913 59.8761 126.095 61.7677C125.276 63.6594 124.132 65.3251 122.664 66.765C121.224 68.2049 119.545 69.3342 117.625 70.153C115.733 70.9435 113.714 71.3388 111.569 71.3388C109.395 71.3388 107.362 70.9435 105.47 70.153C103.579 69.3625 101.913 68.2614 100.473 66.8497C99.0331 65.4098 97.9037 63.7441 97.085 61.8524C96.2944 59.9326 95.8992 57.8715 95.8992 55.6693ZM100.558 55.6693C100.558 57.2504 100.84 58.7327 101.405 60.1161C101.998 61.4713 102.802 62.6712 103.819 63.7158C104.835 64.7322 106.007 65.5369 107.334 66.1298C108.689 66.6944 110.143 66.9768 111.696 66.9768C113.22 66.9768 114.646 66.6944 115.973 66.1298C117.3 65.5369 118.458 64.7322 119.446 63.7158C120.462 62.6712 121.253 61.4713 121.817 60.1161C122.382 58.7327 122.664 57.2504 122.664 55.6693C122.664 54.0883 122.368 52.6202 121.775 51.265C121.21 49.8815 120.42 48.6675 119.403 47.6229C118.415 46.5782 117.243 45.7595 115.888 45.1666C114.561 44.5737 113.136 44.2772 111.611 44.2772C110.03 44.2772 108.576 44.5737 107.249 45.1666C105.922 45.7595 104.75 46.5782 103.734 47.6229C102.717 48.6675 101.927 49.8815 101.362 51.265C100.826 52.6484 100.558 54.1165 100.558 55.6693ZM142.503 40.254C144.112 40.254 145.594 40.4799 146.95 40.9316C148.333 41.3551 149.505 41.9762 150.465 42.795C151.453 43.6138 152.215 44.6302 152.752 45.8442C153.316 47.03 153.599 48.4134 153.599 49.9945C153.599 51.2085 153.415 52.4084 153.048 53.5942C152.681 54.78 152.088 55.8529 151.269 56.8128C150.451 57.7727 149.378 58.5491 148.051 59.142C146.724 59.7067 145.072 59.989 143.096 59.989H138.607V71H134.075V40.254H142.503ZM143.011 55.6693C144.169 55.6693 145.129 55.4858 145.891 55.1188C146.681 54.7518 147.288 54.3 147.712 53.7636C148.164 53.1989 148.474 52.606 148.644 51.9849C148.841 51.3355 148.94 50.7144 148.94 50.1215C148.94 49.5569 148.841 48.964 148.644 48.3428C148.474 47.7217 148.164 47.1288 147.712 46.5641C147.288 45.9995 146.71 45.5336 145.976 45.1666C145.241 44.7996 144.338 44.616 143.265 44.616H138.607V55.6693H143.011ZM148.22 58.295L156.182 71H150.93L142.842 58.4221L148.22 58.295ZM166.813 52.3661L166.686 53.8907L167.322 53.0013L179.349 40.254H185.193L172.488 53.5942L185.786 71H180.069L169.185 56.4316L166.813 58.7609V71H162.24V40.254H166.813V52.3661ZM207.198 46.1406C206.125 45.576 204.967 45.096 203.725 44.7007C202.483 44.3055 201.283 44.1078 200.125 44.1078C198.544 44.1078 197.288 44.4749 196.356 45.2089C195.425 45.9148 194.959 46.8888 194.959 48.1311C194.959 49.0063 195.269 49.7686 195.89 50.418C196.512 51.0673 197.316 51.632 198.304 52.112C199.293 52.5919 200.337 53.0437 201.438 53.4672C202.37 53.806 203.288 54.2153 204.191 54.6953C205.123 55.147 205.956 55.7117 206.69 56.3893C207.452 57.0669 208.045 57.9139 208.468 58.9303C208.92 59.9185 209.146 61.1325 209.146 62.5724C209.146 64.2099 208.737 65.6922 207.918 67.0191C207.127 68.3461 205.97 69.4048 204.445 70.1954C202.949 70.9577 201.128 71.3388 198.982 71.3388C197.683 71.3388 196.413 71.1976 195.171 70.9153C193.957 70.6047 192.799 70.2095 191.698 69.7295C190.625 69.2213 189.651 68.6708 188.776 68.0779L190.809 64.5628C191.486 65.0428 192.263 65.5086 193.138 65.9604C194.013 66.3839 194.916 66.7227 195.848 66.9768C196.808 67.2309 197.712 67.3579 198.559 67.3579C199.49 67.3579 200.408 67.2026 201.311 66.8921C202.215 66.5533 202.963 66.0451 203.556 65.3675C204.149 64.6616 204.445 63.7441 204.445 62.6147C204.445 61.6548 204.177 60.8501 203.641 60.2008C203.132 59.5232 202.441 58.9444 201.565 58.4644C200.718 57.9845 199.801 57.561 198.813 57.1939C197.853 56.8269 196.879 56.4175 195.89 55.9658C194.902 55.5141 193.985 54.9776 193.138 54.3565C192.291 53.7071 191.599 52.9166 191.063 51.9849C190.554 51.025 190.3 49.8533 190.3 48.4699C190.3 46.8323 190.681 45.4066 191.444 44.1925C192.234 42.9503 193.321 41.9762 194.705 41.2704C196.088 40.5646 197.683 40.1693 199.49 40.0846C201.551 40.0846 203.344 40.3387 204.869 40.8469C206.393 41.3551 207.748 41.9621 208.934 42.6679L207.198 46.1406Z" fill="black"/>
</svg>
