<svg width="11" height="10" viewBox="0 0 11 10" fill="none" xmlns="http://www.w3.org/2000/svg">
<path fill-rule="evenodd" clip-rule="evenodd" d="M9 9.65771H2C1.46957 9.65771 0.960858 9.447 0.585785 9.07193C0.210712 8.69686 0 8.18815 0 7.65771V2.65771C0 2.12728 0.210712 1.61857 0.585785 1.2435C0.960858 0.868427 1.46957 0.657715 2 0.657715H9C9.53043 0.657715 10.0391 0.868427 10.4142 1.2435C10.7893 1.61857 11 2.12728 11 2.65771V7.65771C11 8.18815 10.7893 8.69686 10.4142 9.07193C10.0391 9.447 9.53043 9.65771 9 9.65771ZM9 7.65771V4.61871L6 6.65771H5L2 4.62172V7.65771H9ZM2.366 2.65771L5.51099 4.73671L8.634 2.65771H2.366Z" fill="white"/>
</svg>
