<svg width="21" height="17" viewBox="0 0 21 17" fill="none" xmlns="http://www.w3.org/2000/svg">
<path d="M18.0419 0.564453H3.17188C2.50883 0.564453 1.87295 0.827845 1.40411 1.29669C0.935267 1.76553 0.671875 2.40141 0.671875 3.06445V13.9345C0.671875 14.5975 0.935267 15.2334 1.40411 15.7022C1.87295 16.1711 2.50883 16.4345 3.17188 16.4345H18.0419C18.7049 16.4345 19.3408 16.1711 19.8096 15.7022C20.2785 15.2334 20.5419 14.5975 20.5419 13.9345V3.06445C20.5419 2.40141 20.2785 1.76553 19.8096 1.29669C19.3408 0.827845 18.7049 0.564453 18.0419 0.564453ZM3.17188 1.56445H18.0419C18.4204 1.56336 18.7851 1.70646 19.0619 1.96466C19.3387 2.22286 19.5067 2.57678 19.5319 2.95445C17.0619 4.27445 14.5819 5.58445 12.1019 6.90445C11.7664 7.11471 11.4114 7.2922 11.0419 7.43445C10.7518 7.4917 10.4528 7.48653 10.1649 7.41929C9.87693 7.35205 9.60661 7.22427 9.37188 7.04445C7.95188 6.29445 6.53187 5.53445 5.12187 4.78445C3.98187 4.18445 2.82188 3.57445 1.68187 2.96445C1.70507 2.58517 1.8722 2.22905 2.14913 1.96885C2.42606 1.70865 2.79188 1.564 3.17188 1.56445ZM19.5419 13.9345C19.5419 14.3323 19.3838 14.7138 19.1025 14.9951C18.8212 15.2764 18.4397 15.4345 18.0419 15.4345H3.17188C2.77405 15.4345 2.39252 15.2764 2.11121 14.9951C1.82991 14.7138 1.67188 14.3323 1.67188 13.9345V4.09945C4.03187 5.33945 6.38188 6.59945 8.74187 7.84945C9.16352 8.10796 9.61744 8.30971 10.0919 8.44945C10.7863 8.56235 11.4979 8.41646 12.0919 8.03945C13.5419 7.27945 14.9819 6.50945 16.4319 5.74945C17.4719 5.18945 18.5019 4.64945 19.5419 4.09945V13.9345Z" fill="#150035"/>
</svg>
