<svg width="130" height="27" viewBox="0 0 130 27" fill="none" xmlns="http://www.w3.org/2000/svg">
<path d="M11.5938 8.79442C11.6573 7.36675 12.1962 6.4725 13.5925 4.79688C13.9923 7.79503 18.5894 12.9918 17.3902 15.3904L11.5938 8.79442Z" fill="#FE9901"/>
<circle cx="8.99447" cy="17.389" r="8.99447" fill="#FFB324"/>
<path d="M1.39891 7.59521C4.11252 9.2669 5.17261 10.3857 5.59633 11.9925L8.19527 23.9851C7.39576 25.3843 5.84409 25.9253 4.19773 24.9845C2.79859 24.185 0.370936 21.7865 0.199653 18.1887C-0.000176787 13.9913 1.99908 11.7926 1.39891 7.59521Z" fill="#F9D20F"/>
<path d="M8.19494 0C3.59808 3.59779 3.39832 7.19557 5.39666 11.9926L17.9891 16.9895C18.3891 10.1937 7.99551 7.99508 8.19494 0Z" fill="#FFB324"/>
<circle cx="8.99438" cy="17.3894" r="6.59594" fill="black"/>
<path d="M12.7097 15.78C12.8741 15.6156 13.1564 15.6921 13.2124 15.9177C13.5069 17.1022 13.1914 18.4076 12.2652 19.3338C11.2683 20.3307 9.83547 20.6063 8.58324 20.1888L6.65759 22.1144L4.39648 19.8533L6.32664 17.9232C5.91439 16.6715 6.18697 15.2358 7.17736 14.2455C8.10254 13.3205 9.40598 13.0045 10.5898 13.2978C10.8169 13.3543 10.8966 13.6361 10.7312 13.8015L8.87331 15.6593L9.15589 17.3553L10.8518 17.6379L12.7097 15.78Z" fill="white"/>
<path d="M39.5938 8.79442C39.6573 7.36675 40.1962 6.4725 41.5925 4.79688C41.9923 7.79503 46.5894 12.9918 45.3902 15.3904L39.5938 8.79442Z" fill="#FE9901"/>
<circle cx="36.9945" cy="17.389" r="8.99447" fill="#FFB324"/>
<path d="M29.3989 7.59521C32.1125 9.2669 33.1726 10.3857 33.5963 11.9925L36.1953 23.9851C35.3958 25.3843 33.8441 25.9253 32.1977 24.9845C30.7986 24.185 28.3709 21.7865 28.1997 18.1887C27.9998 13.9913 29.9991 11.7926 29.3989 7.59521Z" fill="#F9D20F"/>
<path d="M36.1949 0C31.5981 3.59779 31.3983 7.19557 33.3967 11.9926L45.9891 16.9895C46.3891 10.1937 35.9955 7.99508 36.1949 0Z" fill="#FFB324"/>
<circle cx="36.9944" cy="17.3894" r="6.59594" fill="black"/>
<path d="M40.7097 15.78C40.8741 15.6156 41.1564 15.6921 41.2124 15.9177C41.5069 17.1022 41.1914 18.4076 40.2652 19.3338C39.2683 20.3307 37.8355 20.6063 36.5832 20.1888L34.6576 22.1144L32.3965 19.8533L34.3266 17.9232C33.9144 16.6715 34.187 15.2358 35.1774 14.2455C36.1025 13.3205 37.406 13.0045 38.5898 13.2978C38.8169 13.3543 38.8966 13.6361 38.7312 13.8015L36.8733 15.6593L37.1559 17.3553L38.8518 17.6379L40.7097 15.78Z" fill="white"/>
<path d="M67.5938 8.79442C67.6573 7.36675 68.1962 6.4725 69.5925 4.79688C69.9923 7.79503 74.5894 12.9918 73.3902 15.3904L67.5938 8.79442Z" fill="#FE9901"/>
<circle cx="64.9945" cy="17.389" r="8.99447" fill="#FFB324"/>
<path d="M57.3989 7.59521C60.1125 9.2669 61.1726 10.3857 61.5963 11.9925L64.1953 23.9851C63.3958 25.3843 61.8441 25.9253 60.1977 24.9845C58.7986 24.185 56.3709 21.7865 56.1997 18.1887C55.9998 13.9913 57.9991 11.7926 57.3989 7.59521Z" fill="#F9D20F"/>
<path d="M64.1949 0C59.5981 3.59779 59.3983 7.19557 61.3967 11.9926L73.9891 16.9895C74.3891 10.1937 63.9955 7.99508 64.1949 0Z" fill="#FFB324"/>
<circle cx="64.9944" cy="17.3894" r="6.59594" fill="black"/>
<path d="M68.7097 15.78C68.8741 15.6156 69.1564 15.6921 69.2124 15.9177C69.5069 17.1022 69.1914 18.4076 68.2652 19.3338C67.2683 20.3307 65.8355 20.6063 64.5832 20.1888L62.6576 22.1144L60.3965 19.8533L62.3266 17.9232C61.9144 16.6715 62.187 15.2358 63.1774 14.2455C64.1025 13.3205 65.406 13.0045 66.5898 13.2978C66.8169 13.3543 66.8966 13.6361 66.7312 13.8015L64.8733 15.6593L65.1559 17.3553L66.8518 17.6379L68.7097 15.78Z" fill="white"/>
<path d="M95.5938 8.79442C95.6573 7.36675 96.1962 6.4725 97.5925 4.79688C97.9923 7.79503 102.589 12.9918 101.39 15.3904L95.5938 8.79442Z" fill="#FE9901"/>
<circle cx="92.9945" cy="17.389" r="8.99447" fill="#FFB324"/>
<path d="M85.3989 7.59521C88.1125 9.2669 89.1726 10.3857 89.5963 11.9925L92.1953 23.9851C91.3958 25.3843 89.8441 25.9253 88.1977 24.9845C86.7986 24.185 84.3709 21.7865 84.1997 18.1887C83.9998 13.9913 85.9991 11.7926 85.3989 7.59521Z" fill="#F9D20F"/>
<path d="M92.1949 0C87.5981 3.59779 87.3983 7.19557 89.3967 11.9926L101.989 16.9895C102.389 10.1937 91.9955 7.99508 92.1949 0Z" fill="#FFB324"/>
<circle cx="92.9944" cy="17.3894" r="6.59594" fill="black"/>
<path d="M96.7097 15.78C96.8741 15.6156 97.1564 15.6921 97.2124 15.9177C97.5069 17.1022 97.1914 18.4076 96.2652 19.3338C95.2683 20.3307 93.8355 20.6063 92.5832 20.1888L90.6576 22.1144L88.3965 19.8533L90.3266 17.9232C89.9144 16.6715 90.187 15.2358 91.1774 14.2455C92.1025 13.3205 93.406 13.0045 94.5898 13.2978C94.8169 13.3543 94.8966 13.6361 94.7312 13.8015L92.8733 15.6593L93.1559 17.3553L94.8518 17.6379L96.7097 15.78Z" fill="white"/>
<path d="M123.594 8.79442C123.657 7.36675 124.196 6.4725 125.593 4.79688C125.992 7.79503 130.589 12.9918 129.39 15.3904L123.594 8.79442Z" fill="#FE9901"/>
<circle cx="120.994" cy="17.389" r="8.99447" fill="#FFB324"/>
<path d="M113.399 7.59521C116.113 9.2669 117.173 10.3857 117.596 11.9925L120.195 23.9851C119.396 25.3843 117.844 25.9253 116.198 24.9845C114.799 24.185 112.371 21.7865 112.2 18.1887C112 13.9913 113.999 11.7926 113.399 7.59521Z" fill="#F9D20F"/>
<path d="M120.195 0C115.598 3.59779 115.398 7.19557 117.397 11.9926L129.989 16.9895C130.389 10.1937 119.996 7.99508 120.195 0Z" fill="#FFB324"/>
<circle cx="120.994" cy="17.3894" r="6.59594" fill="black"/>
<path d="M124.71 15.78C124.874 15.6156 125.156 15.6921 125.212 15.9177C125.507 17.1022 125.191 18.4076 124.265 19.3338C123.268 20.3307 121.835 20.6063 120.583 20.1888L118.658 22.1144L116.396 19.8533L118.327 17.9232C117.914 16.6715 118.187 15.2358 119.177 14.2455C120.103 13.3205 121.406 13.0045 122.59 13.2978C122.817 13.3543 122.897 13.6361 122.731 13.8015L120.873 15.6593L121.156 17.3553L122.852 17.6379L124.71 15.78Z" fill="white"/>
</svg>
