<svg width="74" height="35" viewBox="0 0 74 35" fill="none" xmlns="http://www.w3.org/2000/svg">
<g clip-path="url(#clip0_577_34375)">
<path fill-rule="evenodd" clip-rule="evenodd" d="M67.0336 9.91926C66.6134 10.544 67.0336 10.4089 66.4286 10.8394C66.3159 10.8943 66.1925 10.9231 66.0673 10.9238C65.4794 11.053 64.8846 11.1488 64.286 11.2109C63.6978 11.2109 63.118 11.2109 62.5299 11.2109C55.9669 11.1063 49.4074 11.5808 42.9271 12.6291C36.4893 13.6385 30.1974 15.43 24.1897 17.9644C18.853 20.2829 13.8417 23.2942 9.2839 26.9212C6.1678 29.3371 3.26647 32.0205 0.612626 34.941C0.60009 34.954 0.585076 34.9643 0.568476 34.9714C0.551876 34.9785 0.53403 34.9821 0.516 34.9821C0.497969 34.9821 0.480123 34.9785 0.463523 34.9714C0.446923 34.9643 0.431907 34.954 0.419371 34.941C0.394569 34.9131 0.38086 34.877 0.38086 34.8397C0.38086 34.8023 0.394569 34.7662 0.419371 34.7384C3.12115 30.4939 6.36398 26.6229 10.0653 23.2237C15.8182 18.1649 22.4963 14.2797 29.7269 11.7849C34.0409 10.2487 38.4966 9.14864 43.0279 8.50102C49.7825 7.57752 56.6158 7.37943 63.4121 7.91009C63.713 7.91828 64.0132 7.94364 64.3112 7.98607C65.0229 8.09975 65.7193 8.2952 66.3866 8.56856C66.4655 8.59125 66.5396 8.62846 66.605 8.6783C67.1008 9.21858 66.7479 8.99065 67.0504 9.65756C67.0699 9.65858 67.089 9.66362 67.1066 9.67237C67.1241 9.68112 67.1396 9.6934 67.1522 9.70844C67.1649 9.72348 67.1742 9.74096 67.1799 9.7598C67.1855 9.77864 67.1871 9.79843 67.1848 9.81795C67.1752 9.84986 67.1549 9.87741 67.1273 9.8959C67.0997 9.91438 67.0666 9.92264 67.0336 9.91926Z" fill="#FCCA09"/>
<path fill-rule="evenodd" clip-rule="evenodd" d="M66.7572 10.1806C63.1441 8.83833 59.4135 7.73245 55.6996 6.60968C51.9857 5.48691 48.1375 4.28816 44.2892 3.368C44.1463 3.29202 43.9867 3.27514 43.8774 3.1654C43.1716 2.48161 43.4993 2.44784 43.0372 1.57832C42.9939 1.5701 42.9556 1.54515 42.9305 1.50885C42.9053 1.47254 42.8954 1.42777 42.9028 1.38416C42.9109 1.3407 42.9358 1.30221 42.9719 1.27695C43.0081 1.25169 43.0526 1.24169 43.096 1.24909C43.8186 0.590625 43.5077 0.404904 44.3984 0.0419034C44.5631 -0.0151663 44.7369 -0.0409311 44.9109 -0.0340736C46.8435 0.193857 48.7676 0.421788 50.7002 0.751021C53.5822 1.24065 56.4558 1.84846 59.2874 2.60823C62.4467 3.45242 65.5388 4.5161 68.5805 5.63042C69.4207 5.94277 71.1516 5.92589 71.8322 6.33954C72.8069 6.93891 73.5127 7.72401 73.3278 8.62729C73.227 9.10847 73.4539 9.69941 72.8573 10.1299C72.4876 10.2735 72.4372 10.5605 71.5969 10.8306C71.3915 10.9397 71.1997 11.0729 71.0256 11.2274C69.3451 12.2995 65.7069 14.1314 61.6401 16.0561C58.4808 17.5503 55.1282 19.1881 52.2294 20.4206C49.3306 21.6531 46.8099 22.5564 45.8016 22.9531C45.7591 22.9749 45.7128 22.9881 45.6653 22.9918C45.6178 22.9955 45.57 22.9898 45.5247 22.9749C45.4794 22.96 45.4375 22.9362 45.4014 22.9049C45.3652 22.8737 45.3356 22.8356 45.3143 22.7927C45.2701 22.7054 45.2621 22.604 45.292 22.5107C45.3219 22.4174 45.3873 22.3397 45.4739 22.2947C46.3982 21.7375 48.5912 20.3362 51.406 18.7322C55.7416 16.2672 61.4889 13.2956 65.4212 10.9235C65.9169 10.6787 66.337 10.4254 66.7572 10.1806ZM69.1518 10.265C69.5636 10.265 69.8408 10.4001 69.7736 10.704C69.7064 11.0079 69.3955 10.628 69.1602 10.265L69.1518 10.265ZM68.7569 8.93964C68.7772 8.77989 68.7772 8.6182 68.7569 8.45845C68.7569 8.3065 69.051 8.31494 69.0258 8.11233C69.0006 7.90973 69.2191 7.97726 69.3283 7.9435C69.4375 7.90973 69.5636 8.11233 69.4963 8.23052C69.3031 8.5143 69.0544 8.75557 68.7653 8.93964L68.7569 8.93964Z" fill="#FCCA09"/>
</g>
<defs>
<clipPath id="clip0_577_34375">
<rect width="35" height="73" fill="white" transform="matrix(1.19249e-08 1 1 -1.19249e-08 0.369141 0)"/>
</clipPath>
</defs>
</svg>
