<svg width="20" height="25" viewBox="0 0 20 25" fill="none" xmlns="http://www.w3.org/2000/svg">
<path d="M14.541 12.0438L12.06 5.78385L9.968 9.44385L7.876 5.78385L5.395 12.0458H4.678V12.9868H8.414V12.0458H7.861L8.399 10.4908L9.968 13.0608L11.537 10.4908L12.075 12.0458H11.522V12.9868H15.273V12.0458L14.541 12.0438ZM19.876 10.1318C19.8767 8.82659 19.6201 7.53399 19.1209 6.32796C18.6217 5.12193 17.8897 4.02612 16.9667 3.10316C16.0437 2.1802 14.9479 1.44819 13.7419 0.948996C12.5359 0.449797 11.2433 0.193192 9.938 0.193849C4.454 0.193849 0 4.64685 0 10.1318C0 12.8818 1.121 15.3618 2.914 17.1549C3.02628 17.2681 3.16971 17.3454 3.32604 17.377C3.48238 17.4085 3.64456 17.3928 3.79197 17.3319C3.93937 17.271 4.06534 17.1677 4.15384 17.035C4.24235 16.9023 4.28939 16.7463 4.289 16.5868C4.28934 16.3689 4.20342 16.1597 4.05 16.0048C2.49678 14.4453 1.62634 12.3329 1.63 10.1318C1.63 5.54385 5.35 1.80785 9.938 1.80785C14.526 1.80785 18.262 5.54385 18.262 10.1318C18.2645 11.2255 18.0505 12.3087 17.6324 13.3193C17.2143 14.3298 16.6004 15.2476 15.826 16.0198L8.802 23.0429L9.938 24.1938L16.977 17.1549C17.8993 16.2331 18.6302 15.1381 19.1277 13.9328C19.6253 12.7275 19.8796 11.4358 19.876 10.1318Z" fill="#150035"/>
</svg>
