<svg width="185" height="74" viewBox="0 0 185 74" fill="none" xmlns="http://www.w3.org/2000/svg">
<g filter="url(#filter0_dddd_577_30076)">
<g clip-path="url(#clip0_577_30076)">
<path d="M3 43L3 18C3 9.71572 9.71573 2.99998 18 2.99998L145 2.99998C153.284 2.99998 160 9.71571 160 18L160 43L3 43Z" fill="#FE4A49"/>
<path d="M40.012 22.176L40.012 18.312L42.252 18.312L42.252 28L40.012 28L40.012 24.164L31.416 24.164L31.416 28L29.19 28L29.19 18.312L31.416 18.312L31.416 22.176L40.012 22.176ZM53.5859 18.228C54.4259 18.228 55.1772 18.34 55.8399 18.564C56.5025 18.788 57.0625 19.1147 57.5199 19.544C57.9772 19.964 58.3225 20.4773 58.5559 21.084C58.7985 21.6907 58.9199 22.3767 58.9199 23.142L58.9199 23.156C58.9199 23.9213 58.7985 24.612 58.5559 25.228C58.3225 25.8347 57.9772 26.3527 57.5199 26.782C57.0625 27.202 56.5025 27.524 55.8399 27.748C55.1772 27.972 54.4259 28.084 53.5859 28.084L49.3719 28.084C48.5319 28.084 47.7805 27.972 47.1179 27.748C46.4552 27.524 45.8952 27.202 45.4379 26.782C44.9805 26.3527 44.6305 25.8347 44.3879 25.228C44.1545 24.612 44.0379 23.9213 44.0379 23.156L44.0379 23.142C44.0379 22.3767 44.1545 21.6907 44.3879 21.084C44.6305 20.4773 44.9805 19.964 45.4379 19.544C45.8952 19.1147 46.4552 18.788 47.1179 18.564C47.7805 18.34 48.5319 18.228 49.3719 18.228L53.5859 18.228ZM53.5859 26.082C54.6312 26.082 55.4152 25.8253 55.9379 25.312C56.4699 24.7893 56.7359 24.0707 56.7359 23.156L56.7359 23.142C56.7359 22.2367 56.4699 21.5273 55.9379 21.014C55.4152 20.4913 54.6312 20.23 53.5859 20.23L49.3719 20.23C48.3265 20.23 47.5379 20.4913 47.0059 21.014C46.4832 21.5273 46.2219 22.2367 46.2219 23.142L46.2219 23.156C46.2219 24.0707 46.4832 24.7893 47.0059 25.312C47.5379 25.8253 48.3265 26.082 49.3719 26.082L53.5859 26.082ZM69.383 18.312C70.5963 18.312 71.511 18.5267 72.127 18.956C72.7523 19.376 73.065 20.034 73.065 20.93C73.065 21.602 72.911 22.1013 72.603 22.428C72.3044 22.7547 71.889 22.9787 71.357 23.1C71.6744 23.1467 71.9637 23.2213 72.225 23.324C72.4864 23.4267 72.7104 23.5667 72.897 23.744C73.0837 23.9213 73.2284 24.1453 73.331 24.416C73.4337 24.6773 73.485 24.99 73.485 25.354C73.485 25.8113 73.3964 26.208 73.219 26.544C73.051 26.8707 72.8037 27.146 72.477 27.37C72.1597 27.5847 71.7724 27.7433 71.315 27.846C70.867 27.9487 70.363 28 69.803 28L60.731 28L60.731 18.312L69.383 18.312ZM69.803 26.208C70.2977 26.208 70.6757 26.124 70.937 25.956C71.1984 25.788 71.329 25.4987 71.329 25.088C71.329 24.724 71.2077 24.444 70.965 24.248C70.7224 24.052 70.335 23.954 69.803 23.954L62.901 23.954L62.901 26.208L69.803 26.208ZM62.901 22.274L69.425 22.274C69.8824 22.274 70.2417 22.1993 70.503 22.05C70.7737 21.9007 70.909 21.6207 70.909 21.21C70.909 20.8087 70.7737 20.524 70.503 20.356C70.2323 20.188 69.859 20.104 69.383 20.104L62.901 20.104L62.901 22.274ZM86.2112 18.312L88.2972 18.312L88.2972 28L86.0852 28L86.0852 21.322L77.3772 28L75.3052 28L75.3052 18.312L77.5032 18.312L77.5032 25.004L86.2112 18.312ZM101.494 22.176L101.494 18.312L103.734 18.312L103.734 28L101.494 28L101.494 24.164L92.8984 24.164L92.8984 28L90.6724 28L90.6724 18.312L92.8984 18.312L92.8984 22.176L101.494 22.176ZM116.412 18.312L118.904 18.312L115.53 23.282L118.904 28L116.398 28L113.738 24.22L108.32 24.22L108.32 28L106.094 28L106.094 18.312L108.32 18.312L108.32 22.246L113.78 22.246L116.412 18.312ZM134.322 28L131.914 28L130.696 26.026L123.304 26.026L122.086 28L119.678 28L125.894 18.312L128.106 18.312L134.322 28ZM127 20.244L124.424 24.206L129.562 24.206L127 20.244Z" fill="white"/>
</g>
</g>
<defs>
<filter id="filter0_dddd_577_30076" x="0" y="0" width="185" height="74" filterUnits="userSpaceOnUse" color-interpolation-filters="sRGB">
<feFlood flood-opacity="0" result="BackgroundImageFix"/>
<feColorMatrix in="SourceAlpha" type="matrix" values="0 0 0 0 0 0 0 0 0 0 0 0 0 0 0 0 0 0 127 0" result="hardAlpha"/>
<feOffset dx="1" dy="1"/>
<feGaussianBlur stdDeviation="2"/>
<feColorMatrix type="matrix" values="0 0 0 0 0 0 0 0 0 0 0 0 0 0 0 0 0 0 0.1 0"/>
<feBlend mode="normal" in2="BackgroundImageFix" result="effect1_dropShadow_577_30076"/>
<feColorMatrix in="SourceAlpha" type="matrix" values="0 0 0 0 0 0 0 0 0 0 0 0 0 0 0 0 0 0 127 0" result="hardAlpha"/>
<feOffset dx="4" dy="5"/>
<feGaussianBlur stdDeviation="3"/>
<feColorMatrix type="matrix" values="0 0 0 0 0 0 0 0 0 0 0 0 0 0 0 0 0 0 0.09 0"/>
<feBlend mode="normal" in2="effect1_dropShadow_577_30076" result="effect2_dropShadow_577_30076"/>
<feColorMatrix in="SourceAlpha" type="matrix" values="0 0 0 0 0 0 0 0 0 0 0 0 0 0 0 0 0 0 127 0" result="hardAlpha"/>
<feOffset dx="9" dy="12"/>
<feGaussianBlur stdDeviation="4.5"/>
<feColorMatrix type="matrix" values="0 0 0 0 0 0 0 0 0 0 0 0 0 0 0 0 0 0 0.05 0"/>
<feBlend mode="normal" in2="effect2_dropShadow_577_30076" result="effect3_dropShadow_577_30076"/>
<feColorMatrix in="SourceAlpha" type="matrix" values="0 0 0 0 0 0 0 0 0 0 0 0 0 0 0 0 0 0 127 0" result="hardAlpha"/>
<feOffset dx="15" dy="21"/>
<feGaussianBlur stdDeviation="5"/>
<feColorMatrix type="matrix" values="0 0 0 0 0 0 0 0 0 0 0 0 0 0 0 0 0 0 0.01 0"/>
<feBlend mode="normal" in2="effect3_dropShadow_577_30076" result="effect4_dropShadow_577_30076"/>
<feBlend mode="normal" in="SourceGraphic" in2="effect4_dropShadow_577_30076" result="shape"/>
</filter>
<clipPath id="clip0_577_30076">
<path d="M3 43L3 18C3 9.71572 9.71573 2.99998 18 2.99998L145 2.99998C153.284 2.99998 160 9.71571 160 18L160 43L3 43Z" fill="white"/>
</clipPath>
</defs>
</svg>
