<svg width="21" height="21" viewBox="0 0 21 21" fill="none" xmlns="http://www.w3.org/2000/svg">
<path d="M20.5714 10.3837C20.5714 13.1323 19.4878 15.7683 17.5588 17.7119C15.6299 19.6554 13.0137 20.7473 10.2857 20.7473C7.55777 20.7473 4.94156 19.6554 3.01262 17.7119C1.08367 15.7683 0 13.1323 0 10.3837C0 7.63505 1.08367 4.99902 3.01262 3.05546C4.94156 1.1119 7.55777 0.0200195 10.2857 0.0200195C13.0137 0.0200195 15.6299 1.1119 17.5588 3.05546C19.4878 4.99902 20.5714 7.63505 20.5714 10.3837ZM15.6663 6.11384C15.5601 6.0066 15.434 5.92152 15.2952 5.86347C15.1563 5.80542 15.0075 5.77554 14.8571 5.77554C14.7068 5.77554 14.558 5.80542 14.4191 5.86347C14.2803 5.92152 14.1542 6.0066 14.048 6.11384L8 12.21L6.52343 10.7199C6.30883 10.5037 6.01778 10.3822 5.71429 10.3822C5.4108 10.3822 5.11974 10.5037 4.90514 10.7199C4.69055 10.9361 4.56999 11.2294 4.56999 11.5352C4.56999 11.841 4.69055 12.1342 4.90514 12.3504L7.19086 14.6535C7.29702 14.7607 7.42314 14.8458 7.56198 14.9038C7.70083 14.9619 7.84968 14.9918 8 14.9918C8.15033 14.9918 8.29917 14.9619 8.43802 14.9038C8.57687 14.8458 8.70298 14.7607 8.80914 14.6535L15.6663 7.74438C15.7727 7.63742 15.8572 7.51035 15.9148 7.37045C15.9724 7.23055 16.002 7.08058 16.002 6.92911C16.002 6.77765 15.9724 6.62767 15.9148 6.48777C15.8572 6.34788 15.7727 6.2208 15.6663 6.11384Z" fill="#150035"/>
</svg>
