<svg width="85" height="124" viewBox="0 0 85 124" fill="none" xmlns="http://www.w3.org/2000/svg">
<path d="M54.5996 41.0417C54.8961 34.3793 57.411 30.2061 63.9272 22.3865C65.7928 36.3779 87.2463 60.6298 81.6497 71.8229L54.5996 41.0417Z" fill="#FE9901"/>
<circle cx="42.4743" cy="81.1501" r="41.9743" fill="#FFB324"/>
<path d="M7.02764 35.4451C19.6912 43.2463 24.6383 48.4676 26.6157 55.9659L38.7441 111.932C35.013 118.461 27.7719 120.986 20.0888 116.595C13.5595 112.864 2.23039 101.671 1.43106 84.8815C0.49852 65.2935 9.82842 55.0331 7.02764 35.4451Z" fill="#F9D20F"/>
<path d="M38.7418 0C17.2897 16.7897 16.3575 33.5795 25.6831 55.9658L84.4481 79.2849C86.3148 47.5709 37.8112 37.3105 38.7418 0Z" fill="#FFB324"/>
<circle cx="42.4745" cy="81.1503" r="30.7812" fill="black"/>
<path d="M59.8166 73.6404C60.5838 72.8732 61.9013 73.23 62.1625 74.2829C63.5372 79.8106 62.0646 85.9027 57.7424 90.2249C53.0902 94.8771 46.4035 96.1631 40.5598 94.2148L31.5733 103.201L21.0215 92.6494L30.0289 83.642C28.1051 77.8005 29.3771 71.101 33.999 66.4791C38.3165 62.1628 44.3992 60.6879 49.9235 62.0567C50.9834 62.3202 51.3553 63.6354 50.5834 64.4072L41.9134 73.0773L43.2321 80.9917L51.1466 82.3104L59.8166 73.6404Z" fill="white"/>
</svg>
