<svg width="12" height="18" viewBox="0 0 12 18" fill="none" xmlns="http://www.w3.org/2000/svg">
<path d="M6.67372 17.43L6.73589 17.4506L6.80125 17.4544C7.56745 17.4996 8.33525 17.4195 9.0749 17.2172C9.34457 17.1708 9.60112 17.067 9.82741 16.9127C10.0574 16.7558 10.2503 16.5508 10.3933 16.3119L10.6723 15.9003C10.7821 15.7891 10.8687 15.6571 10.927 15.5119L10.4631 15.3254L10.927 15.5119C10.994 15.3453 11.0221 15.1656 11.0095 14.9867C10.9969 14.8078 10.944 14.634 10.8546 14.4784C10.769 14.3292 10.6519 14.2004 10.5115 14.1011C9.87347 13.5899 9.26012 13.0481 8.6736 12.4775L8.67611 12.4743L8.36551 12.1627C8.16898 11.9655 7.90584 11.8481 7.62702 11.8351C7.37717 11.8235 7.13195 11.8965 6.93 12.0409L6.36942 12.2759L6.31282 12.2996L6.26363 12.3364C6.2073 12.3784 6.13697 12.3962 6.06738 12.3859C5.99967 12.3759 5.9367 12.3398 5.8924 12.2835C5.34728 11.4994 4.93968 10.627 4.68762 9.70453C4.45469 8.77275 4.38112 7.80857 4.47004 6.85368C4.4809 6.77988 4.51863 6.71439 4.57418 6.66935C4.6311 6.6232 4.70327 6.60125 4.77604 6.6078L4.8312 6.61276L4.88612 6.60553L5.48717 6.52642C5.73688 6.5507 5.98829 6.48953 6.19984 6.35124C6.43345 6.19852 6.60023 5.96374 6.66904 5.69433C6.87719 4.9579 7.09752 4.30687 7.37472 3.48778C7.43441 3.31143 7.49673 3.12728 7.56213 2.93281C7.63088 2.7854 7.66877 2.62531 7.67344 2.46246C7.67852 2.28575 7.6444 2.11006 7.57362 1.94811C7.50284 1.78617 7.39707 1.64174 7.2637 1.52549C7.14292 1.42021 7.0022 1.34041 6.84998 1.29099L6.39174 1.07094C6.1492 0.935461 5.87988 0.855051 5.60277 0.835888C5.32993 0.817022 5.05654 0.858006 4.80149 0.955974C4.06105 1.15804 3.35794 1.47831 2.71881 1.90463L2.6651 1.94046L2.62225 1.98875C1.97264 2.72093 1.49118 3.58838 1.21143 4.52974C0.934367 5.46206 0.8618 6.44454 0.998337 7.4093C1.0725 9.55096 1.62223 11.6509 2.60697 13.5543C2.95757 14.457 3.50122 15.2719 4.1995 15.9404C4.90467 16.6155 5.74988 17.1246 6.67372 17.43Z" stroke="#150035"/>
</svg>
