<svg width="6" height="12" viewBox="0 0 6 12" fill="none" xmlns="http://www.w3.org/2000/svg">
<path fill-rule="evenodd" clip-rule="evenodd" d="M3.73516 8.4997C4.08059 9.09655 4.45986 9.67316 4.87114 10.2267C4.91866 10.2812 4.9531 10.3458 4.97182 10.4156C4.99054 10.4854 4.99304 10.5585 4.97914 10.6295C4.96525 10.7004 4.93533 10.7672 4.89165 10.8248C4.84797 10.8824 4.79171 10.9292 4.72716 10.9617L4.42714 11.2187C4.32179 11.3216 4.19499 11.4 4.05583 11.4482C3.91668 11.4964 3.76859 11.5133 3.62215 11.4977C3.11582 11.5022 2.61217 11.4239 2.13115 11.2657C1.6038 10.9229 1.15958 10.4666 0.830889 9.93036C0.502196 9.39407 0.297319 8.79121 0.231158 8.1657C-0.0852722 6.74886 -0.0767312 5.27876 0.256151 3.86569C0.330923 3.23618 0.542846 2.63072 0.877001 2.092C1.21116 1.55327 1.6594 1.09439 2.19014 0.747697C2.6714 0.586399 3.17559 0.503998 3.68315 0.503694C3.82837 0.486047 3.97569 0.501344 4.11418 0.548433C4.25268 0.595521 4.37878 0.673195 4.48314 0.775697L4.78316 1.0307C4.84502 1.06686 4.89802 1.11638 4.93828 1.17565C4.97855 1.23491 5.00506 1.30242 5.01589 1.37325C5.02672 1.44407 5.02159 1.51643 5.00087 1.58502C4.98016 1.65361 4.94436 1.71671 4.89614 1.7697C4.44214 2.4467 4.10815 2.9287 3.76415 3.5007C3.71135 3.59566 3.62456 3.66711 3.52123 3.70068C3.4179 3.73426 3.30567 3.72748 3.20714 3.6817L2.73915 3.6207C2.60514 3.57204 2.4575 3.57701 2.32707 3.63458C2.19664 3.69216 2.09349 3.79788 2.03914 3.92969C1.7894 4.59496 1.6558 5.29819 1.64415 6.0087C1.64724 6.717 1.77312 7.4194 2.01616 8.0847C2.06974 8.21688 2.17334 8.32256 2.30443 8.37874C2.43552 8.43492 2.58348 8.43705 2.71614 8.38469L3.18416 8.3217C3.28184 8.27648 3.39287 8.26936 3.49553 8.30173C3.59819 8.3341 3.68508 8.40362 3.73915 8.49669L3.73516 8.4997Z" fill="white"/>
</svg>
