<svg width="31" height="30" viewBox="0 0 31 30" fill="none" xmlns="http://www.w3.org/2000/svg">
<path d="M15.8993 0.962195C15.9484 0.662212 16.1145 0.393973 16.3612 0.216342C16.6079 0.0387107 16.915 -0.0338011 17.215 0.0147191C17.2548 0.02236 17.3786 0.0452828 17.4443 0.0605646C17.5742 0.0896002 17.756 0.133918 17.9822 0.19963C18.4361 0.332582 19.0703 0.551113 19.8313 0.898011C21.3534 1.59639 23.3782 2.81741 25.481 4.9202C27.5838 7.02298 28.8048 9.04783 29.5032 10.5714C29.8516 11.3309 30.0686 11.9651 30.2016 12.419C30.2687 12.6483 30.3263 12.8803 30.3743 13.1143L30.3819 13.1602C30.4327 13.463 30.3622 13.7737 30.1858 14.0251C30.0093 14.2764 29.7411 14.4483 29.439 14.5035C29.1398 14.552 28.8335 14.4801 28.5872 14.3034C28.3409 14.1267 28.1746 13.8596 28.1248 13.5606C28.0897 13.3924 28.0479 13.2257 27.9994 13.0608C27.8433 12.536 27.6492 12.0232 27.4187 11.5265C26.8227 10.2276 25.753 8.43197 23.8611 6.5416C21.9692 4.64971 20.1751 3.57692 18.8746 2.98093C18.3785 2.75051 17.8662 2.55643 17.3419 2.40022C17.1811 2.35486 17.019 2.3141 16.8559 2.27796C16.556 2.22798 16.2878 2.06225 16.1089 1.81646C15.9299 1.57067 15.8547 1.26445 15.8993 0.963723V0.962195Z" fill="#150035"/>
<path fill-rule="evenodd" clip-rule="evenodd" d="M16.2442 6.23476C16.3277 5.94257 16.5239 5.69552 16.7896 5.54794C17.0552 5.40035 17.3686 5.36431 17.6608 5.44774H17.6654L17.67 5.45079L17.6822 5.45385L17.7128 5.46302C17.7357 5.47066 17.7647 5.47983 17.7984 5.49358C17.8898 5.52529 17.9801 5.56047 18.0689 5.59903C18.292 5.69378 18.5961 5.84201 18.9705 6.06207C19.7193 6.50524 20.7386 7.2403 21.9382 8.43993C23.1378 9.63955 23.8729 10.6604 24.3161 11.4092C24.5377 11.7821 24.6844 12.0862 24.7806 12.3108C24.8304 12.4276 24.8753 12.5464 24.9151 12.6669L24.9258 12.6975L24.9289 12.7082V12.7127L24.9304 12.7158C25.0118 13.0061 24.9756 13.3183 24.8295 13.5821C24.6835 13.8458 24.4393 14.0414 24.1501 14.1264C23.8608 14.2115 23.5497 14.1791 23.2842 14.0363C23.0186 13.8936 22.82 13.6519 22.7313 13.3637L22.7268 13.3469C22.6193 13.0808 22.4916 12.8233 22.3447 12.5767C22.0024 12.0006 21.3865 11.1311 20.3183 10.0613C19.2486 8.9916 18.3775 8.37574 17.8029 8.03496C17.5564 7.88805 17.2989 7.76032 17.0327 7.65291L17.0159 7.6468C16.7276 7.56 16.485 7.36321 16.3406 7.09898C16.1962 6.83475 16.1616 6.52431 16.2442 6.23476ZM3.2867 4.82424C5.85406 2.25689 10.188 2.45249 11.976 5.65557L12.9678 7.43285C14.1338 9.52494 13.6371 12.1641 11.9286 13.894C11.8279 14.0466 11.7728 14.2247 11.7697 14.4075C11.7498 14.7987 11.8889 15.7049 13.2933 17.1078C14.6961 18.5107 15.6008 18.6513 15.9936 18.6314C16.1767 18.629 16.3554 18.5744 16.5086 18.474C18.237 16.764 20.8777 16.2673 22.9682 17.4348L24.7455 18.4266C27.9486 20.2146 28.1442 24.547 25.5768 27.1144C24.203 28.4867 22.3783 29.7077 20.2312 29.7887C17.0526 29.9094 11.7712 29.0888 6.54174 23.8593C1.31382 18.6299 0.491651 13.35 0.612378 10.1698C0.693372 8.02426 1.91439 6.19655 3.2867 4.82424ZM9.97405 6.77268C9.05714 5.13293 6.59676 4.75547 4.90811 6.44564C3.72377 7.62999 2.95203 8.93659 2.90313 10.2569C2.80227 12.9083 3.45786 17.5311 8.16315 22.2379C12.87 26.9447 17.4927 27.5988 20.1441 27.4979C21.463 27.449 22.7726 26.6773 23.9554 25.493C25.6456 23.8028 25.2697 21.3439 23.6284 20.4286L21.8511 19.4352C20.7462 18.8194 19.1921 19.0303 18.1025 20.1199C17.9955 20.2268 17.3139 20.8626 16.1051 20.9206C14.8673 20.9818 13.3681 20.4255 11.6734 18.7292C9.97558 17.0329 9.41932 15.5338 9.48044 14.2944C9.53852 13.0856 10.1758 12.404 10.2812 12.2986C11.3723 11.2075 11.5817 9.65484 10.9658 8.54996L9.97252 6.77268H9.97405Z" fill="#150035"/>
</svg>
