<svg width="223" height="56" viewBox="0 0 223 56" fill="none" xmlns="http://www.w3.org/2000/svg">
<path d="M222.334 41.9005C222.334 45.6345 220.815 49.0214 218.358 51.4767C215.906 53.9271 212.52 55.4436 208.787 55.4436H13.5442C9.81021 55.4436 6.42712 53.9271 3.97545 51.4767H3.96675C1.51627 49.0262 0 45.6393 0 41.9005V13.5465C0 9.81135 1.51627 6.428 3.96675 3.97633L3.97545 3.96806C6.42594 1.51757 9.81021 0 13.5442 0H208.787C212.522 0 215.906 1.51639 218.358 3.96806H218.365C220.817 6.41854 222.333 9.80659 222.333 13.5465L222.334 41.9005ZM218.203 41.9005V13.5465C218.203 10.9463 217.149 8.59213 215.446 6.88915H215.454C213.751 5.18618 211.394 4.13198 208.788 4.13198H13.5453C10.9451 4.13198 8.5908 5.18252 6.88901 6.88074C6.88663 6.88312 6.88445 6.88559 6.88088 6.88915L6.88901 6.88074C6.88663 6.88312 6.88445 6.88559 6.88088 6.88915C5.18266 8.59094 4.13329 10.9451 4.13329 13.5465V41.9005C4.13329 44.4996 5.18722 46.8539 6.88901 48.5569H6.88088C8.58386 50.2598 10.9415 51.3127 13.5453 51.3127H208.788C211.394 51.3127 213.751 50.2598 215.454 48.5569C217.153 46.8586 218.203 44.5055 218.203 41.9005Z" fill="#005574"/>
<path fill-rule="evenodd" clip-rule="evenodd" d="M58.0927 10.9121H47.5613L38.18 38.1537L33.8698 30.7107C33.8698 30.7107 39.5573 30.5004 39.7677 21.6539C40.0291 10.6553 28.8167 10.6113 28.8167 10.6113H9.86035V42.7183H19.9705V31.1339H22.497L30.5007 42.7183H45.2449L46.8818 38.2952H58.1966L59.5666 42.7183H69.8891L58.0927 10.9121ZM20.1794 17.7703H27.5535C29.5916 17.8357 31.1769 19.7477 30.9225 21.7739C30.7086 23.4698 29.4653 24.6559 27.7635 24.814H20.1805L20.1794 17.7703ZM49.4518 31.3418L53.0362 21.6528L56.0391 31.3418H49.4518Z" fill="#D5364A"/>
<path fill-rule="evenodd" clip-rule="evenodd" d="M79.3644 18.7032L85.0516 18.7056V10.9121H62.7256V18.7056L69.8879 18.7032V42.7172H79.3644V18.7032Z" fill="#D5364A"/>
<path fill-rule="evenodd" clip-rule="evenodd" d="M135.526 27.7009C135.526 27.6973 135.526 27.6913 135.526 27.6854C135.526 16.701 126.623 7.79883 115.64 7.79883C111.512 7.79883 107.687 9.06793 104.509 11.2201L112.782 22.3067C113.52 21.9121 114.473 21.5973 115.638 21.5973C117.832 21.5973 119.276 22.7132 119.944 23.3799C120.61 24.0478 121.727 25.4904 121.727 27.6854C121.727 27.6913 121.727 27.6973 121.727 27.7009H116.825L128.298 43.0764L139.773 27.7009H135.526Z" fill="#D5364A"/>
<path fill-rule="evenodd" clip-rule="evenodd" d="M118.437 33.0863C117.599 33.5213 116.649 33.7709 115.64 33.7709C113.446 33.7709 112.001 32.655 111.335 31.9883C110.672 31.3252 109.559 29.8848 109.553 27.7005H114.48L103.006 12.3262L91.5322 27.7005H95.7549C95.7644 38.6766 104.663 47.5705 115.64 47.5705C119.746 47.5705 123.56 46.3215 126.727 44.1907L118.437 33.0863Z" fill="#005574"/>
<path fill-rule="evenodd" clip-rule="evenodd" d="M91.9442 29.5747H87.7227L95.7647 18.7983L95.7624 18.2897V10.9121H86.1055V42.7172H95.7931V29.5747H91.9442Z" fill="#D5364A"/>
<path fill-rule="evenodd" clip-rule="evenodd" d="M203.066 34.926L203.063 10.9121H194.112V37.1364L184.213 10.9121H173.683L164.412 37.8233V10.9121H155.358V29.4463L144.403 10.9121L135.47 10.9252V25.8312H143.529L142.374 27.3845L142.394 27.3928L135.479 36.6612V40.9928L135.459 42.4047L135.477 42.7195H144.402V26.713L154.932 42.7195H171.363L172.997 38.2964H184.478L185.895 42.7195H214.54V34.926H203.066ZM175.569 31.3418L179.155 21.6528L182.255 31.3418H175.569Z" fill="#D5364A"/>
</svg>
