<svg width="24" height="25" viewBox="0 0 24 25" fill="none" xmlns="http://www.w3.org/2000/svg">
<path d="M24 12.1938C24 15.3764 22.7357 18.4287 20.4853 20.6791C18.2348 22.9296 15.1826 24.1938 12 24.1938C8.8174 24.1938 5.76516 22.9296 3.51472 20.6791C1.26428 18.4287 0 15.3764 0 12.1938C0 9.01125 1.26428 5.959 3.51472 3.70857C5.76516 1.45813 8.8174 0.193848 12 0.193848C15.1826 0.193848 18.2348 1.45813 20.4853 3.70857C22.7357 5.959 24 9.01125 24 12.1938ZM12 6.19385C11.8104 6.19396 11.6229 6.23377 11.4497 6.31074C11.2764 6.38771 11.1212 6.50011 10.994 6.64072C10.8668 6.78132 10.7705 6.947 10.7113 7.1271C10.652 7.30719 10.6311 7.4977 10.65 7.68635L11.175 12.9468C11.1926 13.1535 11.2872 13.346 11.44 13.4863C11.5927 13.6266 11.7926 13.7044 12 13.7044C12.2074 13.7044 12.4073 13.6266 12.56 13.4863C12.7128 13.346 12.8074 13.1535 12.825 12.9468L13.35 7.68635C13.3689 7.4977 13.348 7.30719 13.2887 7.1271C13.2295 6.947 13.1332 6.78132 13.006 6.64072C12.8788 6.50011 12.7236 6.38771 12.5503 6.31074C12.3771 6.23377 12.1896 6.19396 12 6.19385ZM12.003 15.1938C11.6052 15.1938 11.2236 15.3519 10.9423 15.6332C10.661 15.9145 10.503 16.296 10.503 16.6938C10.503 17.0917 10.661 17.4732 10.9423 17.7545C11.2236 18.0358 11.6052 18.1938 12.003 18.1938C12.4008 18.1938 12.7824 18.0358 13.0637 17.7545C13.345 17.4732 13.503 17.0917 13.503 16.6938C13.503 16.296 13.345 15.9145 13.0637 15.6332C12.7824 15.3519 12.4008 15.1938 12.003 15.1938Z" fill="#FE4A49"/>
</svg>
