<svg width="122" height="121" viewBox="0 0 122 121" fill="none" xmlns="http://www.w3.org/2000/svg">
<path d="M60.75 0L69.9412 5.4201L80.3943 3.27806L87.3276 11.3889L97.9099 12.757L101.834 22.6796L111.399 27.4096L111.888 38.0687L119.399 45.6481L116.401 55.8886L121.043 65.496L114.883 74.2083L116.154 84.8026L107.499 91.0424L105.261 101.476L95.0486 104.567L89.5448 113.708L78.8817 113.316L70.708 120.175L60.75 116.341L50.792 120.175L42.6183 113.316L31.9552 113.708L26.4514 104.567L16.2387 101.476L14.0014 91.0424L5.34571 84.8026L6.61724 74.2083L0.456638 65.496L5.09923 55.8886L2.10128 45.6481L9.61184 38.0687L10.1014 27.4096L19.6661 22.6796L23.5901 12.757L34.1724 11.3889L41.1057 3.27806L51.5588 5.4201L60.75 0Z" fill="url(#paint0_linear_577_34234)"/>
<path d="M60.504 6.56931L60.25 6.41954L59.996 6.56931L51.9581 11.3093L42.8166 9.43605L42.5278 9.37686L42.3362 9.60098L36.2728 16.6941L27.0184 17.8905L26.726 17.9283L26.6175 18.2025L23.1859 26.8801L14.8214 31.0166L14.5571 31.1473L14.5435 31.4419L14.1154 40.7635L7.54722 47.3918L7.33968 47.6013L7.42253 47.8843L10.0443 56.8398L5.98424 65.2417L5.85596 65.5072L6.02619 65.748L11.4138 73.367L10.3018 82.632L10.2667 82.9247L10.5058 83.0971L18.0754 88.554L20.032 97.678L20.0938 97.9663L20.3761 98.0518L29.3073 100.755L34.1205 108.749L34.2726 109.002L34.5672 108.991L43.8924 108.648L51.0405 114.647L51.2663 114.836L51.5415 114.73L60.25 111.378L68.9585 114.73L69.2337 114.836L69.4595 114.647L76.6076 108.648L85.9328 108.991L86.2274 109.002L86.3795 108.749L91.1927 100.755L100.124 98.0518L100.406 97.9663L100.468 97.678L102.425 88.554L109.994 83.0971L110.233 82.9247L110.198 82.632L109.086 73.367L114.474 65.748L114.644 65.5072L114.516 65.2417L110.456 56.8398L113.077 47.8843L113.16 47.6013L112.953 47.3918L106.385 40.7635L105.956 31.4419L105.943 31.1473L105.679 31.0166L97.3141 26.8801L93.8824 18.2025L93.774 17.9283L93.4816 17.8905L84.2272 16.6941L78.1638 9.60098L77.9722 9.37686L77.6834 9.43605L68.5419 11.3093L60.504 6.56931Z" fill="url(#paint1_linear_577_34234)" stroke="white"/>
<path d="M26.1929 55.216C24.9089 55.216 23.7449 54.94 22.7009 54.388C21.6689 53.824 20.8529 53.05 20.2529 52.066C19.6649 51.07 19.3709 49.948 19.3709 48.7C19.3709 47.452 19.6649 46.336 20.2529 45.352C20.8529 44.356 21.6689 43.582 22.7009 43.03C23.7449 42.466 24.9149 42.184 26.2109 42.184C27.3029 42.184 28.2869 42.376 29.1629 42.76C30.0509 43.144 30.7949 43.696 31.3949 44.416L29.5229 46.144C28.6709 45.16 27.6149 44.668 26.3549 44.668C25.5749 44.668 24.8789 44.842 24.2669 45.19C23.6549 45.526 23.1749 46 22.8269 46.612C22.4909 47.224 22.3229 47.92 22.3229 48.7C22.3229 49.48 22.4909 50.176 22.8269 50.788C23.1749 51.4 23.6549 51.88 24.2669 52.228C24.8789 52.564 25.5749 52.732 26.3549 52.732C27.6149 52.732 28.6709 52.234 29.5229 51.238L31.3949 52.966C30.7949 53.698 30.0509 54.256 29.1629 54.64C28.2749 55.024 27.2849 55.216 26.1929 55.216ZM38.1735 49.924H36.1575V55H33.2595V42.4H36.1575V47.494H38.2455L41.5575 42.4H44.6355L40.5135 48.484L44.7615 55H41.4495L38.1735 49.924ZM46.1275 42.4H49.0255V50.608L55.0375 42.4H57.7735V55H54.8935V46.81L48.8815 55H46.1275V42.4ZM73.8188 52.624V57.61H71.1188V55H62.2268V57.61H59.5268L59.5448 52.624H60.0488C60.8048 52.6 61.3388 52.048 61.6508 50.968C61.9628 49.888 62.1548 48.346 62.2268 46.342L62.3708 42.4H72.0548V52.624H73.8188ZM64.8008 46.612C64.7408 48.112 64.6148 49.372 64.4228 50.392C64.2308 51.4 63.9368 52.144 63.5408 52.624H69.1748V44.776H64.8548L64.8008 46.612ZM80.6598 49.924H78.6438V55H75.7458V42.4H78.6438V47.494H80.7318L84.0438 42.4H87.1218L82.9998 48.484L87.2478 55H83.9358L80.6598 49.924ZM88.6139 42.4H91.5119V50.608L97.5239 42.4H100.26V55H97.3799V46.81L91.3679 55H88.6139V42.4ZM36.1847 77.68V80.45H34.6847V79H29.7447V80.45H28.2447L28.2547 77.68H28.5347C28.9547 77.6667 29.2514 77.36 29.4247 76.76C29.5981 76.16 29.7047 75.3033 29.7447 74.19L29.8247 72H35.2047V77.68H36.1847ZM31.1747 74.34C31.1414 75.1733 31.0714 75.8733 30.9647 76.44C30.8581 77 30.6947 77.4133 30.4747 77.68H33.6047V73.32H31.2047L31.1747 74.34ZM40.6153 79.12C39.8886 79.12 39.2319 78.9633 38.6453 78.65C38.0653 78.3367 37.6086 77.9067 37.2753 77.36C36.9486 76.8067 36.7853 76.1867 36.7853 75.5C36.7853 74.8133 36.9486 74.1967 37.2753 73.65C37.6086 73.0967 38.0653 72.6633 38.6453 72.35C39.2319 72.0367 39.8886 71.88 40.6153 71.88C41.3419 71.88 41.9953 72.0367 42.5753 72.35C43.1553 72.6633 43.6119 73.0967 43.9453 73.65C44.2786 74.1967 44.4453 74.8133 44.4453 75.5C44.4453 76.1867 44.2786 76.8067 43.9453 77.36C43.6119 77.9067 43.1553 78.3367 42.5753 78.65C41.9953 78.9633 41.3419 79.12 40.6153 79.12ZM40.6153 77.74C41.0286 77.74 41.4019 77.6467 41.7353 77.46C42.0686 77.2667 42.3286 77 42.5153 76.66C42.7086 76.32 42.8053 75.9333 42.8053 75.5C42.8053 75.0667 42.7086 74.68 42.5153 74.34C42.3286 74 42.0686 73.7367 41.7353 73.55C41.4019 73.3567 41.0286 73.26 40.6153 73.26C40.2019 73.26 39.8286 73.3567 39.4953 73.55C39.1619 73.7367 38.8986 74 38.7053 74.34C38.5186 74.68 38.4253 75.0667 38.4253 75.5C38.4253 75.9333 38.5186 76.32 38.7053 76.66C38.8986 77 39.1619 77.2667 39.4953 77.46C39.8286 77.6467 40.2019 77.74 40.6153 77.74ZM60.7742 76.36V79H50.1942V76.9L55.5942 71.8C56.1675 71.2533 56.5542 70.7867 56.7542 70.4C56.9542 70 57.0542 69.6067 57.0542 69.22C57.0542 68.66 56.8608 68.2333 56.4742 67.94C56.1008 67.6333 55.5475 67.48 54.8142 67.48C54.2008 67.48 53.6475 67.6 53.1542 67.84C52.6608 68.0667 52.2475 68.4133 51.9142 68.88L49.5542 67.36C50.1008 66.5467 50.8542 65.9133 51.8142 65.46C52.7742 64.9933 53.8742 64.76 55.1142 64.76C56.1542 64.76 57.0608 64.9333 57.8342 65.28C58.6208 65.6133 59.2275 66.0933 59.6542 66.72C60.0942 67.3333 60.3142 68.06 60.3142 68.9C60.3142 69.66 60.1542 70.3733 59.8342 71.04C59.5142 71.7067 58.8942 72.4667 57.9742 73.32L54.7542 76.36H60.7742ZM68.072 79.24C66.912 79.24 65.8787 78.9533 64.972 78.38C64.0653 77.8067 63.352 76.98 62.832 75.9C62.3253 74.8067 62.072 73.5067 62.072 72C62.072 70.4933 62.3253 69.2 62.832 68.12C63.352 67.0267 64.0653 66.1933 64.972 65.62C65.8787 65.0467 66.912 64.76 68.072 64.76C69.232 64.76 70.2653 65.0467 71.172 65.62C72.0787 66.1933 72.7853 67.0267 73.292 68.12C73.812 69.2 74.072 70.4933 74.072 72C74.072 73.5067 73.812 74.8067 73.292 75.9C72.7853 76.98 72.0787 77.8067 71.172 78.38C70.2653 78.9533 69.232 79.24 68.072 79.24ZM68.072 76.5C68.9253 76.5 69.592 76.1333 70.072 75.4C70.5653 74.6667 70.812 73.5333 70.812 72C70.812 70.4667 70.5653 69.3333 70.072 68.6C69.592 67.8667 68.9253 67.5 68.072 67.5C67.232 67.5 66.5653 67.8667 66.072 68.6C65.592 69.3333 65.352 70.4667 65.352 72C65.352 73.5333 65.592 74.6667 66.072 75.4C66.5653 76.1333 67.232 76.5 68.072 76.5ZM78.8862 72.56C77.8595 72.56 77.0195 72.2133 76.3662 71.52C75.7262 70.8133 75.4062 69.8733 75.4062 68.7C75.4062 67.5267 75.7262 66.5933 76.3662 65.9C77.0195 65.1933 77.8595 64.84 78.8862 64.84C79.9129 64.84 80.7462 65.1933 81.3862 65.9C82.0262 66.5933 82.3462 67.5267 82.3462 68.7C82.3462 69.8733 82.0262 70.8133 81.3862 71.52C80.7462 72.2133 79.9129 72.56 78.8862 72.56ZM87.2262 65H89.6062L80.0462 79H77.6662L87.2262 65ZM78.8862 70.92C79.3395 70.92 79.6929 70.7333 79.9462 70.36C80.2129 69.9867 80.3462 69.4333 80.3462 68.7C80.3462 67.9667 80.2129 67.4133 79.9462 67.04C79.6929 66.6667 79.3395 66.48 78.8862 66.48C78.4462 66.48 78.0929 66.6733 77.8262 67.06C77.5595 67.4333 77.4262 67.98 77.4262 68.7C77.4262 69.42 77.5595 69.9733 77.8262 70.36C78.0929 70.7333 78.4462 70.92 78.8862 70.92ZM88.3862 79.16C87.7195 79.16 87.1195 79.0067 86.5862 78.7C86.0662 78.38 85.6595 77.9267 85.3662 77.34C85.0729 76.7533 84.9262 76.0733 84.9262 75.3C84.9262 74.5267 85.0729 73.8467 85.3662 73.26C85.6595 72.6733 86.0662 72.2267 86.5862 71.92C87.1195 71.6 87.7195 71.44 88.3862 71.44C89.4129 71.44 90.2462 71.7933 90.8862 72.5C91.5395 73.1933 91.8662 74.1267 91.8662 75.3C91.8662 76.4733 91.5395 77.4133 90.8862 78.12C90.2462 78.8133 89.4129 79.16 88.3862 79.16ZM88.3862 77.52C88.8395 77.52 89.1929 77.3333 89.4462 76.96C89.7129 76.5733 89.8462 76.02 89.8462 75.3C89.8462 74.58 89.7129 74.0333 89.4462 73.66C89.1929 73.2733 88.8395 73.08 88.3862 73.08C87.9462 73.08 87.5929 73.2667 87.3262 73.64C87.0595 74.0133 86.9262 74.5667 86.9262 75.3C86.9262 76.0333 87.0595 76.5867 87.3262 76.96C87.5929 77.3333 87.9462 77.52 88.3862 77.52Z" fill="white"/>
<defs>
<linearGradient id="paint0_linear_577_34234" x1="29.25" y1="88.5" x2="89.25" y2="22.5" gradientUnits="userSpaceOnUse">
<stop stop-color="#FE3360"/>
<stop offset="1" stop-color="#13EBCF"/>
</linearGradient>
<linearGradient id="paint1_linear_577_34234" x1="32.1343" y1="85.9917" x2="85.688" y2="27.0826" gradientUnits="userSpaceOnUse">
<stop stop-color="#FE3360"/>
<stop offset="1" stop-color="#13EBCF"/>
</linearGradient>
</defs>
</svg>
