<svg width="197" height="38" viewBox="0 0 197 38" fill="none" xmlns="http://www.w3.org/2000/svg">
<path d="M71.207 19.7014C71.207 25.9837 77.6603 29.3129 83.9562 29.3129C89.0286 29.3129 96.3431 27.057 96.3431 20.0706C96.3431 15.1418 92.9251 13.3302 88.1399 12.1818C83.8947 11.1769 78.7608 11.3341 78.7608 8.67491C78.7608 6.52157 81.1603 5.72859 83.5461 5.72859C86.2258 5.72859 88.9329 6.82919 88.9329 9.67981H95.598C95.0238 3.15824 89.5959 0.676758 83.6691 0.676758C77.8448 0.676758 71.9795 3.1514 71.9795 9.74133C71.9795 14.4103 76.129 16.4201 80.4699 17.1516C87.0119 18.2522 89.0354 18.5188 89.0354 20.9319C89.0354 23.4954 85.3098 24.1585 84.0383 24.1585C81.0988 24.1585 78.0362 22.8802 77.9815 19.7014H71.207Z" fill="#231F20"/>
<path d="M181.909 20.2551C178.04 20.2551 175.552 16.6047 175.757 12.9543C175.962 9.53626 177.808 6.02938 182.183 6.02938C186.442 6.02938 188.923 9.50891 188.643 13.549C188.41 16.8303 186.483 20.2346 181.896 20.2346M196.039 0.710952H188.855V3.63677C188.855 3.63677 187.064 0 180.33 0C173.07 0 168.483 6.21394 168.483 13.0431C168.483 20.2756 172.441 26.0316 180.569 26.0316C186.674 26.0316 188.595 22.9007 188.595 22.9007L188.657 25.7034C188.417 29.4359 186.414 31.432 182.572 31.432C179.735 31.432 177.951 30.5434 177.562 28.3763L169.625 28.8002C169.912 34.1049 176.133 37.2495 181.793 37.2495C194.542 37.2495 196.053 30.7143 196.053 25.3958L196.039 0.710952Z" fill="#231F20"/>
<path d="M97.5117 27.9797H105.031V12.7696C105.031 8.19625 108.278 7.12983 109.714 7.12983C113.816 7.12983 114.11 10.3564 114.11 13.2823V27.9797H121.629V12.7832C121.629 8.19627 124.364 7.0478 126.257 7.0478C130.564 7.0478 130.707 10.3154 130.707 13.2891V27.9797H138.227V10.4248C138.227 3.54776 134.201 0.929555 128.575 0.929555C126.982 0.94394 125.419 1.35533 124.026 2.12644C122.633 2.89756 121.454 4.00404 120.597 5.34564C119.168 2.16005 116.201 0.929555 112.872 0.929555C111.272 0.915752 109.694 1.30337 108.283 2.05693C106.871 2.81049 105.671 3.90595 104.792 5.2431H104.69V1.64735H97.5117V27.9797Z" fill="#231F20"/>
<path d="M147.121 11.2521C147.293 9.78811 147.996 8.43817 149.098 7.45851C150.199 6.47886 151.622 5.93766 153.096 5.93766C154.57 5.93766 155.993 6.47886 157.094 7.45851C158.195 8.43817 158.899 9.78811 159.071 11.2521H147.121ZM166.946 16.4133C167.513 8.51768 162.892 0.239258 153.034 0.239258C144.4 0.239258 139.273 7.07528 139.273 14.4855C139.273 22.0598 144.558 28.5131 153.321 28.5131C159.617 28.5131 164.444 26.0247 166.59 19.7629L158.865 19.428C158.667 20.4055 156.644 22.7024 153.458 22.7024C152.61 22.7424 151.762 22.609 150.967 22.3104C150.172 22.0117 149.446 21.5541 148.834 20.9655C148.222 20.3769 147.736 19.6697 147.406 18.887C147.076 18.1043 146.91 17.2626 146.916 16.4133H166.946Z" fill="#231F20"/>
<path d="M34.8523 27.9938C34.8088 26.2274 35.2928 24.4883 36.2425 22.9983C37.1922 21.5084 38.5644 20.3354 40.184 19.6291C41.8035 18.9228 43.5968 18.7153 45.3349 19.0331C47.0729 19.3509 48.6768 20.1796 49.9416 21.4133C51.2064 22.6469 52.0748 24.2297 52.4358 25.9592C52.7968 27.6888 52.634 29.4867 51.9683 31.1234C51.3026 32.76 50.1642 34.1611 48.6984 35.1476C47.2326 36.1341 45.506 36.6613 43.7391 36.6618C41.4122 36.6874 39.1701 35.7893 37.5042 34.1645C35.8384 32.5396 34.8847 30.3206 34.8523 27.9938Z" fill="#231F20"/>
<path d="M17.4275 27.9938C17.384 26.2274 17.868 24.4883 18.8177 22.9983C19.7674 21.5084 21.1396 20.3354 22.7592 19.6291C24.3787 18.9228 26.172 18.7153 27.9101 19.0331C29.6481 19.3509 31.252 20.1796 32.5168 21.4133C33.7816 22.6469 34.65 24.2297 35.011 25.9592C35.372 27.6888 35.2092 29.4867 34.5435 31.1234C33.8778 32.76 32.7393 34.1611 31.2736 35.1476C29.8078 36.1341 28.0812 36.6613 26.3143 36.6618C23.9874 36.6874 21.7453 35.7893 20.0794 34.1645C18.4136 32.5396 17.4599 30.3206 17.4275 27.9938Z" fill="#231F20"/>
<path d="M0.00269364 27.9938C-0.040798 26.2274 0.443225 24.4883 1.39291 22.9983C2.34259 21.5084 3.71484 20.3354 5.33439 19.6291C6.95393 18.9228 8.74723 18.7153 10.4853 19.0331C12.2233 19.3509 13.8272 20.1796 15.092 21.4133C16.3568 22.6469 17.2252 24.2297 17.5862 25.9592C17.9472 27.6888 17.7845 29.4867 17.1187 31.1234C16.453 32.76 15.3146 34.1611 13.8488 35.1476C12.383 36.1341 10.6564 36.6613 8.88952 36.6618C6.56261 36.6874 4.32051 35.7893 2.65466 34.1645C0.988806 32.5396 0.0351248 30.3206 0.00269364 27.9938Z" fill="#231F20"/>
<path d="M34.8523 11.0265C34.8088 9.26018 35.2928 7.521 36.2425 6.03107C37.1922 4.54115 38.5644 3.36813 40.184 2.66184C41.8035 1.95555 43.5968 1.74804 45.3349 2.06583C47.0729 2.38363 48.6768 3.2123 49.9416 4.44599C51.2064 5.67968 52.0748 7.26238 52.4358 8.99196C52.7968 10.7215 52.634 12.5195 51.9683 14.1561C51.3026 15.7928 50.1642 17.1938 48.6984 18.1803C47.2326 19.1668 45.506 19.694 43.7391 19.6946C41.4122 19.7201 39.1701 18.8221 37.5042 17.1972C35.8384 15.5724 34.8847 13.3533 34.8523 11.0265Z" fill="#231F20"/>
<path d="M17.4275 11.0265C17.384 9.26018 17.868 7.521 18.8177 6.03107C19.7674 4.54115 21.1396 3.36813 22.7592 2.66184C24.3787 1.95555 26.172 1.74804 27.9101 2.06583C29.6481 2.38363 31.252 3.2123 32.5168 4.44599C33.7816 5.67968 34.65 7.26238 35.011 8.99196C35.372 10.7215 35.2092 12.5195 34.5435 14.1561C33.8778 15.7928 32.7393 17.1938 31.2736 18.1803C29.8078 19.1668 28.0812 19.694 26.3143 19.6946C23.9874 19.7201 21.7453 18.8221 20.0794 17.1972C18.4136 15.5724 17.4599 13.3533 17.4275 11.0265Z" fill="#231F20"/>
<path d="M52.2234 11.0265C52.1799 9.26018 52.6639 7.521 53.6136 6.03107C54.5633 4.54115 55.9355 3.36813 57.5551 2.66184C59.1746 1.95555 60.9679 1.74804 62.706 2.06583C64.444 2.38363 66.0479 3.2123 67.3127 4.44599C68.5775 5.67968 69.4459 7.26238 69.8069 8.99196C70.1679 10.7215 70.0051 12.5195 69.3394 14.1561C68.6737 15.7928 67.5352 17.1938 66.0695 18.1803C64.6037 19.1668 62.8771 19.694 61.1102 19.6946C58.7833 19.7201 56.5412 18.8221 54.8753 17.1972C53.2095 15.5724 52.2558 13.3533 52.2234 11.0265Z" fill="#231F20"/>
</svg>
