<svg width="95" height="30" viewBox="0 0 95 30" fill="none" xmlns="http://www.w3.org/2000/svg">
<g clip-path="url(#clip0_750_10694)">
<path fill-rule="evenodd" clip-rule="evenodd" d="M14.2122 14.8974L16.1359 20.918H15.4503L10.5435 17.5754L5.62454 20.918H4.94005L6.89364 14.9051L2.21875 11.3929V10.9336H8.32031L10.3083 5.38672H10.7443L10.7532 5.41225L12.7645 10.9336H18.8594V11.3296L18.8416 11.3429L14.2122 14.8974Z" fill="#E6C553"/>
</g>
<g clip-path="url(#clip1_750_10694)">
<path fill-rule="evenodd" clip-rule="evenodd" d="M33.0716 14.8974L34.9952 20.918H34.3096L29.4029 17.5754L24.4839 20.918H23.7994L25.753 14.9051L21.0781 11.3929V10.9336H27.1797L29.1677 5.38672H29.6037L29.6125 5.41225L31.6239 10.9336H37.7187V11.3296L37.701 11.3429L33.0716 14.8974Z" fill="#E6C553"/>
</g>
<g clip-path="url(#clip2_750_10694)">
<path fill-rule="evenodd" clip-rule="evenodd" d="M51.931 14.8974L53.8546 20.918H53.169L48.2622 17.5754L43.3433 20.918H42.6588L44.6124 14.9051L39.9375 11.3929V10.9336H46.0391L48.0271 5.38672H48.463L48.4719 5.41225L50.4832 10.9336H56.5781V11.3296L56.5604 11.3429L51.931 14.8974Z" fill="#E6C553"/>
</g>
<g clip-path="url(#clip3_750_10694)">
<path fill-rule="evenodd" clip-rule="evenodd" d="M70.7903 14.8974L72.714 20.918H72.0284L67.1216 17.5754L62.2027 20.918H61.5182L63.4718 14.9051L58.7969 11.3929V10.9336H64.8984L66.8864 5.38672H67.3224L67.3313 5.41225L69.3426 10.9336H75.4375V11.3296L75.4198 11.3429L70.7903 14.8974Z" fill="#E6C553"/>
</g>
<g clip-path="url(#clip4_750_10694)">
<path fill-rule="evenodd" clip-rule="evenodd" d="M89.6497 14.8974L91.5734 20.918H90.8878L85.981 17.5754L81.062 20.918H80.3775L82.3311 14.9051L77.6562 11.3929V10.9336H83.7578L85.7458 5.38672H86.1818L86.1907 5.41225L88.202 10.9336H94.2969V11.3296L94.2791 11.3429L89.6497 14.8974Z" fill="#E6C553"/>
</g>
<defs>
<clipPath id="clip0_750_10694">
<rect width="16.6406" height="15.5312" fill="white" transform="translate(2.21875 5.38672)"/>
</clipPath>
<clipPath id="clip1_750_10694">
<rect width="16.6406" height="15.5312" fill="white" transform="translate(21.0781 5.38672)"/>
</clipPath>
<clipPath id="clip2_750_10694">
<rect width="16.6406" height="15.5312" fill="white" transform="translate(39.9375 5.38672)"/>
</clipPath>
<clipPath id="clip3_750_10694">
<rect width="16.6406" height="15.5312" fill="white" transform="translate(58.7969 5.38672)"/>
</clipPath>
<clipPath id="clip4_750_10694">
<rect width="16.6406" height="15.5312" fill="white" transform="translate(77.6562 5.38672)"/>
</clipPath>
</defs>
</svg>
