<svg width="216" height="39" viewBox="0 0 216 39" fill="none" xmlns="http://www.w3.org/2000/svg">
<path d="M38.5128 31.335V7.31567C38.5072 5.37713 37.7347 3.51956 36.364 2.1488C34.9932 0.778038 33.1356 0.00551195 31.1971 0H7.31985C5.38058 0.00440963 3.52194 0.776449 2.15028 2.14733C0.778617 3.51821 0.00551683 5.37641 0 7.31567L0 27.2948C0.00991923 30.3054 1.21053 33.1897 3.33969 35.3181C5.46885 37.4465 8.35362 38.646 11.3641 38.6548H31.1971C33.1363 38.6493 34.9945 37.8762 36.3654 36.5045C37.7363 35.1329 38.5083 33.2742 38.5128 31.335ZM36.2984 31.335C36.2918 32.6869 35.7509 33.9815 34.7938 34.9363C33.8366 35.8911 32.5407 36.4288 31.1887 36.4321H11.4185C8.98375 36.4222 6.65158 35.4506 4.92996 33.729C3.20835 32.0074 2.23677 29.6752 2.22687 27.2405V7.33238C2.23235 5.98034 2.77131 4.68512 3.72657 3.72829C4.68183 2.77147 5.97617 2.23039 7.3282 2.22269H31.1887C32.5425 2.2271 33.8397 2.76686 34.797 3.72415C35.7543 4.68145 36.294 5.97856 36.2984 7.33238V31.335Z" fill="#414141"/>
<path d="M4.69141 12.1662H24.1859V4.85889H7.68703C6.89322 4.86109 6.13255 5.17741 5.57124 5.73872C5.00993 6.30003 4.69361 7.0607 4.69141 7.85451V12.1662Z" fill="#414141"/>
<path d="M33.8416 12.1662H26.5176V4.8589H30.8293C31.2238 4.8578 31.6146 4.93441 31.9795 5.08436C32.3444 5.23431 32.6761 5.45466 32.9559 5.73283C33.2356 6.011 33.4578 6.34154 33.6097 6.70558C33.7617 7.06962 33.8405 7.46003 33.8416 7.85452V12.1662Z" fill="#414141"/>
<path d="M26.5176 14.5894H33.8416V30.8C33.8383 31.5935 33.5216 32.3535 32.9606 32.9146C32.3995 33.4756 31.6395 33.7923 30.846 33.7956H26.5176V14.5894Z" fill="#414141"/>
<path d="M4.69141 26.4925V14.5894H11.9987V24.9215C11.9987 25.3382 12.1642 25.7377 12.4588 26.0323C12.7534 26.327 13.153 26.4925 13.5696 26.4925H24.1859V33.7998H11.9987C10.061 33.7987 8.20304 33.0284 6.83289 31.6583C5.46274 30.2881 4.69251 28.4301 4.69141 26.4925Z" fill="#414141"/>
<path d="M152.125 4.85059H146.013V33.7999H152.125V4.85059Z" fill="#414141"/>
<path d="M215.338 11.239V4.85498C211.807 5.49789 208.643 7.43455 206.464 10.2864C204.287 7.43391 201.124 5.49695 197.594 4.85498V11.239C199.289 11.8075 200.762 12.8942 201.806 14.3456C202.851 15.797 203.412 17.5397 203.412 19.3276C203.412 21.1154 202.851 22.8581 201.806 24.3095C200.762 25.7609 199.289 26.8476 197.594 27.4162V33.8043C201.123 33.16 204.285 31.2236 206.464 28.3729C208.644 31.2229 211.808 33.1591 215.338 33.8043V27.4162C213.643 26.8476 212.169 25.7609 211.125 24.3095C210.081 22.8581 209.519 21.1154 209.519 19.3276C209.519 17.5397 210.081 15.797 211.125 14.3456C212.169 12.8942 213.643 11.8075 215.338 11.239Z" fill="#414141"/>
<path d="M75.3129 27.6877V20.1381H83.3096V14.0215H69.1963V33.8043H83.3096V27.6877H75.3129ZM69.1963 10.9757H83.3096V4.85498H69.1963V10.9757Z" fill="#414141"/>
<path d="M66.2382 4.85059H51.6152V10.963H66.2382V4.85059ZM58.2374 13.8918H52.125V24.6501C52.1305 27.0842 53.1013 29.4168 54.8245 31.136C56.5476 32.8553 58.8824 33.8208 61.3165 33.8208H66.2591V27.6875H61.7469C61.6078 27.698 61.4681 27.698 61.3291 27.6875C60.9271 27.6953 60.5276 27.6229 60.1539 27.4747C59.7801 27.3265 59.4397 27.1054 59.1523 26.8242C58.8649 26.543 58.6364 26.2075 58.48 25.8371C58.3236 25.4667 58.2426 25.0689 58.2415 24.6668V22.4734C58.2415 22.4441 58.2415 22.4191 58.2415 22.3898V13.8918" fill="#414141"/>
<path d="M133.909 4.62109C132.707 4.62219 131.516 4.86019 130.406 5.3215C129.295 5.7828 128.287 6.45837 127.437 7.30962C126.588 8.16086 125.915 9.1711 125.456 10.2826C124.997 11.3941 124.762 12.5851 124.764 13.7876V24.8426C124.764 26.0436 125 27.2329 125.46 28.3425C125.919 29.4521 126.593 30.4603 127.442 31.3095C128.292 32.1588 129.3 32.8324 130.409 33.2921C131.519 33.7517 132.708 33.9882 133.909 33.9882C135.11 33.9882 136.3 33.7517 137.409 33.2921C138.519 32.8324 139.527 32.1588 140.376 31.3095C141.225 30.4603 141.899 29.4521 142.359 28.3425C142.818 27.2329 143.055 26.0436 143.055 24.8426V13.7876C143.057 12.5851 142.821 11.3941 142.363 10.2826C141.904 9.1711 141.23 8.16086 140.381 7.30962C139.532 6.45837 138.523 5.7828 137.413 5.3215C136.302 4.86019 135.112 4.62219 133.909 4.62109ZM136.959 22.3901C136.959 22.482 136.959 22.7787 136.959 22.8664V24.8802C136.959 25.6869 136.639 26.4605 136.068 27.0309C135.498 27.6013 134.724 27.9218 133.918 27.9218C133.111 27.9218 132.337 27.6013 131.767 27.0309C131.197 26.4605 130.876 25.6869 130.876 24.8802V22.8915C130.876 22.7954 130.876 22.4737 130.876 22.3901V16.2652C130.876 16.1649 130.876 16.0688 130.876 15.9685V13.75C130.876 12.9433 131.197 12.1697 131.767 11.5993C132.337 11.0289 133.111 10.7084 133.918 10.7084C134.724 10.7084 135.498 11.0289 136.068 11.5993C136.639 12.1697 136.959 12.9433 136.959 13.75V15.9978C136.959 16.0897 136.959 16.1732 136.959 16.2652V22.3901Z" fill="#414141"/>
<path d="M185.503 4.6211C184.299 4.62 183.107 4.85638 181.995 5.3167C180.882 5.77702 179.872 6.45225 179.021 7.30371C178.17 8.15517 177.495 9.16615 177.035 10.2788C176.575 11.3914 176.339 12.5837 176.341 13.7876V24.8426C176.315 26.0603 176.532 27.271 176.98 28.4037C177.428 29.5363 178.098 30.5681 178.95 31.4385C179.802 32.3089 180.819 33.0005 181.942 33.4726C183.065 33.9447 184.271 34.1879 185.489 34.1879C186.707 34.1879 187.912 33.9447 189.035 33.4726C190.158 33.0005 191.175 32.3089 192.027 31.4385C192.879 30.5681 193.549 29.5363 193.997 28.4037C194.445 27.271 194.662 26.0603 194.636 24.8426V13.7876C194.639 11.3616 193.678 9.03384 191.966 7.31527C190.254 5.59669 187.929 4.62774 185.503 4.6211ZM188.553 22.3901C188.553 22.482 188.553 22.7787 188.553 22.8664V24.8802C188.553 25.6869 188.233 26.4605 187.662 27.0309C187.092 27.6013 186.318 27.9218 185.512 27.9218C184.705 27.9218 183.931 27.6013 183.361 27.0309C182.791 26.4605 182.47 25.6869 182.47 24.8802V22.8915C182.47 22.7954 182.47 22.4737 182.47 22.3901V16.2652C182.47 16.1649 182.47 16.0688 182.47 15.9685V13.75C182.47 12.9433 182.791 12.1697 183.361 11.5993C183.931 11.0289 184.705 10.7084 185.512 10.7084C186.318 10.7084 187.092 11.0289 187.662 11.5993C188.233 12.1697 188.553 12.9433 188.553 13.75V15.9978C188.553 16.0897 188.553 16.1733 188.553 16.2652V22.3901Z" fill="#414141"/>
<path d="M100.548 28.1137H94.7486C93.0189 28.1137 91.9577 26.9981 91.9577 24.8757V13.7873C91.9577 11.6691 93.0189 10.5535 94.7486 10.5535H100.548V4.85059H94.7486C91.2893 4.85059 88.6697 6.46747 87.3285 8.92413C86.5472 10.3739 86.2715 12.3835 86.2715 14.6689V23.9858C86.2715 26.2753 86.5472 28.2808 87.3285 29.7305C88.6697 32.1872 91.2893 33.8041 94.7486 33.8041H100.548V28.1137Z" fill="#414141"/>
<path d="M109.614 22.6822C109.614 22.5861 109.614 22.49 109.614 22.3897V16.2606C109.614 16.1645 109.614 15.8428 109.614 15.7384V13.7496C109.614 12.943 109.934 12.1693 110.505 11.5989C111.075 11.0285 111.849 10.708 112.655 10.708C113.462 10.708 114.236 11.0285 114.806 11.5989C115.377 12.1693 115.697 12.943 115.697 13.7496V15.7634C115.697 15.8512 115.697 16.1812 115.697 16.2606V22.3897C115.697 22.4816 115.697 22.5694 115.697 22.6529V33.804H121.801V13.7872C121.801 11.3617 120.837 9.03543 119.122 7.3203C117.407 5.60516 115.081 4.6416 112.655 4.6416C110.23 4.6416 107.904 5.60516 106.188 7.3203C104.473 9.03543 103.51 11.3617 103.51 13.7872V33.804H109.614V22.6822Z" fill="#414141"/>
<path d="M161.191 22.6822C161.191 22.5861 161.191 22.49 161.191 22.3897V16.2606C161.191 16.1645 161.191 15.8428 161.191 15.7384V13.7496C161.191 12.943 161.512 12.1693 162.082 11.5989C162.653 11.0285 163.426 10.7081 164.233 10.7081C165.04 10.7081 165.813 11.0285 166.384 11.5989C166.954 12.1693 167.275 12.943 167.275 13.7496V15.7634C167.275 15.8512 167.275 16.1812 167.275 16.2606V22.3897C167.275 22.4816 167.275 22.5694 167.275 22.6529V33.804H173.387V13.7872C173.387 12.5862 173.15 11.3969 172.691 10.2874C172.231 9.17775 171.558 8.16954 170.708 7.32029C169.859 6.47104 168.851 5.79738 167.741 5.33777C166.632 4.87816 165.442 4.6416 164.241 4.6416C163.04 4.6416 161.851 4.87816 160.741 5.33777C159.632 5.79738 158.624 6.47104 157.774 7.32029C156.925 8.16954 156.251 9.17775 155.792 10.2874C155.332 11.3969 155.096 12.5862 155.096 13.7872V33.804H161.2L161.191 22.6822Z" fill="#414141"/>
</svg>
