<svg width="24" height="25" viewBox="0 0 24 25" fill="none" xmlns="http://www.w3.org/2000/svg">
<path d="M12 24.1938C5.38286 24.1938 0 18.811 0 12.1938C0 5.5767 5.38286 0.193848 12 0.193848C18.6171 0.193848 24 5.5767 24 12.1938C24 18.811 18.6171 24.1938 12 24.1938ZM12 1.90813C6.32571 1.90813 1.71429 6.51956 1.71429 12.1938C1.71429 17.8681 6.32571 22.4796 12 22.4796C17.6743 22.4796 22.2857 17.8681 22.2857 12.1938C22.2857 6.51956 17.6743 1.90813 12 1.90813Z" fill="#150035"/>
<path d="M15.4281 16.4798C15.2738 16.4798 15.1195 16.4455 14.9824 16.3598L10.6966 13.7883C10.5697 13.7121 10.4649 13.6039 10.3928 13.4746C10.3206 13.3452 10.2835 13.1993 10.2852 13.0512V6.19406C10.2852 5.71406 10.6624 5.33691 11.1424 5.33691C11.6224 5.33691 11.9995 5.71406 11.9995 6.19406V12.5712L15.8738 14.8855C16.0334 14.9833 16.1567 15.1305 16.2251 15.3047C16.2935 15.4789 16.3033 15.6707 16.2529 15.8509C16.2025 16.0312 16.0947 16.1901 15.9459 16.3036C15.797 16.417 15.6152 16.4789 15.4281 16.4798Z" fill="#150035"/>
</svg>
