<svg width="178" height="93" viewBox="0 0 178 93" fill="none" xmlns="http://www.w3.org/2000/svg">
<rect width="178" height="93" fill="#C0C0C0"/>
<g id="1920 &#226;&#132;&#150; Page 01" clip-path="url(#clip0_33_4)">
<rect width="1920" height="8138" transform="translate(-257 -4835)" fill="white"/>
<g id="Frame 174">
<g id="Frame 26">
<g id="Group 201">
<rect id="Rectangle 27" x="-54.75" y="163.75" width="565.5" height="1375.5" rx="22.9375" transform="rotate(-90 -54.75 163.75)" stroke="#E9E9E9" stroke-width="1.5"/>
<g id="Group 197">
<g id="Group 186">
<g id="Elipsen">
<path id="Vector" d="M88.9633 76.4059C136.992 76.4059 175.927 59.7496 175.927 39.203C175.927 18.6563 136.992 2 88.9633 2C40.9348 2 2 18.6563 2 39.203C2 59.7496 40.9348 76.4059 88.9633 76.4059Z" fill="white" stroke="black" stroke-width="3"/>
<path id="Vector_2" d="M88.6082 69.8341C128.729 69.8341 161.254 56.0676 161.254 39.0858C161.254 22.1039 128.729 8.3374 88.6082 8.3374C48.4873 8.3374 15.9629 22.1039 15.9629 39.0858C15.9629 56.0676 48.4873 69.8341 88.6082 69.8341Z" fill="black" stroke="black"/>
</g>
<g id="UNOX">
<path id="Vector_3" d="M24.6475 29.54C24.6475 26.5941 25.8386 25.1401 28.3567 25.1401C30.8752 25.1401 32.0659 26.5937 32.0659 29.54V40.3305C32.0659 45.1515 34.3099 47.5622 38.6145 47.5622C42.9191 47.5622 45.1631 45.1519 45.1631 40.3305V29.54C45.1631 26.5941 46.3534 25.1401 48.8723 25.1401C51.3908 25.1401 52.5815 26.5937 52.5815 29.54V41.019C52.5815 49.1302 47.1322 53.492 38.6145 53.492C30.0968 53.492 24.6475 49.1302 24.6475 41.019V29.54Z" fill="white"/>
<path id="Vector_4" d="M60.1141 53.4036C57.6178 53.4036 56.4375 51.9417 56.4375 48.9791V29.5493C56.4375 26.8169 57.4812 25.3939 59.8421 25.3939C61.4762 25.3939 62.5658 26.0862 63.7461 27.3943L77.3187 42.5922V29.78C77.3187 26.8173 78.4986 25.3555 80.9953 25.3555C83.4917 25.3555 84.6724 26.8173 84.6724 29.78V49.6714C84.6724 52.2488 83.6739 53.5569 81.3129 53.5569C79.7695 53.5569 78.4986 52.8646 77.0914 51.287L63.7912 36.3971V48.9783C63.7912 51.9421 62.6113 53.4036 60.1141 53.4036Z" fill="white"/>
<path id="Vector_5" d="M102.649 25.1206C111.675 25.1206 117.909 30.8144 117.909 39.3926C117.909 47.9325 111.805 53.6638 102.649 53.6638C93.4932 53.6638 87.4326 47.9325 87.4326 39.3926C87.4326 30.8144 93.6244 25.1206 102.649 25.1206ZM102.649 47.7812C107.096 47.7812 110.192 44.5926 110.192 39.4687C110.192 34.1171 107.14 30.9665 102.649 30.9665C98.1592 30.9665 95.1063 34.1171 95.1063 39.4687C95.1063 44.5926 98.2018 47.7812 102.649 47.7812Z" fill="white"/>
<path id="Vector_6" d="M120.408 53.3682C118.506 53.3682 116.849 52.0392 116.849 50.7114C116.849 49.6105 117.581 48.7373 118.603 47.5984L127.038 38.4507L120.7 31.5432C119.676 30.4419 118.944 29.5691 118.944 28.5062C118.944 26.9879 120.505 25.7354 122.797 25.7354C124.211 25.7354 125.429 26.5325 126.844 28.0888L131.719 33.4028L136.692 28.0124C138.106 26.4949 139.471 25.6978 140.885 25.6978C142.641 25.6978 144.347 27.0259 144.347 28.3545C144.347 29.5691 143.567 30.4043 142.592 31.4667L136.205 38.3755L144.64 47.6368C145.615 48.7373 146.444 49.5721 146.444 50.749C146.444 52.1156 144.786 53.4058 142.836 53.4058C141.226 53.4058 139.959 52.6086 138.545 51.0903L131.524 43.4229L124.552 51.0523C123.139 52.571 121.92 53.3682 120.408 53.3682Z" fill="black" stroke="white" stroke-width="4.9686"/>
<g id="Group">
<path id="Vector_7" d="M150.69 25.4746C153.029 25.4746 154.99 27.3205 154.99 29.7403C154.99 32.2054 153.03 34.0516 150.69 34.0516C148.34 34.0516 146.367 32.2054 146.367 29.7403C146.368 27.3205 148.34 25.4746 150.69 25.4746ZM150.69 33.4212C152.673 33.4212 154.211 31.8385 154.211 29.7403C154.211 27.6873 152.673 26.1051 150.69 26.1051C148.683 26.1051 147.147 27.6877 147.147 29.7403C147.147 31.8385 148.683 33.4212 150.69 33.4212ZM149.016 27.2519H150.953C152.146 27.2519 152.708 27.722 152.708 28.685C152.708 29.5908 152.134 29.9697 151.39 30.0495L152.823 32.2626H151.986L150.621 30.1068H149.796V32.2626H149.016V27.2519ZM149.796 29.4763H150.61C151.298 29.4763 151.929 29.442 151.929 28.6507C151.929 27.9856 151.356 27.8824 150.827 27.8824H149.796V29.4763H149.796Z" fill="white"/>
</g>
</g>
<g id="Claim">
<g id="Group_2">
<path id="Vector_8" d="M24.6299 82.7881C27.0677 82.7881 28.4941 84.847 28.4941 87.6145C28.4941 90.4484 27.0794 92.4405 24.6299 92.4405C22.1803 92.4405 20.7656 90.4484 20.7656 87.6145C20.7656 84.847 22.1916 82.7881 24.6299 82.7881ZM24.6299 91.264C26.4815 91.264 27.2749 89.4725 27.2749 87.6145C27.2749 85.716 26.4009 83.9512 24.6299 83.965C22.8588 83.9517 21.9848 85.716 21.9848 87.6145C21.9848 89.4725 22.7782 91.264 24.6299 91.264Z" fill="black"/>
<path id="Vector_9" d="M36.3004 92.2799H34.8628L31.8379 82.9487H33.126L35.5985 91.1033H35.6215L38.163 82.9487H39.3708L36.3004 92.2799Z" fill="black"/>
<path id="Vector_10" d="M43.3623 82.9487H48.5894V84.1248H44.6993V86.8518H48.2418V88.0283H44.6993V91.1029H48.5894V92.279H43.3623V82.9487Z" fill="black"/>
<path id="Vector_11" d="M53.8174 82.9487H55.6356L59.7531 90.4616H59.7798V82.9487H61.1168V92.2799H59.4055L55.1811 84.6066H55.1543V92.2799H53.8174V82.9487Z" fill="black"/>
<path id="Vector_12" d="M70.8221 84.3523C70.1403 84.0849 69.7659 83.9645 69.0707 83.9645C68.322 83.9645 67.4396 84.2319 67.4396 85.2079C67.4396 86.9994 71.4505 86.585 71.4505 89.6596C71.4505 91.6516 69.913 92.44 68.0413 92.44C67.3862 92.44 66.7444 92.2528 66.1294 92.0523L66.2631 90.8089C66.7177 90.9957 67.5194 91.2635 68.2017 91.2635C68.9638 91.2635 70.0329 90.8357 70.0329 89.7398C70.0329 87.6541 66.0225 88.229 66.0225 85.3278C66.0225 83.67 67.3327 82.7876 69.0172 82.7876C69.6322 82.7876 70.3676 82.895 71.0093 83.1223L70.8221 84.3523Z" fill="black"/>
<path id="Vector_13" d="M83.1094 82.9487H85.5556C87.467 82.9487 89.058 83.6172 89.058 85.743C89.058 87.8148 87.4407 88.5502 85.7561 88.5502H84.4459V92.2803H83.1094V82.9487ZM84.4459 87.3732H85.7695C86.598 87.3732 87.6413 86.9588 87.6413 85.7288C87.6413 84.5523 86.4117 84.1244 85.5823 84.1244H84.4459V87.3732Z" fill="black"/>
<path id="Vector_14" d="M93.5508 82.9487H94.8877V91.1033H98.7917V92.2794H93.5508V82.9487Z" fill="black"/>
<path id="Vector_15" d="M106.145 82.9487H107.549L111.493 92.2799H110.036L109.087 89.9268H104.515L103.566 92.2799H102.162L106.145 82.9487ZM106.801 84.2051L104.942 88.8301H108.659L106.801 84.2051Z" fill="black"/>
<path id="Vector_16" d="M115.771 82.9487H117.59L121.707 90.4616H121.734V82.9487H123.071V92.2799H121.36L117.135 84.6066H117.109V92.2799H115.772V82.9487H115.771Z" fill="black"/>
<path id="Vector_17" d="M128.445 82.9487H133.672V84.1248H129.782V86.8518H133.325V88.0283H129.782V91.1029H133.672V92.279H128.445V82.9487Z" fill="black"/>
<path id="Vector_18" d="M140.612 84.1248H137.711V82.9487H144.85V84.1248H141.949V92.2799H140.613L140.612 84.1248Z" fill="black"/>
</g>
<g id="Group_3">
<path id="Vector_19" d="M150.325 82.855C151.734 82.855 152.915 83.9667 152.915 85.4249C152.915 86.9093 151.734 88.0223 150.325 88.0223C148.909 88.0223 147.721 86.9093 147.721 85.4249C147.721 83.9667 148.909 82.855 150.325 82.855ZM150.325 87.6421C151.519 87.6421 152.446 86.6887 152.446 85.4249C152.446 84.1882 151.519 83.2348 150.325 83.2348C149.116 83.2348 148.19 84.1882 148.19 85.4249C148.19 86.6887 149.116 87.6421 150.325 87.6421ZM149.316 83.9254H150.483C151.202 83.9254 151.54 84.2086 151.54 84.7881C151.54 85.3346 151.195 85.5627 150.746 85.6108L151.61 86.9444H151.106L150.283 85.6455H149.785V86.9444H149.315V83.9254H149.316ZM149.786 85.2657H150.277C150.69 85.2657 151.071 85.2448 151.071 84.7685C151.071 84.3674 150.726 84.306 150.407 84.306H149.786V85.2657Z" fill="black"/>
</g>
</g>
</g>
</g>
</g>
</g>
</g>
</g>
<defs>
<clipPath id="clip0_33_4">
<rect width="1920" height="8138" fill="white" transform="translate(-257 -4835)"/>
</clipPath>
</defs>
</svg>
