<svg width="140" height="76" viewBox="0 0 140 76" fill="none" xmlns="http://www.w3.org/2000/svg">
<path d="M0 0H43.1165L67.4714 26.0345L54.8741 45.9047L94.6145 0H138.991L93.5059 53.3288H46.0559L0 0Z" fill="#FCAF17"/>
<path d="M0 53.3285H41.5881L0 4.48438V53.3285Z" fill="#231F20"/>
<path d="M138.99 53.3285H97.4023L138.99 4.48438V53.3285Z" fill="#231F20"/>
<path d="M15.3289 61.7272H17.3497L9.84375 75.5843H7.53424L0.0283203 61.7272H2.04915L8.689 74.4295L15.3289 61.7272Z" fill="#231F20"/>
<path d="M30.6384 61.4385C31.6969 61.4385 32.5871 61.5046 33.3088 61.637C34.0365 61.7633 34.6349 61.9587 35.1041 62.2234C35.5732 62.482 35.934 62.8098 36.1866 63.2067C36.4393 63.6036 36.6227 64.0698 36.737 64.605C36.8573 65.1403 36.9264 65.7448 36.9445 66.4184C36.9685 67.092 36.9805 67.8378 36.9805 68.6557C36.9805 69.4737 36.9685 70.2194 36.9445 70.8931C36.9264 71.5667 36.8573 72.1711 36.737 72.7064C36.6227 73.2417 36.4393 73.7078 36.1866 74.1047C35.934 74.5017 35.5732 74.8325 35.1041 75.0971C34.6349 75.3557 34.0365 75.5482 33.3088 75.6745C32.5871 75.8068 31.6969 75.8729 30.6384 75.8729H25.424C24.3654 75.8729 23.4723 75.8068 22.7446 75.6745C22.0228 75.5482 21.4274 75.3557 20.9583 75.0971C20.4892 74.8325 20.1253 74.5017 19.8667 74.1047C19.6141 73.7078 19.4276 73.2417 19.3074 72.7064C19.1931 72.1711 19.1269 71.5667 19.1089 70.8931C19.0908 70.2194 19.0818 69.4737 19.0818 68.6557C19.0818 67.8378 19.0908 67.092 19.1089 66.4184C19.1269 65.7448 19.1931 65.1403 19.3074 64.605C19.4276 64.0698 19.6141 63.6036 19.8667 63.2067C20.1253 62.8098 20.4892 62.482 20.9583 62.2234C21.4274 61.9587 22.0228 61.7633 22.7446 61.637C23.4723 61.5046 24.3654 61.4385 25.424 61.4385H30.6384ZM30.6384 74.4295C31.4022 74.4295 32.0458 74.4084 32.569 74.3663C33.0983 74.3182 33.5343 74.225 33.8771 74.0867C34.22 73.9483 34.4846 73.7499 34.671 73.4913C34.8575 73.2326 34.9928 72.8898 35.077 72.4628C35.1612 72.0358 35.2093 71.5125 35.2213 70.8931C35.2394 70.2676 35.2484 69.5218 35.2484 68.6557C35.2484 67.7896 35.2394 67.0469 35.2213 66.4274C35.2093 65.8019 35.1612 65.2756 35.077 64.8486C34.9928 64.4216 34.8575 64.0788 34.671 63.8202C34.4846 63.5615 34.22 63.3631 33.8771 63.2247C33.5403 63.0864 33.1073 62.9962 32.578 62.9541C32.0548 62.906 31.4082 62.8819 30.6384 62.8819H25.424C24.6541 62.8819 24.0046 62.906 23.4753 62.9541C22.9521 62.9962 22.519 63.0864 22.1762 63.2247C21.8334 63.3631 21.5687 63.5615 21.3823 63.8202C21.1959 64.0788 21.0605 64.4216 20.9763 64.8486C20.8921 65.2756 20.844 65.8019 20.832 66.4274C20.82 67.0469 20.8139 67.7896 20.8139 68.6557C20.8139 69.5218 20.82 70.2676 20.832 70.8931C20.85 71.5125 20.9012 72.0358 20.9854 72.4628C21.0696 72.8898 21.2019 73.2326 21.3823 73.4913C21.5687 73.7499 21.8334 73.9483 22.1762 74.0867C22.519 74.225 22.9521 74.3182 23.4753 74.3663C24.0046 74.4084 24.6541 74.4295 25.424 74.4295H30.6384Z" fill="#231F20"/>
<path d="M55.7453 75.5843H54.0132V72.986C54.0132 72.565 54.0042 72.2042 53.9861 71.9035C53.9741 71.5967 53.923 71.3351 53.8328 71.1186C53.7486 70.9021 53.6133 70.7277 53.4268 70.5953C53.2404 70.463 52.9757 70.3608 52.6329 70.2886C52.2901 70.2164 51.8541 70.1683 51.3248 70.1443C50.8015 70.1142 50.155 70.0992 49.3852 70.0992H41.5996V75.5843H39.8674V61.7272H49.6739C50.7324 61.7272 51.6225 61.7663 52.3442 61.8444C53.072 61.9166 53.6704 62.0279 54.1395 62.1782C54.6146 62.3286 54.9785 62.515 55.2311 62.7376C55.4897 62.9601 55.6762 63.2217 55.7905 63.5225C55.9107 63.8232 55.9799 64.16 55.998 64.5329C56.022 64.9058 56.034 65.3177 56.034 65.7688C56.034 66.3462 55.9919 66.8544 55.9077 67.2935C55.8295 67.7265 55.6942 68.0964 55.5018 68.4031C55.3093 68.7098 55.0537 68.9564 54.7349 69.1429C54.4162 69.3233 54.0162 69.4496 53.5351 69.5218C54.0162 69.5939 54.4011 69.7203 54.6898 69.9007C54.9785 70.0811 55.201 70.3157 55.3574 70.6044C55.5138 70.8931 55.616 71.2359 55.6642 71.6328C55.7183 72.0298 55.7453 72.4808 55.7453 72.986V75.5843ZM41.5996 68.6557H49.6739C50.4437 68.6557 51.0902 68.6437 51.6135 68.6196C52.1427 68.5896 52.5788 68.5384 52.9216 68.4663C53.2644 68.3941 53.5291 68.2918 53.7155 68.1595C53.9019 68.0272 54.0373 67.8528 54.1215 67.6363C54.2117 67.4198 54.2628 67.1611 54.2748 66.8604C54.2929 66.5537 54.3019 66.1898 54.3019 65.7688C54.3019 65.3779 54.2929 65.0411 54.2748 64.7584C54.2628 64.4757 54.2117 64.2382 54.1215 64.0457C54.0373 63.8532 53.9019 63.6999 53.7155 63.5856C53.5291 63.4713 53.2644 63.3841 52.9216 63.324C52.5788 63.2578 52.1427 63.2157 51.6135 63.1977C51.0902 63.1796 50.4437 63.1706 49.6739 63.1706H41.5996V68.6557Z" fill="#231F20"/>
<path d="M73.9328 61.7272V63.1706H67.0042V75.5843H65.2721V63.1706H58.3436V61.7272H73.9328Z" fill="#231F20"/>
<path d="M78.5518 62.8819V75.5843H76.8197V61.7272H79.7066L87.7808 73.8521L95.8551 61.7272H98.6157V75.5843H96.8836V63.0714L88.6559 75.5843H86.9057L78.5518 62.8819Z" fill="#231F20"/>
<path d="M115.648 72.4087H104.678L102.946 75.5843H100.925L109.009 61.7272H111.318L119.401 75.5843H117.381L115.648 72.4087ZM114.782 70.9652L110.163 62.8819L105.544 70.9652H114.782Z" fill="#231F20"/>
<path d="M130.886 68.2768L139.032 75.5843H136.578L129.677 69.3955L123.01 75.5843H120.556L128.432 68.2768L121.133 61.7272H123.587L129.632 67.1581L135.487 61.7272H137.941L130.886 68.2768Z" fill="#231F20"/>
</svg>
