<svg width="32" height="31" viewBox="0 0 32 31" fill="none" xmlns="http://www.w3.org/2000/svg">
<path d="M27.2324 4.51058C25.8042 3.07517 24.1031 1.93707 22.2282 1.16267C20.3534 0.388264 18.3423 -0.00694416 16.3123 9.23327e-05C7.80678 9.23327e-05 0.874623 6.89757 0.874623 15.3605C0.874623 18.073 1.59121 20.708 2.9309 23.033L0.75 31L8.92839 28.861C11.1872 30.0855 13.7264 30.7365 16.3123 30.7365C24.8178 30.7365 31.75 23.839 31.75 15.376C31.75 11.2686 30.1455 7.40907 27.2324 4.51058ZM16.3123 28.1325C14.0068 28.1325 11.748 27.5125 9.7696 26.35L9.30226 26.071L4.44196 27.342L5.73492 22.63L5.42337 22.1495C4.14247 20.1143 3.46233 17.7619 3.46055 15.3605C3.46055 8.32357 9.22437 2.58858 16.2967 2.58858C19.7239 2.58858 22.9485 3.92158 25.3631 6.33957C26.5586 7.52371 27.5061 8.93219 28.1506 10.4834C28.795 12.0345 29.1236 13.6976 29.1173 15.376C29.1485 22.413 23.3847 28.1325 16.3123 28.1325ZM23.3535 18.5845C22.9641 18.3985 21.0636 17.4685 20.7209 17.329C20.3626 17.205 20.1133 17.143 19.8485 17.515C19.5837 17.9025 18.8515 18.7705 18.6334 19.0185C18.4153 19.282 18.1817 19.313 17.7922 19.1115C17.4028 18.9255 16.1565 18.507 14.6922 17.205C13.5394 16.182 12.7761 14.9265 12.5425 14.539C12.3244 14.1516 12.5113 13.9501 12.7138 13.7486C12.8852 13.5781 13.1033 13.2991 13.2902 13.0821C13.4771 12.8651 13.555 12.6946 13.6796 12.4466C13.8043 12.1831 13.742 11.9661 13.6485 11.7801C13.555 11.5941 12.7761 9.70306 12.4646 8.92807C12.153 8.18407 11.8259 8.27707 11.5922 8.26157H10.8445C10.5796 8.26157 10.1746 8.35457 9.81633 8.74207C9.47362 9.12957 8.47663 10.0596 8.47663 11.9506C8.47663 13.8416 9.86306 15.6705 10.05 15.9185C10.2369 16.182 12.7761 20.057 16.6394 21.7155C17.5585 22.1185 18.2751 22.351 18.8359 22.5215C19.755 22.816 20.5962 22.7695 21.2661 22.6765C22.0138 22.568 23.556 21.7465 23.8676 20.8475C24.1947 19.9485 24.1947 19.189 24.0857 19.0185C23.9766 18.848 23.743 18.7705 23.3535 18.5845Z" fill="white"/>
</svg>
