<svg width="31" height="32" viewBox="0 0 31 32" fill="none" xmlns="http://www.w3.org/2000/svg">
<path d="M26.4824 5.08187C25.0542 3.64646 23.3531 2.50836 21.4782 1.73396C19.6034 0.959553 17.5923 0.564345 15.5623 0.571381C7.05678 0.571381 0.124623 7.46886 0.124623 15.9318C0.124623 18.6443 0.841206 21.2793 2.1809 23.6043L0 31.5713L8.17839 29.4323C10.4372 30.6568 12.9764 31.3078 15.5623 31.3078C24.0678 31.3078 31 24.4103 31 15.9473C31 11.8398 29.3955 7.98036 26.4824 5.08187ZM15.5623 28.7038C13.2568 28.7038 10.998 28.0838 9.0196 26.9213L8.55226 26.6423L3.69196 27.9133L4.98492 23.2013L4.67337 22.7208C3.39247 20.6856 2.71233 18.3332 2.71055 15.9318C2.71055 8.89486 8.47437 3.15987 15.5467 3.15987C18.9739 3.15987 22.1985 4.49287 24.6131 6.91086C25.8086 8.095 26.7561 9.50348 27.4006 11.0547C28.045 12.6058 28.3736 14.2689 28.3673 15.9473C28.3985 22.9843 22.6347 28.7038 15.5623 28.7038ZM22.6035 19.1558C22.2141 18.9698 20.3136 18.0398 19.9709 17.9003C19.6126 17.7763 19.3633 17.7143 19.0985 18.0863C18.8337 18.4738 18.1015 19.3418 17.8834 19.5898C17.6653 19.8533 17.4317 19.8843 17.0422 19.6828C16.6528 19.4968 15.4065 19.0783 13.9422 17.7763C12.7894 16.7533 12.0261 15.4978 11.7925 15.1103C11.5744 14.7228 11.7613 14.5213 11.9638 14.3198C12.1352 14.1493 12.3533 13.8703 12.5402 13.6533C12.7271 13.4363 12.805 13.2658 12.9296 13.0178C13.0543 12.7543 12.992 12.5373 12.8985 12.3513C12.805 12.1653 12.0261 10.2744 11.7146 9.49936C11.403 8.75536 11.0759 8.84836 10.8422 8.83286H10.0945C9.82965 8.83286 9.42462 8.92586 9.06633 9.31336C8.72362 9.70085 7.72663 10.6309 7.72663 12.5218C7.72663 14.4128 9.11306 16.2418 9.3 16.4898C9.48693 16.7533 12.0261 20.6283 15.8894 22.2868C16.8085 22.6898 17.5251 22.9223 18.0859 23.0928C19.005 23.3873 19.8462 23.3408 20.5161 23.2478C21.2638 23.1393 22.806 22.3178 23.1176 21.4188C23.4447 20.5198 23.4447 19.7603 23.3357 19.5898C23.2266 19.4193 22.993 19.3418 22.6035 19.1558Z" fill="#150035"/>
</svg>
