<svg width="31" height="30" viewBox="0 0 31 30" fill="none" xmlns="http://www.w3.org/2000/svg">
<path d="M13.6386 8.94571C13.6384 7.58449 13.9912 6.24493 14.6649 5.04944C15.3385 3.85396 16.3115 2.84069 17.495 2.10224C18.6784 1.36379 20.0344 0.92371 21.4392 0.822229C22.844 0.720747 24.2528 0.961097 25.5367 1.52131C25.6747 1.58155 25.7956 1.67325 25.8889 1.78853C25.9822 1.90382 26.0452 2.03925 26.0725 2.18322C26.0997 2.3272 26.0904 2.47541 26.0454 2.61515C26.0004 2.75489 25.9209 2.882 25.8139 2.98556L21.5188 7.13576L23.9408 9.47602L28.2358 5.32582C28.3429 5.22234 28.4743 5.14548 28.6188 5.10183C28.7633 5.05818 28.9167 5.04905 29.0656 5.0752C29.2146 5.10136 29.3548 5.16203 29.4742 5.25202C29.5936 5.34201 29.6886 5.45862 29.7512 5.59188C30.4049 6.98881 30.6374 8.53568 30.4218 10.0546C30.2062 11.5735 29.5514 13.0028 28.5325 14.1781C27.5136 15.3533 26.1722 16.2269 24.6624 16.6982C23.1526 17.1696 21.5358 17.2196 19.9979 16.8425L8.07547 28.513C7.25752 29.3228 6.14015 29.7855 4.96917 29.7992C3.79818 29.813 2.66951 29.3767 1.83144 28.5863C0.993369 27.796 0.514553 26.7163 0.500326 25.5848C0.4861 24.4533 0.937627 23.3627 1.75558 22.5529L13.7922 10.5023C13.6897 9.98934 13.6383 9.46811 13.6386 8.94571ZM22.0676 2.6109C21.0651 2.61062 20.0759 2.83251 19.1761 3.25949C18.2762 3.68647 17.4897 4.30717 16.8769 5.07387C16.2642 5.84056 15.8416 6.73283 15.6416 7.68205C15.4417 8.63128 15.4696 9.61218 15.7234 10.5493C15.7635 10.6994 15.7631 10.857 15.7221 11.0069C15.6811 11.1568 15.6009 11.2941 15.4893 11.4054L3.10422 23.8108C2.63327 24.2769 2.37323 24.9047 2.38131 25.5561C2.38939 26.2074 2.66493 26.829 3.1473 27.2841C3.62968 27.7391 4.27938 27.9904 4.95348 27.9826C5.62758 27.9748 6.27086 27.7085 6.74181 27.2424L19.0557 15.1882C19.1781 15.0683 19.3327 14.9837 19.5021 14.944C19.6716 14.9044 19.8491 14.9112 20.0147 14.9638C21.1087 15.3123 22.2785 15.3761 23.4061 15.1488C24.5338 14.9215 25.5796 14.4111 26.4382 13.669C27.2967 12.9269 27.9378 11.9793 28.2968 10.9217C28.6558 9.86403 28.72 8.73364 28.4831 7.64436L24.602 11.3964C24.4263 11.566 24.1882 11.6613 23.9398 11.6613C23.6915 11.6613 23.4533 11.566 23.2777 11.3964L19.5314 7.77648C19.4442 7.69242 19.375 7.59255 19.3278 7.48261C19.2806 7.37266 19.2563 7.2548 19.2563 7.13576C19.2563 7.01673 19.2806 6.89886 19.3278 6.78892C19.375 6.67897 19.4442 6.57911 19.5314 6.49504L23.4144 2.74484C22.9708 2.6555 22.5189 2.61062 22.0658 2.6109H22.0676Z" fill="#150035"/>
</svg>
